<svg xmlns="http://www.w3.org/2000/svg" version="1.1" xmlns:xlink="http://www.w3.org/1999/xlink" xmlns:svgjs="http://svgjs.dev/svgjs" width="960" height="540" preserveAspectRatio="none" viewBox="0 0 960 540"><g mask="url(&quot;#SvgjsMask1027&quot;)" fill="none"><rect width="960" height="540" x="0" y="0" fill="url(&quot;#SvgjsLinearGradient1028&quot;)"></rect><path d="M-38.75 401.62L-38.75 401.62" stroke="rgba(131, 84, 24, 0.46)" stroke-width="1.5"></path><path d="M-38.75 401.62L67.14 413.31" stroke="rgba(131, 84, 24, 0.46)" stroke-width="1.5"></path><path d="M-38.75 401.62L87.17 558.02" stroke="rgba(131, 84, 24, 0.46)" stroke-width="1.5"></path><path d="M-38.75 401.62L176.6 437.62" stroke="rgba(131, 84, 24, 0.46)" stroke-width="1.5"></path><path d="M-38.75 401.62L181.9 327.06" stroke="rgba(131, 84, 24, 0.46)" stroke-width="1.5"></path><path d="M-38.75 401.62L205.3 536.37" stroke="rgba(131, 84, 24, 0.46)" stroke-width="1.5"></path><path d="M-38.75 401.62L53.4 672.85" stroke="rgba(131, 84, 24, 0.46)" stroke-width="1.5"></path><path d="M67.14 413.31L67.14 413.31" stroke="rgba(131, 84, 24, 0.46)" stroke-width="1.5"></path><path d="M87.17 558.02L87.17 558.02" stroke="rgba(131, 84, 24, 0.46)" stroke-width="1.5"></path><path d="M87.17 558.02L53.4 672.85" stroke="rgba(131, 84, 24, 0.46)" stroke-width="1.5"></path><path d="M87.17 558.02L205.3 536.37" stroke="rgba(131, 84, 24, 0.46)" stroke-width="1.5"></path><path d="M87.17 558.02L204.15 640.31" stroke="rgba(131, 84, 24, 0.46)" stroke-width="1.5"></path><path d="M87.17 558.02L67.14 413.31" stroke="rgba(131, 84, 24, 0.46)" stroke-width="1.5"></path><path d="M87.17 558.02L176.6 437.62" stroke="rgba(131, 84, 24, 0.46)" stroke-width="1.5"></path><path d="M53.4 672.85L53.4 672.85" stroke="rgba(131, 84, 24, 0.46)" stroke-width="1.5"></path><path d="M53.4 672.85L204.15 640.31" stroke="rgba(131, 84, 24, 0.46)" stroke-width="1.5"></path><path d="M181.9 327.06L181.9 327.06" stroke="rgba(131, 84, 24, 0.46)" stroke-width="1.5"></path><path d="M181.9 327.06L176.6 437.62" stroke="rgba(131, 84, 24, 0.46)" stroke-width="1.5"></path><path d="M181.9 327.06L310.02 308.5" stroke="rgba(131, 84, 24, 0.46)" stroke-width="1.5"></path><path d="M181.9 327.06L67.14 413.31" stroke="rgba(131, 84, 24, 0.46)" stroke-width="1.5"></path><path d="M181.9 327.06L322.58 436.37" stroke="rgba(131, 84, 24, 0.46)" stroke-width="1.5"></path><path d="M176.6 437.62L176.6 437.62" stroke="rgba(131, 84, 24, 0.46)" stroke-width="1.5"></path><path d="M176.6 437.62L205.3 536.37" stroke="rgba(131, 84, 24, 0.46)" stroke-width="1.5"></path><path d="M176.6 437.62L67.14 413.31" stroke="rgba(131, 84, 24, 0.46)" stroke-width="1.5"></path><path d="M176.6 437.62L322.58 436.37" stroke="rgba(131, 84, 24, 0.46)" stroke-width="1.5"></path><path d="M205.3 536.37L205.3 536.37" stroke="rgba(131, 84, 24, 0.46)" stroke-width="1.5"></path><path d="M205.3 536.37L290.61 535.34" stroke="rgba(131, 84, 24, 0.46)" stroke-width="1.5"></path><path d="M205.3 536.37L204.15 640.31" stroke="rgba(131, 84, 24, 0.46)" stroke-width="1.5"></path><path d="M204.15 640.31L204.15 640.31" stroke="rgba(131, 84, 24, 0.46)" stroke-width="1.5"></path><path d="M204.15 640.31L328.64 662.33" stroke="rgba(131, 84, 24, 0.46)" stroke-width="1.5"></path><path d="M204.15 640.31L290.61 535.34" stroke="rgba(131, 84, 24, 0.46)" stroke-width="1.5"></path><path d="M310.02 308.5L310.02 308.5" stroke="rgba(131, 84, 24, 0.46)" stroke-width="1.5"></path><path d="M310.02 308.5L413.42 327.19" stroke="rgba(131, 84, 24, 0.46)" stroke-width="1.5"></path><path d="M310.02 308.5L322.58 436.37" stroke="rgba(131, 84, 24, 0.46)" stroke-width="1.5"></path><path d="M310.02 308.5L432.1 393.76" stroke="rgba(131, 84, 24, 0.46)" stroke-width="1.5"></path><path d="M310.02 308.5L176.6 437.62" stroke="rgba(131, 84, 24, 0.46)" stroke-width="1.5"></path><path d="M322.58 436.37L322.58 436.37" stroke="rgba(131, 84, 24, 0.46)" stroke-width="1.5"></path><path d="M322.58 436.37L290.61 535.34" stroke="rgba(131, 84, 24, 0.46)" stroke-width="1.5"></path><path d="M322.58 436.37L432.1 393.76" stroke="rgba(131, 84, 24, 0.46)" stroke-width="1.5"></path><path d="M322.58 436.37L413.42 327.19" stroke="rgba(131, 84, 24, 0.46)" stroke-width="1.5"></path><path d="M290.61 535.34L290.61 535.34" stroke="rgba(131, 84, 24, 0.46)" stroke-width="1.5"></path><path d="M290.61 535.34L328.64 662.33" stroke="rgba(131, 84, 24, 0.46)" stroke-width="1.5"></path><path d="M290.61 535.34L432.55 558.98" stroke="rgba(131, 84, 24, 0.46)" stroke-width="1.5"></path><path d="M290.61 535.34L176.6 437.62" stroke="rgba(131, 84, 24, 0.46)" stroke-width="1.5"></path><path d="M328.64 662.33L328.64 662.33" stroke="rgba(131, 84, 24, 0.46)" stroke-width="1.5"></path><path d="M328.64 662.33L418.98 647.22" stroke="rgba(131, 84, 24, 0.46)" stroke-width="1.5"></path><path d="M413.42 327.19L413.42 327.19" stroke="rgba(131, 84, 24, 0.46)" stroke-width="1.5"></path><path d="M413.42 327.19L432.1 393.76" stroke="rgba(131, 84, 24, 0.46)" stroke-width="1.5"></path><path d="M413.42 327.19L540.08 324.54" stroke="rgba(131, 84, 24, 0.46)" stroke-width="1.5"></path><path d="M432.1 393.76L432.1 393.76" stroke="rgba(131, 84, 24, 0.46)" stroke-width="1.5"></path><path d="M432.1 393.76L540.08 324.54" stroke="rgba(131, 84, 24, 0.46)" stroke-width="1.5"></path><path d="M432.1 393.76L562.27 435.84" stroke="rgba(131, 84, 24, 0.46)" stroke-width="1.5"></path><path d="M432.55 558.98L432.55 558.98" stroke="rgba(131, 84, 24, 0.46)" stroke-width="1.5"></path><path d="M432.55 558.98L418.98 647.22" stroke="rgba(131, 84, 24, 0.46)" stroke-width="1.5"></path><path d="M432.55 558.98L532.03 543.54" stroke="rgba(131, 84, 24, 0.46)" stroke-width="1.5"></path><path d="M432.55 558.98L539.21 652.94" stroke="rgba(131, 84, 24, 0.46)" stroke-width="1.5"></path><path d="M418.98 647.22L418.98 647.22" stroke="rgba(131, 84, 24, 0.46)" stroke-width="1.5"></path><path d="M418.98 647.22L539.21 652.94" stroke="rgba(131, 84, 24, 0.46)" stroke-width="1.5"></path><path d="M418.98 647.22L532.03 543.54" stroke="rgba(131, 84, 24, 0.46)" stroke-width="1.5"></path><path d="M418.98 647.22L290.61 535.34" stroke="rgba(131, 84, 24, 0.46)" stroke-width="1.5"></path><path d="M561.1 154.22L561.1 154.22" stroke="rgba(131, 84, 24, 0.46)" stroke-width="1.5"></path><path d="M561.1 154.22L644.85 167.26" stroke="rgba(131, 84, 24, 0.46)" stroke-width="1.5"></path><path d="M540.08 324.54L540.08 324.54" stroke="rgba(131, 84, 24, 0.46)" stroke-width="1.5"></path><path d="M540.08 324.54L562.27 435.84" stroke="rgba(131, 84, 24, 0.46)" stroke-width="1.5"></path><path d="M540.08 324.54L674.17 408.88" stroke="rgba(131, 84, 24, 0.46)" stroke-width="1.5"></path><path d="M540.08 324.54L561.1 154.22" stroke="rgba(131, 84, 24, 0.46)" stroke-width="1.5"></path><path d="M562.27 435.84L562.27 435.84" stroke="rgba(131, 84, 24, 0.46)" stroke-width="1.5"></path><path d="M562.27 435.84L532.03 543.54" stroke="rgba(131, 84, 24, 0.46)" stroke-width="1.5"></path><path d="M562.27 435.84L674.17 408.88" stroke="rgba(131, 84, 24, 0.46)" stroke-width="1.5"></path><path d="M562.27 435.84L631.81 553.99" stroke="rgba(131, 84, 24, 0.46)" stroke-width="1.5"></path><path d="M532.03 543.54L532.03 543.54" stroke="rgba(131, 84, 24, 0.46)" stroke-width="1.5"></path><path d="M532.03 543.54L631.81 553.99" stroke="rgba(131, 84, 24, 0.46)" stroke-width="1.5"></path><path d="M532.03 543.54L539.21 652.94" stroke="rgba(131, 84, 24, 0.46)" stroke-width="1.5"></path><path d="M532.03 543.54L432.1 393.76" stroke="rgba(131, 84, 24, 0.46)" stroke-width="1.5"></path><path d="M539.21 652.94L539.21 652.94" stroke="rgba(131, 84, 24, 0.46)" stroke-width="1.5"></path><path d="M539.21 652.94L631.81 553.99" stroke="rgba(131, 84, 24, 0.46)" stroke-width="1.5"></path><path d="M640.73 -42.79L640.73 -42.79" stroke="rgba(131, 84, 24, 0.46)" stroke-width="1.5"></path><path d="M640.73 -42.79L761.59 -73.52" stroke="rgba(131, 84, 24, 0.46)" stroke-width="1.5"></path><path d="M640.73 -42.79L759.08 38.12" stroke="rgba(131, 84, 24, 0.46)" stroke-width="1.5"></path><path d="M644.85 167.26L644.85 167.26" stroke="rgba(131, 84, 24, 0.46)" stroke-width="1.5"></path><path d="M644.85 167.26L759.08 38.12" stroke="rgba(131, 84, 24, 0.46)" stroke-width="1.5"></path><path d="M644.85 167.26L786 284.95" stroke="rgba(131, 84, 24, 0.46)" stroke-width="1.5"></path><path d="M674.17 408.88L674.17 408.88" stroke="rgba(131, 84, 24, 0.46)" stroke-width="1.5"></path><path d="M674.17 408.88L807.92 394.51" stroke="rgba(131, 84, 24, 0.46)" stroke-width="1.5"></path><path d="M674.17 408.88L631.81 553.99" stroke="rgba(131, 84, 24, 0.46)" stroke-width="1.5"></path><path d="M631.81 553.99L631.81 553.99" stroke="rgba(131, 84, 24, 0.46)" stroke-width="1.5"></path><path d="M631.81 553.99L687.36 637.67" stroke="rgba(131, 84, 24, 0.46)" stroke-width="1.5"></path><path d="M631.81 553.99L767.56 537.08" stroke="rgba(131, 84, 24, 0.46)" stroke-width="1.5"></path><path d="M687.36 637.67L687.36 637.67" stroke="rgba(131, 84, 24, 0.46)" stroke-width="1.5"></path><path d="M687.36 637.67L764.59 643.3" stroke="rgba(131, 84, 24, 0.46)" stroke-width="1.5"></path><path d="M761.59 -73.52L761.59 -73.52" stroke="rgba(131, 84, 24, 0.46)" stroke-width="1.5"></path><path d="M761.59 -73.52L759.08 38.12" stroke="rgba(131, 84, 24, 0.46)" stroke-width="1.5"></path><path d="M761.59 -73.52L891.25 -49.99" stroke="rgba(131, 84, 24, 0.46)" stroke-width="1.5"></path><path d="M759.08 38.12L759.08 38.12" stroke="rgba(131, 84, 24, 0.46)" stroke-width="1.5"></path><path d="M759.08 38.12L904.33 71.16" stroke="rgba(131, 84, 24, 0.46)" stroke-width="1.5"></path><path d="M759.08 38.12L891.25 -49.99" stroke="rgba(131, 84, 24, 0.46)" stroke-width="1.5"></path><path d="M786 284.95L786 284.95" stroke="rgba(131, 84, 24, 0.46)" stroke-width="1.5"></path><path d="M786 284.95L807.92 394.51" stroke="rgba(131, 84, 24, 0.46)" stroke-width="1.5"></path><path d="M786 284.95L924.12 294.96" stroke="rgba(131, 84, 24, 0.46)" stroke-width="1.5"></path><path d="M786 284.95L874.02 420.67" stroke="rgba(131, 84, 24, 0.46)" stroke-width="1.5"></path><path d="M786 284.95L674.17 408.88" stroke="rgba(131, 84, 24, 0.46)" stroke-width="1.5"></path><path d="M786 284.95L922.14 152.44" stroke="rgba(131, 84, 24, 0.46)" stroke-width="1.5"></path><path d="M807.92 394.51L807.92 394.51" stroke="rgba(131, 84, 24, 0.46)" stroke-width="1.5"></path><path d="M807.92 394.51L874.02 420.67" stroke="rgba(131, 84, 24, 0.46)" stroke-width="1.5"></path><path d="M807.92 394.51L767.56 537.08" stroke="rgba(131, 84, 24, 0.46)" stroke-width="1.5"></path><path d="M767.56 537.08L767.56 537.08" stroke="rgba(131, 84, 24, 0.46)" stroke-width="1.5"></path><path d="M767.56 537.08L764.59 643.3" stroke="rgba(131, 84, 24, 0.46)" stroke-width="1.5"></path><path d="M767.56 537.08L687.36 637.67" stroke="rgba(131, 84, 24, 0.46)" stroke-width="1.5"></path><path d="M767.56 537.08L897.77 550.53" stroke="rgba(131, 84, 24, 0.46)" stroke-width="1.5"></path><path d="M764.59 643.3L764.59 643.3" stroke="rgba(131, 84, 24, 0.46)" stroke-width="1.5"></path><path d="M764.59 643.3L892.6 643.37" stroke="rgba(131, 84, 24, 0.46)" stroke-width="1.5"></path><path d="M764.59 643.3L631.81 553.99" stroke="rgba(131, 84, 24, 0.46)" stroke-width="1.5"></path><path d="M764.59 643.3L897.77 550.53" stroke="rgba(131, 84, 24, 0.46)" stroke-width="1.5"></path><path d="M764.59 643.3L539.21 652.94" stroke="rgba(131, 84, 24, 0.46)" stroke-width="1.5"></path><path d="M891.25 -49.99L891.25 -49.99" stroke="rgba(131, 84, 24, 0.46)" stroke-width="1.5"></path><path d="M891.25 -49.99L994.32 -57.52" stroke="rgba(131, 84, 24, 0.46)" stroke-width="1.5"></path><path d="M891.25 -49.99L904.33 71.16" stroke="rgba(131, 84, 24, 0.46)" stroke-width="1.5"></path><path d="M891.25 -49.99L1043.45 30.93" stroke="rgba(131, 84, 24, 0.46)" stroke-width="1.5"></path><path d="M891.25 -49.99L922.14 152.44" stroke="rgba(131, 84, 24, 0.46)" stroke-width="1.5"></path><path d="M904.33 71.16L904.33 71.16" stroke="rgba(131, 84, 24, 0.46)" stroke-width="1.5"></path><path d="M904.33 71.16L922.14 152.44" stroke="rgba(131, 84, 24, 0.46)" stroke-width="1.5"></path><path d="M922.14 152.44L922.14 152.44" stroke="rgba(131, 84, 24, 0.46)" stroke-width="1.5"></path><path d="M922.14 152.44L1018.38 202.58" stroke="rgba(131, 84, 24, 0.46)" stroke-width="1.5"></path><path d="M922.14 152.44L924.12 294.96" stroke="rgba(131, 84, 24, 0.46)" stroke-width="1.5"></path><path d="M922.14 152.44L1043.45 30.93" stroke="rgba(131, 84, 24, 0.46)" stroke-width="1.5"></path><path d="M922.14 152.44L1034.93 302.14" stroke="rgba(131, 84, 24, 0.46)" stroke-width="1.5"></path><path d="M924.12 294.96L924.12 294.96" stroke="rgba(131, 84, 24, 0.46)" stroke-width="1.5"></path><path d="M924.12 294.96L1034.93 302.14" stroke="rgba(131, 84, 24, 0.46)" stroke-width="1.5"></path><path d="M924.12 294.96L1018.38 202.58" stroke="rgba(131, 84, 24, 0.46)" stroke-width="1.5"></path><path d="M924.12 294.96L874.02 420.67" stroke="rgba(131, 84, 24, 0.46)" stroke-width="1.5"></path><path d="M874.02 420.67L874.02 420.67" stroke="rgba(131, 84, 24, 0.46)" stroke-width="1.5"></path><path d="M897.77 550.53L897.77 550.53" stroke="rgba(131, 84, 24, 0.46)" stroke-width="1.5"></path><path d="M897.77 550.53L892.6 643.37" stroke="rgba(131, 84, 24, 0.46)" stroke-width="1.5"></path><path d="M897.77 550.53L874.02 420.67" stroke="rgba(131, 84, 24, 0.46)" stroke-width="1.5"></path><path d="M897.77 550.53L1017.26 645.39" stroke="rgba(131, 84, 24, 0.46)" stroke-width="1.5"></path><path d="M897.77 550.53L1049.59 521.1" stroke="rgba(131, 84, 24, 0.46)" stroke-width="1.5"></path><path d="M892.6 643.37L892.6 643.37" stroke="rgba(131, 84, 24, 0.46)" stroke-width="1.5"></path><path d="M892.6 643.37L1017.26 645.39" stroke="rgba(131, 84, 24, 0.46)" stroke-width="1.5"></path><path d="M892.6 643.37L767.56 537.08" stroke="rgba(131, 84, 24, 0.46)" stroke-width="1.5"></path><path d="M994.32 -57.52L994.32 -57.52" stroke="rgba(131, 84, 24, 0.46)" stroke-width="1.5"></path><path d="M994.32 -57.52L1043.45 30.93" stroke="rgba(131, 84, 24, 0.46)" stroke-width="1.5"></path><path d="M994.32 -57.52L904.33 71.16" stroke="rgba(131, 84, 24, 0.46)" stroke-width="1.5"></path><path d="M1043.45 30.93L1043.45 30.93" stroke="rgba(131, 84, 24, 0.46)" stroke-width="1.5"></path><path d="M1043.45 30.93L904.33 71.16" stroke="rgba(131, 84, 24, 0.46)" stroke-width="1.5"></path><path d="M1043.45 30.93L1018.38 202.58" stroke="rgba(131, 84, 24, 0.46)" stroke-width="1.5"></path><path d="M1043.45 30.93L1034.93 302.14" stroke="rgba(131, 84, 24, 0.46)" stroke-width="1.5"></path><path d="M1018.38 202.58L1018.38 202.58" stroke="rgba(131, 84, 24, 0.46)" stroke-width="1.5"></path><path d="M1018.38 202.58L1034.93 302.14" stroke="rgba(131, 84, 24, 0.46)" stroke-width="1.5"></path><path d="M1018.38 202.58L904.33 71.16" stroke="rgba(131, 84, 24, 0.46)" stroke-width="1.5"></path><path d="M1018.38 202.58L1014.22 427.1" stroke="rgba(131, 84, 24, 0.46)" stroke-width="1.5"></path><path d="M1034.93 302.14L1034.93 302.14" stroke="rgba(131, 84, 24, 0.46)" stroke-width="1.5"></path><path d="M1034.93 302.14L1014.22 427.1" stroke="rgba(131, 84, 24, 0.46)" stroke-width="1.5"></path><path d="M1014.22 427.1L1014.22 427.1" stroke="rgba(131, 84, 24, 0.46)" stroke-width="1.5"></path><path d="M1014.22 427.1L1049.59 521.1" stroke="rgba(131, 84, 24, 0.46)" stroke-width="1.5"></path><path d="M1049.59 521.1L1049.59 521.1" stroke="rgba(131, 84, 24, 0.46)" stroke-width="1.5"></path><path d="M1049.59 521.1L1017.26 645.39" stroke="rgba(131, 84, 24, 0.46)" stroke-width="1.5"></path><path d="M1049.59 521.1L892.6 643.37" stroke="rgba(131, 84, 24, 0.46)" stroke-width="1.5"></path><path d="M1049.59 521.1L874.02 420.67" stroke="rgba(131, 84, 24, 0.46)" stroke-width="1.5"></path><path d="M1017.26 645.39L1017.26 645.39" stroke="rgba(131, 84, 24, 0.46)" stroke-width="1.5"></path><path d="M1017.26 645.39L1014.22 427.1" stroke="rgba(131, 84, 24, 0.46)" stroke-width="1.5"></path><path d="M1017.26 645.39L764.59 643.3" stroke="rgba(131, 84, 24, 0.46)" stroke-width="1.5"></path><path d="M1017.26 645.39L874.02 420.67" stroke="rgba(131, 84, 24, 0.46)" stroke-width="1.5"></path><circle r="5" cx="-38.75" cy="401.62" fill="rgba(131, 84, 24, 0.46)"></circle><circle r="5" cx="67.14" cy="413.31" fill="rgba(131, 84, 24, 0.46)"></circle><circle r="5" cx="87.17" cy="558.02" fill="rgba(131, 84, 24, 0.46)"></circle><circle r="5" cx="53.4" cy="672.85" fill="rgba(131, 84, 24, 0.46)"></circle><circle r="5" cx="181.9" cy="327.06" fill="rgba(131, 84, 24, 0.46)"></circle><circle r="5" cx="176.6" cy="437.62" fill="rgba(131, 84, 24, 0.46)"></circle><circle r="5" cx="205.3" cy="536.37" fill="rgba(131, 84, 24, 0.46)"></circle><circle r="5" cx="204.15" cy="640.31" fill="rgba(131, 84, 24, 0.46)"></circle><circle r="5" cx="310.02" cy="308.5" fill="rgba(131, 84, 24, 0.46)"></circle><circle r="5" cx="322.58" cy="436.37" fill="rgba(131, 84, 24, 0.46)"></circle><circle r="5" cx="290.61" cy="535.34" fill="rgba(131, 84, 24, 0.46)"></circle><circle r="5" cx="328.64" cy="662.33" fill="rgba(131, 84, 24, 0.46)"></circle><circle r="5" cx="413.42" cy="327.19" fill="rgba(131, 84, 24, 0.46)"></circle><circle r="5" cx="432.1" cy="393.76" fill="rgba(131, 84, 24, 0.46)"></circle><circle r="5" cx="432.55" cy="558.98" fill="rgba(131, 84, 24, 0.46)"></circle><circle r="5" cx="418.98" cy="647.22" fill="rgba(131, 84, 24, 0.46)"></circle><circle r="5" cx="561.1" cy="154.22" fill="rgba(131, 84, 24, 0.46)"></circle><circle r="5" cx="540.08" cy="324.54" fill="rgba(131, 84, 24, 0.46)"></circle><circle r="5" cx="562.27" cy="435.84" fill="rgba(131, 84, 24, 0.46)"></circle><circle r="5" cx="532.03" cy="543.54" fill="rgba(131, 84, 24, 0.46)"></circle><circle r="5" cx="539.21" cy="652.94" fill="rgba(131, 84, 24, 0.46)"></circle><circle r="5" cx="640.73" cy="-42.79" fill="rgba(131, 84, 24, 0.46)"></circle><circle r="5" cx="644.85" cy="167.26" fill="rgba(131, 84, 24, 0.46)"></circle><circle r="5" cx="674.17" cy="408.88" fill="rgba(131, 84, 24, 0.46)"></circle><circle r="5" cx="631.81" cy="553.99" fill="rgba(131, 84, 24, 0.46)"></circle><circle r="5" cx="687.36" cy="637.67" fill="rgba(131, 84, 24, 0.46)"></circle><circle r="5" cx="761.59" cy="-73.52" fill="rgba(131, 84, 24, 0.46)"></circle><circle r="5" cx="759.08" cy="38.12" fill="rgba(131, 84, 24, 0.46)"></circle><circle r="5" cx="786" cy="284.95" fill="rgba(131, 84, 24, 0.46)"></circle><circle r="5" cx="807.92" cy="394.51" fill="rgba(131, 84, 24, 0.46)"></circle><circle r="5" cx="767.56" cy="537.08" fill="rgba(131, 84, 24, 0.46)"></circle><circle r="5" cx="764.59" cy="643.3" fill="rgba(131, 84, 24, 0.46)"></circle><circle r="5" cx="891.25" cy="-49.99" fill="rgba(131, 84, 24, 0.46)"></circle><circle r="5" cx="904.33" cy="71.16" fill="rgba(131, 84, 24, 0.46)"></circle><circle r="5" cx="922.14" cy="152.44" fill="rgba(131, 84, 24, 0.46)"></circle><circle r="5" cx="924.12" cy="294.96" fill="rgba(131, 84, 24, 0.46)"></circle><circle r="5" cx="874.02" cy="420.67" fill="rgba(131, 84, 24, 0.46)"></circle><circle r="5" cx="897.77" cy="550.53" fill="rgba(131, 84, 24, 0.46)"></circle><circle r="5" cx="892.6" cy="643.37" fill="rgba(131, 84, 24, 0.46)"></circle><circle r="5" cx="994.32" cy="-57.52" fill="rgba(131, 84, 24, 0.46)"></circle><circle r="5" cx="1043.45" cy="30.93" fill="rgba(131, 84, 24, 0.46)"></circle><circle r="5" cx="1018.38" cy="202.58" fill="rgba(131, 84, 24, 0.46)"></circle><circle r="5" cx="1034.93" cy="302.14" fill="rgba(131, 84, 24, 0.46)"></circle><circle r="5" cx="1014.22" cy="427.1" fill="rgba(131, 84, 24, 0.46)"></circle><circle r="5" cx="1049.59" cy="521.1" fill="rgba(131, 84, 24, 0.46)"></circle><circle r="5" cx="1017.26" cy="645.39" fill="rgba(131, 84, 24, 0.46)"></circle><path d="M321.04 415.66L321.04 415.66" stroke="hsl(42.10000000000002, 77.4%, 47.4%)" stroke-width="1.5"></path><path d="M321.04 415.66L394.66 433.23" stroke="hsl(42.10000000000002, 77.4%, 47.4%)" stroke-width="1.5"></path><path d="M321.04 415.66L313.96 545.73" stroke="hsl(42.10000000000002, 77.4%, 47.4%)" stroke-width="1.5"></path><path d="M321.04 415.66L425.73 543.11" stroke="hsl(42.10000000000002, 77.4%, 47.4%)" stroke-width="1.5"></path><path d="M321.04 415.66L181.94 541.99" stroke="hsl(42.10000000000002, 77.4%, 47.4%)" stroke-width="1.5"></path><path d="M321.04 415.66L530.23 420.74" stroke="hsl(42.10000000000002, 77.4%, 47.4%)" stroke-width="1.5"></path><path d="M321.04 415.66L272.49 630.14" stroke="hsl(42.10000000000002, 77.4%, 47.4%)" stroke-width="1.5"></path><path d="M394.66 433.23L394.66 433.23" stroke="hsl(42.10000000000002, 77.4%, 47.4%)" stroke-width="1.5"></path><path d="M394.66 433.23L425.73 543.11" stroke="hsl(42.10000000000002, 77.4%, 47.4%)" stroke-width="1.5"></path><path d="M394.66 433.23L530.23 420.74" stroke="hsl(42.10000000000002, 77.4%, 47.4%)" stroke-width="1.5"></path><path d="M530.23 420.74L530.23 420.74" stroke="hsl(42.10000000000002, 77.4%, 47.4%)" stroke-width="1.5"></path><path d="M530.23 420.74L556.4 519.78" stroke="hsl(42.10000000000002, 77.4%, 47.4%)" stroke-width="1.5"></path><path d="M530.23 420.74L551.49 310.44" stroke="hsl(42.10000000000002, 77.4%, 47.4%)" stroke-width="1.5"></path><path d="M530.23 420.74L674.86 417.08" stroke="hsl(42.10000000000002, 77.4%, 47.4%)" stroke-width="1.5"></path><path d="M530.23 420.74L636.89 305.05" stroke="hsl(42.10000000000002, 77.4%, 47.4%)" stroke-width="1.5"></path><path d="M674.86 417.08L674.86 417.08" stroke="hsl(42.10000000000002, 77.4%, 47.4%)" stroke-width="1.5"></path><path d="M674.86 417.08L677.52 530.9" stroke="hsl(42.10000000000002, 77.4%, 47.4%)" stroke-width="1.5"></path><path d="M674.86 417.08L636.89 305.05" stroke="hsl(42.10000000000002, 77.4%, 47.4%)" stroke-width="1.5"></path><path d="M674.86 417.08L800.75 436.76" stroke="hsl(42.10000000000002, 77.4%, 47.4%)" stroke-width="1.5"></path><path d="M674.86 417.08L556.4 519.78" stroke="hsl(42.10000000000002, 77.4%, 47.4%)" stroke-width="1.5"></path><path d="M674.86 417.08L551.49 310.44" stroke="hsl(42.10000000000002, 77.4%, 47.4%)" stroke-width="1.5"></path><path d="M801.45 559.52L801.45 559.52" stroke="hsl(42.10000000000002, 77.4%, 47.4%)" stroke-width="1.5"></path><path d="M801.45 559.52L888.31 553.59" stroke="hsl(42.10000000000002, 77.4%, 47.4%)" stroke-width="1.5"></path><path d="M801.45 559.52L763.84 644.09" stroke="hsl(42.10000000000002, 77.4%, 47.4%)" stroke-width="1.5"></path><path d="M801.45 559.52L800.75 436.76" stroke="hsl(42.10000000000002, 77.4%, 47.4%)" stroke-width="1.5"></path><path d="M801.45 559.52L677.52 530.9" stroke="hsl(42.10000000000002, 77.4%, 47.4%)" stroke-width="1.5"></path><path d="M801.45 559.52L891.53 679.99" stroke="hsl(42.10000000000002, 77.4%, 47.4%)" stroke-width="1.5"></path><path d="M801.45 559.52L912.66 443.15" stroke="hsl(42.10000000000002, 77.4%, 47.4%)" stroke-width="1.5"></path><path d="M763.84 644.09L763.84 644.09" stroke="hsl(42.10000000000002, 77.4%, 47.4%)" stroke-width="1.5"></path><path d="M885.37 198.88L885.37 198.88" stroke="hsl(42.10000000000002, 77.4%, 47.4%)" stroke-width="1.5"></path><path d="M885.37 198.88L803.35 172.86" stroke="hsl(42.10000000000002, 77.4%, 47.4%)" stroke-width="1.5"></path><path d="M885.37 198.88L924.54 284.37" stroke="hsl(42.10000000000002, 77.4%, 47.4%)" stroke-width="1.5"></path><path d="M885.37 198.88L1000.17 201.16" stroke="hsl(42.10000000000002, 77.4%, 47.4%)" stroke-width="1.5"></path><path d="M885.37 198.88L789.35 288.74" stroke="hsl(42.10000000000002, 77.4%, 47.4%)" stroke-width="1.5"></path><path d="M1000.17 201.16L1000.17 201.16" stroke="hsl(42.10000000000002, 77.4%, 47.4%)" stroke-width="1.5"></path><path d="M1000.17 201.16L1045.8 282.76" stroke="hsl(42.10000000000002, 77.4%, 47.4%)" stroke-width="1.5"></path><path d="M1000.17 201.16L924.54 284.37" stroke="hsl(42.10000000000002, 77.4%, 47.4%)" stroke-width="1.5"></path><path d="M1000.17 201.16L803.35 172.86" stroke="hsl(42.10000000000002, 77.4%, 47.4%)" stroke-width="1.5"></path><path d="M1000.17 201.16L880.26 42.23" stroke="hsl(42.10000000000002, 77.4%, 47.4%)" stroke-width="1.5"></path><path d="M1000.17 201.16L789.35 288.74" stroke="hsl(42.10000000000002, 77.4%, 47.4%)" stroke-width="1.5"></path><path d="M-68.73 443.3L-68.73 443.3" stroke="hsl(42.10000000000002, 77.4%, 47.4%)" stroke-width="1.5"></path><path d="M-68.73 443.3L-86.32 546.11" stroke="hsl(42.10000000000002, 77.4%, 47.4%)" stroke-width="1.5"></path><path d="M-68.73 443.3L-84.55 633.67" stroke="hsl(42.10000000000002, 77.4%, 47.4%)" stroke-width="1.5"></path><path d="M-86.32 546.11L-86.32 546.11" stroke="hsl(42.10000000000002, 77.4%, 47.4%)" stroke-width="1.5"></path><path d="M-86.32 546.11L-84.55 633.67" stroke="hsl(42.10000000000002, 77.4%, 47.4%)" stroke-width="1.5"></path><path d="M-84.55 633.67L-84.55 633.67" stroke="hsl(42.10000000000002, 77.4%, 47.4%)" stroke-width="1.5"></path><path d="M-84.55 633.67L51.24 663.39" stroke="hsl(42.10000000000002, 77.4%, 47.4%)" stroke-width="1.5"></path><path d="M-84.55 633.67L176 662.56" stroke="hsl(42.10000000000002, 77.4%, 47.4%)" stroke-width="1.5"></path><path d="M-84.55 633.67L181.94 541.99" stroke="hsl(42.10000000000002, 77.4%, 47.4%)" stroke-width="1.5"></path><path d="M51.24 663.39L51.24 663.39" stroke="hsl(42.10000000000002, 77.4%, 47.4%)" stroke-width="1.5"></path><path d="M51.24 663.39L176 662.56" stroke="hsl(42.10000000000002, 77.4%, 47.4%)" stroke-width="1.5"></path><path d="M181.94 541.99L181.94 541.99" stroke="hsl(42.10000000000002, 77.4%, 47.4%)" stroke-width="1.5"></path><path d="M181.94 541.99L176 662.56" stroke="hsl(42.10000000000002, 77.4%, 47.4%)" stroke-width="1.5"></path><path d="M181.94 541.99L272.49 630.14" stroke="hsl(42.10000000000002, 77.4%, 47.4%)" stroke-width="1.5"></path><path d="M181.94 541.99L313.96 545.73" stroke="hsl(42.10000000000002, 77.4%, 47.4%)" stroke-width="1.5"></path><path d="M181.94 541.99L51.24 663.39" stroke="hsl(42.10000000000002, 77.4%, 47.4%)" stroke-width="1.5"></path><path d="M176 662.56L176 662.56" stroke="hsl(42.10000000000002, 77.4%, 47.4%)" stroke-width="1.5"></path><path d="M176 662.56L272.49 630.14" stroke="hsl(42.10000000000002, 77.4%, 47.4%)" stroke-width="1.5"></path><path d="M176 662.56L313.96 545.73" stroke="hsl(42.10000000000002, 77.4%, 47.4%)" stroke-width="1.5"></path><path d="M313.96 545.73L313.96 545.73" stroke="hsl(42.10000000000002, 77.4%, 47.4%)" stroke-width="1.5"></path><path d="M313.96 545.73L272.49 630.14" stroke="hsl(42.10000000000002, 77.4%, 47.4%)" stroke-width="1.5"></path><path d="M313.96 545.73L425.73 543.11" stroke="hsl(42.10000000000002, 77.4%, 47.4%)" stroke-width="1.5"></path><path d="M313.96 545.73L394.66 433.23" stroke="hsl(42.10000000000002, 77.4%, 47.4%)" stroke-width="1.5"></path><path d="M313.96 545.73L391.55 669.06" stroke="hsl(42.10000000000002, 77.4%, 47.4%)" stroke-width="1.5"></path><path d="M272.49 630.14L272.49 630.14" stroke="hsl(42.10000000000002, 77.4%, 47.4%)" stroke-width="1.5"></path><path d="M425.73 543.11L425.73 543.11" stroke="hsl(42.10000000000002, 77.4%, 47.4%)" stroke-width="1.5"></path><path d="M391.55 669.06L391.55 669.06" stroke="hsl(42.10000000000002, 77.4%, 47.4%)" stroke-width="1.5"></path><path d="M391.55 669.06L272.49 630.14" stroke="hsl(42.10000000000002, 77.4%, 47.4%)" stroke-width="1.5"></path><path d="M391.55 669.06L425.73 543.11" stroke="hsl(42.10000000000002, 77.4%, 47.4%)" stroke-width="1.5"></path><path d="M391.55 669.06L528.43 634.37" stroke="hsl(42.10000000000002, 77.4%, 47.4%)" stroke-width="1.5"></path><path d="M391.55 669.06L176 662.56" stroke="hsl(42.10000000000002, 77.4%, 47.4%)" stroke-width="1.5"></path><path d="M551.49 310.44L551.49 310.44" stroke="hsl(42.10000000000002, 77.4%, 47.4%)" stroke-width="1.5"></path><path d="M551.49 310.44L636.89 305.05" stroke="hsl(42.10000000000002, 77.4%, 47.4%)" stroke-width="1.5"></path><path d="M551.49 310.44L394.66 433.23" stroke="hsl(42.10000000000002, 77.4%, 47.4%)" stroke-width="1.5"></path><path d="M551.49 310.44L556.4 519.78" stroke="hsl(42.10000000000002, 77.4%, 47.4%)" stroke-width="1.5"></path><path d="M551.49 310.44L789.35 288.74" stroke="hsl(42.10000000000002, 77.4%, 47.4%)" stroke-width="1.5"></path><path d="M556.4 519.78L556.4 519.78" stroke="hsl(42.10000000000002, 77.4%, 47.4%)" stroke-width="1.5"></path><path d="M556.4 519.78L528.43 634.37" stroke="hsl(42.10000000000002, 77.4%, 47.4%)" stroke-width="1.5"></path><path d="M556.4 519.78L677.52 530.9" stroke="hsl(42.10000000000002, 77.4%, 47.4%)" stroke-width="1.5"></path><path d="M528.43 634.37L528.43 634.37" stroke="hsl(42.10000000000002, 77.4%, 47.4%)" stroke-width="1.5"></path><path d="M528.43 634.37L425.73 543.11" stroke="hsl(42.10000000000002, 77.4%, 47.4%)" stroke-width="1.5"></path><path d="M528.43 634.37L660.1 674.98" stroke="hsl(42.10000000000002, 77.4%, 47.4%)" stroke-width="1.5"></path><path d="M528.43 634.37L677.52 530.9" stroke="hsl(42.10000000000002, 77.4%, 47.4%)" stroke-width="1.5"></path><path d="M636.89 305.05L636.89 305.05" stroke="hsl(42.10000000000002, 77.4%, 47.4%)" stroke-width="1.5"></path><path d="M677.52 530.9L677.52 530.9" stroke="hsl(42.10000000000002, 77.4%, 47.4%)" stroke-width="1.5"></path><path d="M660.1 674.98L660.1 674.98" stroke="hsl(42.10000000000002, 77.4%, 47.4%)" stroke-width="1.5"></path><path d="M660.1 674.98L763.84 644.09" stroke="hsl(42.10000000000002, 77.4%, 47.4%)" stroke-width="1.5"></path><path d="M660.1 674.98L677.52 530.9" stroke="hsl(42.10000000000002, 77.4%, 47.4%)" stroke-width="1.5"></path><path d="M782.21 -56.69L782.21 -56.69" stroke="hsl(42.10000000000002, 77.4%, 47.4%)" stroke-width="1.5"></path><path d="M782.21 -56.69L883.46 -56.33" stroke="hsl(42.10000000000002, 77.4%, 47.4%)" stroke-width="1.5"></path><path d="M782.21 -56.69L792.1 47.83" stroke="hsl(42.10000000000002, 77.4%, 47.4%)" stroke-width="1.5"></path><path d="M782.21 -56.69L880.26 42.23" stroke="hsl(42.10000000000002, 77.4%, 47.4%)" stroke-width="1.5"></path><path d="M782.21 -56.69L803.35 172.86" stroke="hsl(42.10000000000002, 77.4%, 47.4%)" stroke-width="1.5"></path><path d="M792.1 47.83L792.1 47.83" stroke="hsl(42.10000000000002, 77.4%, 47.4%)" stroke-width="1.5"></path><path d="M792.1 47.83L880.26 42.23" stroke="hsl(42.10000000000002, 77.4%, 47.4%)" stroke-width="1.5"></path><path d="M792.1 47.83L803.35 172.86" stroke="hsl(42.10000000000002, 77.4%, 47.4%)" stroke-width="1.5"></path><path d="M803.35 172.86L803.35 172.86" stroke="hsl(42.10000000000002, 77.4%, 47.4%)" stroke-width="1.5"></path><path d="M803.35 172.86L789.35 288.74" stroke="hsl(42.10000000000002, 77.4%, 47.4%)" stroke-width="1.5"></path><path d="M803.35 172.86L880.26 42.23" stroke="hsl(42.10000000000002, 77.4%, 47.4%)" stroke-width="1.5"></path><path d="M803.35 172.86L924.54 284.37" stroke="hsl(42.10000000000002, 77.4%, 47.4%)" stroke-width="1.5"></path><path d="M789.35 288.74L789.35 288.74" stroke="hsl(42.10000000000002, 77.4%, 47.4%)" stroke-width="1.5"></path><path d="M789.35 288.74L924.54 284.37" stroke="hsl(42.10000000000002, 77.4%, 47.4%)" stroke-width="1.5"></path><path d="M789.35 288.74L800.75 436.76" stroke="hsl(42.10000000000002, 77.4%, 47.4%)" stroke-width="1.5"></path><path d="M789.35 288.74L636.89 305.05" stroke="hsl(42.10000000000002, 77.4%, 47.4%)" stroke-width="1.5"></path><path d="M800.75 436.76L800.75 436.76" stroke="hsl(42.10000000000002, 77.4%, 47.4%)" stroke-width="1.5"></path><path d="M800.75 436.76L912.66 443.15" stroke="hsl(42.10000000000002, 77.4%, 47.4%)" stroke-width="1.5"></path><path d="M883.46 -56.33L883.46 -56.33" stroke="hsl(42.10000000000002, 77.4%, 47.4%)" stroke-width="1.5"></path><path d="M883.46 -56.33L880.26 42.23" stroke="hsl(42.10000000000002, 77.4%, 47.4%)" stroke-width="1.5"></path><path d="M883.46 -56.33L792.1 47.83" stroke="hsl(42.10000000000002, 77.4%, 47.4%)" stroke-width="1.5"></path><path d="M883.46 -56.33L1023.54 -84.1" stroke="hsl(42.10000000000002, 77.4%, 47.4%)" stroke-width="1.5"></path><path d="M880.26 42.23L880.26 42.23" stroke="hsl(42.10000000000002, 77.4%, 47.4%)" stroke-width="1.5"></path><path d="M924.54 284.37L924.54 284.37" stroke="hsl(42.10000000000002, 77.4%, 47.4%)" stroke-width="1.5"></path><path d="M924.54 284.37L1045.8 282.76" stroke="hsl(42.10000000000002, 77.4%, 47.4%)" stroke-width="1.5"></path><path d="M912.66 443.15L912.66 443.15" stroke="hsl(42.10000000000002, 77.4%, 47.4%)" stroke-width="1.5"></path><path d="M912.66 443.15L1008.72 446.69" stroke="hsl(42.10000000000002, 77.4%, 47.4%)" stroke-width="1.5"></path><path d="M888.31 553.59L888.31 553.59" stroke="hsl(42.10000000000002, 77.4%, 47.4%)" stroke-width="1.5"></path><path d="M888.31 553.59L912.66 443.15" stroke="hsl(42.10000000000002, 77.4%, 47.4%)" stroke-width="1.5"></path><path d="M888.31 553.59L891.53 679.99" stroke="hsl(42.10000000000002, 77.4%, 47.4%)" stroke-width="1.5"></path><path d="M888.31 553.59L1030.7 542.89" stroke="hsl(42.10000000000002, 77.4%, 47.4%)" stroke-width="1.5"></path><path d="M891.53 679.99L891.53 679.99" stroke="hsl(42.10000000000002, 77.4%, 47.4%)" stroke-width="1.5"></path><path d="M891.53 679.99L763.84 644.09" stroke="hsl(42.10000000000002, 77.4%, 47.4%)" stroke-width="1.5"></path><path d="M891.53 679.99L1030.7 542.89" stroke="hsl(42.10000000000002, 77.4%, 47.4%)" stroke-width="1.5"></path><path d="M891.53 679.99L660.1 674.98" stroke="hsl(42.10000000000002, 77.4%, 47.4%)" stroke-width="1.5"></path><path d="M1023.54 -84.1L1023.54 -84.1" stroke="hsl(42.10000000000002, 77.4%, 47.4%)" stroke-width="1.5"></path><path d="M1023.54 -84.1L880.26 42.23" stroke="hsl(42.10000000000002, 77.4%, 47.4%)" stroke-width="1.5"></path><path d="M1023.54 -84.1L782.21 -56.69" stroke="hsl(42.10000000000002, 77.4%, 47.4%)" stroke-width="1.5"></path><path d="M1023.54 -84.1L792.1 47.83" stroke="hsl(42.10000000000002, 77.4%, 47.4%)" stroke-width="1.5"></path><path d="M1045.8 282.76L1045.8 282.76" stroke="hsl(42.10000000000002, 77.4%, 47.4%)" stroke-width="1.5"></path><path d="M1008.72 446.69L1008.72 446.69" stroke="hsl(42.10000000000002, 77.4%, 47.4%)" stroke-width="1.5"></path><path d="M1008.72 446.69L1030.7 542.89" stroke="hsl(42.10000000000002, 77.4%, 47.4%)" stroke-width="1.5"></path><path d="M1008.72 446.69L888.31 553.59" stroke="hsl(42.10000000000002, 77.4%, 47.4%)" stroke-width="1.5"></path><path d="M1008.72 446.69L1045.8 282.76" stroke="hsl(42.10000000000002, 77.4%, 47.4%)" stroke-width="1.5"></path><path d="M1008.72 446.69L924.54 284.37" stroke="hsl(42.10000000000002, 77.4%, 47.4%)" stroke-width="1.5"></path><path d="M1030.7 542.89L1030.7 542.89" stroke="hsl(42.10000000000002, 77.4%, 47.4%)" stroke-width="1.5"></path><path d="M1030.7 542.89L912.66 443.15" stroke="hsl(42.10000000000002, 77.4%, 47.4%)" stroke-width="1.5"></path><path d="M1030.7 542.89L801.45 559.52" stroke="hsl(42.10000000000002, 77.4%, 47.4%)" stroke-width="1.5"></path><circle r="25" cx="321.04" cy="415.66" fill="url(&quot;#SvgjsRadialGradient1029&quot;)"></circle><circle r="25" cx="394.66" cy="433.23" fill="url(&quot;#SvgjsRadialGradient1029&quot;)"></circle><circle r="25" cx="530.23" cy="420.74" fill="url(&quot;#SvgjsRadialGradient1029&quot;)"></circle><circle r="25" cx="674.86" cy="417.08" fill="url(&quot;#SvgjsRadialGradient1029&quot;)"></circle><circle r="25" cx="801.45" cy="559.52" fill="url(&quot;#SvgjsRadialGradient1029&quot;)"></circle><circle r="25" cx="763.84" cy="644.09" fill="url(&quot;#SvgjsRadialGradient1029&quot;)"></circle><circle r="25" cx="885.37" cy="198.88" fill="url(&quot;#SvgjsRadialGradient1029&quot;)"></circle><circle r="25" cx="1000.17" cy="201.16" fill="url(&quot;#SvgjsRadialGradient1029&quot;)"></circle><circle r="5" cx="-68.73" cy="443.3" fill="#d2bd8a"></circle><circle r="5" cx="-86.32" cy="546.11" fill="#d2bd8a"></circle><circle r="5" cx="-84.55" cy="633.67" fill="#d2bd8a"></circle><circle r="5" cx="51.24" cy="663.39" fill="#d2bd8a"></circle><circle r="5" cx="181.94" cy="541.99" fill="#d2bd8a"></circle><circle r="5" cx="176" cy="662.56" fill="#d2bd8a"></circle><circle r="5" cx="313.96" cy="545.73" fill="#d2bd8a"></circle><circle r="5" cx="272.49" cy="630.14" fill="#d2bd8a"></circle><circle r="5" cx="425.73" cy="543.11" fill="#d2bd8a"></circle><circle r="5" cx="391.55" cy="669.06" fill="#d2bd8a"></circle><circle r="5" cx="551.49" cy="310.44" fill="#d2bd8a"></circle><circle r="5" cx="556.4" cy="519.78" fill="#d2bd8a"></circle><circle r="5" cx="528.43" cy="634.37" fill="#d2bd8a"></circle><circle r="5" cx="636.89" cy="305.05" fill="#d2bd8a"></circle><circle r="5" cx="677.52" cy="530.9" fill="#d2bd8a"></circle><circle r="5" cx="660.1" cy="674.98" fill="#d2bd8a"></circle><circle r="5" cx="782.21" cy="-56.69" fill="#d2bd8a"></circle><circle r="5" cx="792.1" cy="47.83" fill="#d2bd8a"></circle><circle r="5" cx="803.35" cy="172.86" fill="#d2bd8a"></circle><circle r="5" cx="789.35" cy="288.74" fill="#d2bd8a"></circle><circle r="5" cx="800.75" cy="436.76" fill="#d2bd8a"></circle><circle r="5" cx="883.46" cy="-56.33" fill="#d2bd8a"></circle><circle r="5" cx="880.26" cy="42.23" fill="#d2bd8a"></circle><circle r="5" cx="924.54" cy="284.37" fill="#d2bd8a"></circle><circle r="5" cx="912.66" cy="443.15" fill="#d2bd8a"></circle><circle r="5" cx="888.31" cy="553.59" fill="#d2bd8a"></circle><circle r="5" cx="891.53" cy="679.99" fill="#d2bd8a"></circle><circle r="5" cx="1023.54" cy="-84.1" fill="#d2bd8a"></circle><circle r="5" cx="1045.8" cy="282.76" fill="#d2bd8a"></circle><circle r="5" cx="1008.72" cy="446.69" fill="#d2bd8a"></circle><circle r="5" cx="1030.7" cy="542.89" fill="#d2bd8a"></circle></g><defs><mask id="SvgjsMask1027"><rect width="960" height="540" fill="#ffffff"></rect></mask><linearGradient x1="10.94%" y1="-19.44%" x2="89.06%" y2="119.44%" gradientUnits="userSpaceOnUse" id="SvgjsLinearGradient1028"><stop stop-color="rgba(14, 42, 71, 1)" offset="0"></stop><stop stop-color="rgba(23, 24, 28, 1)" offset="1"></stop></linearGradient><radialGradient id="SvgjsRadialGradient1029"><stop stop-color="#ffffff" offset="0.1"></stop><stop stop-color="rgba(165, 122, 21, 1)" offset="0.2"></stop><stop stop-color="rgba(165, 122, 21, 0)" offset="1"></stop></radialGradient></defs></svg>