<svg xmlns="http://www.w3.org/2000/svg" version="1.1" xmlns:xlink="http://www.w3.org/1999/xlink" xmlns:svgjs="http://svgjs.dev/svgjs" width="1440" height="560" preserveAspectRatio="none" viewBox="0 0 1440 560"><g transform="scale(-1, -1) translate(-1440, -560)" mask="url(&quot;#SvgjsMask1833&quot;)" fill="none"><rect width="1440" height="560" x="0" y="0" fill="url(&quot;#SvgjsLinearGradient1834&quot;)"></rect><path d="M-63.1 382.84L-63.1 382.84" stroke="rgba(3, 160, 98, 0.1)" stroke-width="1.5"></path><path d="M-63.1 382.84L82.41 407.48" stroke="rgba(3, 160, 98, 0.1)" stroke-width="1.5"></path><path d="M-63.1 382.84L-99.42 543.1" stroke="rgba(3, 160, 98, 0.1)" stroke-width="1.5"></path><path d="M-63.1 382.84L105.17 544.33" stroke="rgba(3, 160, 98, 0.1)" stroke-width="1.5"></path><path d="M-63.1 382.84L229.22 350.59" stroke="rgba(3, 160, 98, 0.1)" stroke-width="1.5"></path><path d="M-63.1 382.84L-45.88 691.85" stroke="rgba(3, 160, 98, 0.1)" stroke-width="1.5"></path><path d="M-99.42 543.1L-99.42 543.1" stroke="rgba(3, 160, 98, 0.1)" stroke-width="1.5"></path><path d="M-99.42 543.1L-45.88 691.85" stroke="rgba(3, 160, 98, 0.1)" stroke-width="1.5"></path><path d="M-99.42 543.1L105.17 544.33" stroke="rgba(3, 160, 98, 0.1)" stroke-width="1.5"></path><path d="M-45.88 691.85L-45.88 691.85" stroke="rgba(3, 160, 98, 0.1)" stroke-width="1.5"></path><path d="M-45.88 691.85L51.03 702.17" stroke="rgba(3, 160, 98, 0.1)" stroke-width="1.5"></path><path d="M-45.88 691.85L105.17 544.33" stroke="rgba(3, 160, 98, 0.1)" stroke-width="1.5"></path><path d="M-45.88 691.85L249.45 660.16" stroke="rgba(3, 160, 98, 0.1)" stroke-width="1.5"></path><path d="M82.41 407.48L82.41 407.48" stroke="rgba(3, 160, 98, 0.1)" stroke-width="1.5"></path><path d="M82.41 407.48L105.17 544.33" stroke="rgba(3, 160, 98, 0.1)" stroke-width="1.5"></path><path d="M82.41 407.48L229.22 350.59" stroke="rgba(3, 160, 98, 0.1)" stroke-width="1.5"></path><path d="M105.17 544.33L105.17 544.33" stroke="rgba(3, 160, 98, 0.1)" stroke-width="1.5"></path><path d="M105.17 544.33L51.03 702.17" stroke="rgba(3, 160, 98, 0.1)" stroke-width="1.5"></path><path d="M105.17 544.33L249.45 660.16" stroke="rgba(3, 160, 98, 0.1)" stroke-width="1.5"></path><path d="M51.03 702.17L51.03 702.17" stroke="rgba(3, 160, 98, 0.1)" stroke-width="1.5"></path><path d="M51.03 702.17L249.45 660.16" stroke="rgba(3, 160, 98, 0.1)" stroke-width="1.5"></path><path d="M229.22 350.59L229.22 350.59" stroke="rgba(3, 160, 98, 0.1)" stroke-width="1.5"></path><path d="M229.22 350.59L386.23 408.43" stroke="rgba(3, 160, 98, 0.1)" stroke-width="1.5"></path><path d="M229.22 350.59L105.17 544.33" stroke="rgba(3, 160, 98, 0.1)" stroke-width="1.5"></path><path d="M249.45 660.16L249.45 660.16" stroke="rgba(3, 160, 98, 0.1)" stroke-width="1.5"></path><path d="M249.45 660.16L361.74 709.5" stroke="rgba(3, 160, 98, 0.1)" stroke-width="1.5"></path><path d="M249.45 660.16L400 539.98" stroke="rgba(3, 160, 98, 0.1)" stroke-width="1.5"></path><path d="M249.45 660.16L386.23 408.43" stroke="rgba(3, 160, 98, 0.1)" stroke-width="1.5"></path><path d="M249.45 660.16L541.72 694.35" stroke="rgba(3, 160, 98, 0.1)" stroke-width="1.5"></path><path d="M386.23 408.43L386.23 408.43" stroke="rgba(3, 160, 98, 0.1)" stroke-width="1.5"></path><path d="M386.23 408.43L400 539.98" stroke="rgba(3, 160, 98, 0.1)" stroke-width="1.5"></path><path d="M386.23 408.43L562.24 359.01" stroke="rgba(3, 160, 98, 0.1)" stroke-width="1.5"></path><path d="M386.23 408.43L537.7 535.52" stroke="rgba(3, 160, 98, 0.1)" stroke-width="1.5"></path><path d="M400 539.98L400 539.98" stroke="rgba(3, 160, 98, 0.1)" stroke-width="1.5"></path><path d="M400 539.98L537.7 535.52" stroke="rgba(3, 160, 98, 0.1)" stroke-width="1.5"></path><path d="M400 539.98L361.74 709.5" stroke="rgba(3, 160, 98, 0.1)" stroke-width="1.5"></path><path d="M361.74 709.5L361.74 709.5" stroke="rgba(3, 160, 98, 0.1)" stroke-width="1.5"></path><path d="M562.24 359.01L562.24 359.01" stroke="rgba(3, 160, 98, 0.1)" stroke-width="1.5"></path><path d="M562.24 359.01L537.7 535.52" stroke="rgba(3, 160, 98, 0.1)" stroke-width="1.5"></path><path d="M562.24 359.01L707.76 246.4" stroke="rgba(3, 160, 98, 0.1)" stroke-width="1.5"></path><path d="M537.7 535.52L537.7 535.52" stroke="rgba(3, 160, 98, 0.1)" stroke-width="1.5"></path><path d="M537.7 535.52L668.19 544.93" stroke="rgba(3, 160, 98, 0.1)" stroke-width="1.5"></path><path d="M537.7 535.52L541.72 694.35" stroke="rgba(3, 160, 98, 0.1)" stroke-width="1.5"></path><path d="M537.7 535.52L649.96 693.9" stroke="rgba(3, 160, 98, 0.1)" stroke-width="1.5"></path><path d="M541.72 694.35L541.72 694.35" stroke="rgba(3, 160, 98, 0.1)" stroke-width="1.5"></path><path d="M541.72 694.35L649.96 693.9" stroke="rgba(3, 160, 98, 0.1)" stroke-width="1.5"></path><path d="M707.76 246.4L707.76 246.4" stroke="rgba(3, 160, 98, 0.1)" stroke-width="1.5"></path><path d="M707.76 246.4L788.95 496.83" stroke="rgba(3, 160, 98, 0.1)" stroke-width="1.5"></path><path d="M707.76 246.4L946.1 362.34" stroke="rgba(3, 160, 98, 0.1)" stroke-width="1.5"></path><path d="M707.76 246.4L938.62 102.03" stroke="rgba(3, 160, 98, 0.1)" stroke-width="1.5"></path><path d="M707.76 246.4L999.47 194.17" stroke="rgba(3, 160, 98, 0.1)" stroke-width="1.5"></path><path d="M707.76 246.4L668.19 544.93" stroke="rgba(3, 160, 98, 0.1)" stroke-width="1.5"></path><path d="M668.19 544.93L668.19 544.93" stroke="rgba(3, 160, 98, 0.1)" stroke-width="1.5"></path><path d="M668.19 544.93L788.95 496.83" stroke="rgba(3, 160, 98, 0.1)" stroke-width="1.5"></path><path d="M668.19 544.93L649.96 693.9" stroke="rgba(3, 160, 98, 0.1)" stroke-width="1.5"></path><path d="M668.19 544.93L541.72 694.35" stroke="rgba(3, 160, 98, 0.1)" stroke-width="1.5"></path><path d="M668.19 544.93L824.91 684.04" stroke="rgba(3, 160, 98, 0.1)" stroke-width="1.5"></path><path d="M668.19 544.93L562.24 359.01" stroke="rgba(3, 160, 98, 0.1)" stroke-width="1.5"></path><path d="M649.96 693.9L649.96 693.9" stroke="rgba(3, 160, 98, 0.1)" stroke-width="1.5"></path><path d="M788.95 496.83L788.95 496.83" stroke="rgba(3, 160, 98, 0.1)" stroke-width="1.5"></path><path d="M788.95 496.83L946.96 550.76" stroke="rgba(3, 160, 98, 0.1)" stroke-width="1.5"></path><path d="M824.91 684.04L824.91 684.04" stroke="rgba(3, 160, 98, 0.1)" stroke-width="1.5"></path><path d="M824.91 684.04L941.97 684.85" stroke="rgba(3, 160, 98, 0.1)" stroke-width="1.5"></path><path d="M824.91 684.04L649.96 693.9" stroke="rgba(3, 160, 98, 0.1)" stroke-width="1.5"></path><path d="M824.91 684.04L946.96 550.76" stroke="rgba(3, 160, 98, 0.1)" stroke-width="1.5"></path><path d="M938.62 102.03L938.62 102.03" stroke="rgba(3, 160, 98, 0.1)" stroke-width="1.5"></path><path d="M938.62 102.03L999.47 194.17" stroke="rgba(3, 160, 98, 0.1)" stroke-width="1.5"></path><path d="M938.62 102.03L1091.55 53.44" stroke="rgba(3, 160, 98, 0.1)" stroke-width="1.5"></path><path d="M938.62 102.03L1110.53 227.87" stroke="rgba(3, 160, 98, 0.1)" stroke-width="1.5"></path><path d="M938.62 102.03L1121.25 -65.12" stroke="rgba(3, 160, 98, 0.1)" stroke-width="1.5"></path><path d="M938.62 102.03L946.1 362.34" stroke="rgba(3, 160, 98, 0.1)" stroke-width="1.5"></path><path d="M999.47 194.17L999.47 194.17" stroke="rgba(3, 160, 98, 0.1)" stroke-width="1.5"></path><path d="M999.47 194.17L1110.53 227.87" stroke="rgba(3, 160, 98, 0.1)" stroke-width="1.5"></path><path d="M999.47 194.17L1091.55 53.44" stroke="rgba(3, 160, 98, 0.1)" stroke-width="1.5"></path><path d="M999.47 194.17L946.1 362.34" stroke="rgba(3, 160, 98, 0.1)" stroke-width="1.5"></path><path d="M999.47 194.17L1284.25 214.89" stroke="rgba(3, 160, 98, 0.1)" stroke-width="1.5"></path><path d="M999.47 194.17L1121.25 -65.12" stroke="rgba(3, 160, 98, 0.1)" stroke-width="1.5"></path><path d="M946.1 362.34L946.1 362.34" stroke="rgba(3, 160, 98, 0.1)" stroke-width="1.5"></path><path d="M946.1 362.34L946.96 550.76" stroke="rgba(3, 160, 98, 0.1)" stroke-width="1.5"></path><path d="M946.1 362.34L788.95 496.83" stroke="rgba(3, 160, 98, 0.1)" stroke-width="1.5"></path><path d="M946.1 362.34L1110.53 227.87" stroke="rgba(3, 160, 98, 0.1)" stroke-width="1.5"></path><path d="M946.96 550.76L946.96 550.76" stroke="rgba(3, 160, 98, 0.1)" stroke-width="1.5"></path><path d="M946.96 550.76L941.97 684.85" stroke="rgba(3, 160, 98, 0.1)" stroke-width="1.5"></path><path d="M946.96 550.76L1132.37 553.32" stroke="rgba(3, 160, 98, 0.1)" stroke-width="1.5"></path><path d="M946.96 550.76L1126.72 685.82" stroke="rgba(3, 160, 98, 0.1)" stroke-width="1.5"></path><path d="M941.97 684.85L941.97 684.85" stroke="rgba(3, 160, 98, 0.1)" stroke-width="1.5"></path><path d="M1121.25 -65.12L1121.25 -65.12" stroke="rgba(3, 160, 98, 0.1)" stroke-width="1.5"></path><path d="M1121.25 -65.12L1091.55 53.44" stroke="rgba(3, 160, 98, 0.1)" stroke-width="1.5"></path><path d="M1121.25 -65.12L1244.72 -82.66" stroke="rgba(3, 160, 98, 0.1)" stroke-width="1.5"></path><path d="M1121.25 -65.12L1280.18 101.83" stroke="rgba(3, 160, 98, 0.1)" stroke-width="1.5"></path><path d="M1091.55 53.44L1091.55 53.44" stroke="rgba(3, 160, 98, 0.1)" stroke-width="1.5"></path><path d="M1091.55 53.44L1110.53 227.87" stroke="rgba(3, 160, 98, 0.1)" stroke-width="1.5"></path><path d="M1091.55 53.44L1280.18 101.83" stroke="rgba(3, 160, 98, 0.1)" stroke-width="1.5"></path><path d="M1091.55 53.44L1244.72 -82.66" stroke="rgba(3, 160, 98, 0.1)" stroke-width="1.5"></path><path d="M1110.53 227.87L1110.53 227.87" stroke="rgba(3, 160, 98, 0.1)" stroke-width="1.5"></path><path d="M1110.53 227.87L1284.25 214.89" stroke="rgba(3, 160, 98, 0.1)" stroke-width="1.5"></path><path d="M1132.37 553.32L1132.37 553.32" stroke="rgba(3, 160, 98, 0.1)" stroke-width="1.5"></path><path d="M1132.37 553.32L1126.72 685.82" stroke="rgba(3, 160, 98, 0.1)" stroke-width="1.5"></path><path d="M1132.37 553.32L1282.87 495.24" stroke="rgba(3, 160, 98, 0.1)" stroke-width="1.5"></path><path d="M1132.37 553.32L1253.01 383.17" stroke="rgba(3, 160, 98, 0.1)" stroke-width="1.5"></path><path d="M1126.72 685.82L1126.72 685.82" stroke="rgba(3, 160, 98, 0.1)" stroke-width="1.5"></path><path d="M1126.72 685.82L941.97 684.85" stroke="rgba(3, 160, 98, 0.1)" stroke-width="1.5"></path><path d="M1126.72 685.82L1282.87 495.24" stroke="rgba(3, 160, 98, 0.1)" stroke-width="1.5"></path><path d="M1244.72 -82.66L1244.72 -82.66" stroke="rgba(3, 160, 98, 0.1)" stroke-width="1.5"></path><path d="M1244.72 -82.66L1428.39 -90.29" stroke="rgba(3, 160, 98, 0.1)" stroke-width="1.5"></path><path d="M1244.72 -82.66L1280.18 101.83" stroke="rgba(3, 160, 98, 0.1)" stroke-width="1.5"></path><path d="M1280.18 101.83L1280.18 101.83" stroke="rgba(3, 160, 98, 0.1)" stroke-width="1.5"></path><path d="M1280.18 101.83L1284.25 214.89" stroke="rgba(3, 160, 98, 0.1)" stroke-width="1.5"></path><path d="M1280.18 101.83L1427.22 52.03" stroke="rgba(3, 160, 98, 0.1)" stroke-width="1.5"></path><path d="M1280.18 101.83L1426.96 218.14" stroke="rgba(3, 160, 98, 0.1)" stroke-width="1.5"></path><path d="M1284.25 214.89L1284.25 214.89" stroke="rgba(3, 160, 98, 0.1)" stroke-width="1.5"></path><path d="M1284.25 214.89L1426.96 218.14" stroke="rgba(3, 160, 98, 0.1)" stroke-width="1.5"></path><path d="M1284.25 214.89L1253.01 383.17" stroke="rgba(3, 160, 98, 0.1)" stroke-width="1.5"></path><path d="M1284.25 214.89L1417.72 344.5" stroke="rgba(3, 160, 98, 0.1)" stroke-width="1.5"></path><path d="M1253.01 383.17L1253.01 383.17" stroke="rgba(3, 160, 98, 0.1)" stroke-width="1.5"></path><path d="M1253.01 383.17L1282.87 495.24" stroke="rgba(3, 160, 98, 0.1)" stroke-width="1.5"></path><path d="M1253.01 383.17L1417.72 344.5" stroke="rgba(3, 160, 98, 0.1)" stroke-width="1.5"></path><path d="M1282.87 495.24L1282.87 495.24" stroke="rgba(3, 160, 98, 0.1)" stroke-width="1.5"></path><path d="M1428.39 -90.29L1428.39 -90.29" stroke="rgba(3, 160, 98, 0.1)" stroke-width="1.5"></path><path d="M1428.39 -90.29L1427.22 52.03" stroke="rgba(3, 160, 98, 0.1)" stroke-width="1.5"></path><path d="M1428.39 -90.29L1573.33 -65.45" stroke="rgba(3, 160, 98, 0.1)" stroke-width="1.5"></path><path d="M1427.22 52.03L1427.22 52.03" stroke="rgba(3, 160, 98, 0.1)" stroke-width="1.5"></path><path d="M1426.96 218.14L1426.96 218.14" stroke="rgba(3, 160, 98, 0.1)" stroke-width="1.5"></path><path d="M1426.96 218.14L1417.72 344.5" stroke="rgba(3, 160, 98, 0.1)" stroke-width="1.5"></path><path d="M1426.96 218.14L1569.68 236.73" stroke="rgba(3, 160, 98, 0.1)" stroke-width="1.5"></path><path d="M1417.72 344.5L1417.72 344.5" stroke="rgba(3, 160, 98, 0.1)" stroke-width="1.5"></path><path d="M1417.72 344.5L1562.75 397.18" stroke="rgba(3, 160, 98, 0.1)" stroke-width="1.5"></path><path d="M1417.72 344.5L1453.14 517.58" stroke="rgba(3, 160, 98, 0.1)" stroke-width="1.5"></path><path d="M1417.72 344.5L1569.68 236.73" stroke="rgba(3, 160, 98, 0.1)" stroke-width="1.5"></path><path d="M1453.14 517.58L1453.14 517.58" stroke="rgba(3, 160, 98, 0.1)" stroke-width="1.5"></path><path d="M1453.14 517.58L1586.75 517.94" stroke="rgba(3, 160, 98, 0.1)" stroke-width="1.5"></path><path d="M1453.14 517.58L1562.75 397.18" stroke="rgba(3, 160, 98, 0.1)" stroke-width="1.5"></path><path d="M1453.14 517.58L1282.87 495.24" stroke="rgba(3, 160, 98, 0.1)" stroke-width="1.5"></path><path d="M1403.81 696.84L1403.81 696.84" stroke="rgba(3, 160, 98, 0.1)" stroke-width="1.5"></path><path d="M1403.81 696.84L1453.14 517.58" stroke="rgba(3, 160, 98, 0.1)" stroke-width="1.5"></path><path d="M1403.81 696.84L1282.87 495.24" stroke="rgba(3, 160, 98, 0.1)" stroke-width="1.5"></path><path d="M1403.81 696.84L1586.75 517.94" stroke="rgba(3, 160, 98, 0.1)" stroke-width="1.5"></path><path d="M1573.33 -65.45L1573.33 -65.45" stroke="rgba(3, 160, 98, 0.1)" stroke-width="1.5"></path><path d="M1573.33 -65.45L1596.57 105.24" stroke="rgba(3, 160, 98, 0.1)" stroke-width="1.5"></path><path d="M1573.33 -65.45L1427.22 52.03" stroke="rgba(3, 160, 98, 0.1)" stroke-width="1.5"></path><path d="M1573.33 -65.45L1569.68 236.73" stroke="rgba(3, 160, 98, 0.1)" stroke-width="1.5"></path><path d="M1573.33 -65.45L1426.96 218.14" stroke="rgba(3, 160, 98, 0.1)" stroke-width="1.5"></path><path d="M1573.33 -65.45L1244.72 -82.66" stroke="rgba(3, 160, 98, 0.1)" stroke-width="1.5"></path><path d="M1596.57 105.24L1596.57 105.24" stroke="rgba(3, 160, 98, 0.1)" stroke-width="1.5"></path><path d="M1596.57 105.24L1569.68 236.73" stroke="rgba(3, 160, 98, 0.1)" stroke-width="1.5"></path><path d="M1569.68 236.73L1569.68 236.73" stroke="rgba(3, 160, 98, 0.1)" stroke-width="1.5"></path><path d="M1569.68 236.73L1562.75 397.18" stroke="rgba(3, 160, 98, 0.1)" stroke-width="1.5"></path><path d="M1569.68 236.73L1427.22 52.03" stroke="rgba(3, 160, 98, 0.1)" stroke-width="1.5"></path><path d="M1569.68 236.73L1586.75 517.94" stroke="rgba(3, 160, 98, 0.1)" stroke-width="1.5"></path><path d="M1562.75 397.18L1562.75 397.18" stroke="rgba(3, 160, 98, 0.1)" stroke-width="1.5"></path><path d="M1562.75 397.18L1586.75 517.94" stroke="rgba(3, 160, 98, 0.1)" stroke-width="1.5"></path><path d="M1586.75 517.94L1586.75 517.94" stroke="rgba(3, 160, 98, 0.1)" stroke-width="1.5"></path><path d="M1586.75 517.94L1417.72 344.5" stroke="rgba(3, 160, 98, 0.1)" stroke-width="1.5"></path><circle r="5" cx="-63.1" cy="382.84" fill="rgba(3, 160, 98, 0.1)"></circle><circle r="5" cx="-99.42" cy="543.1" fill="rgba(3, 160, 98, 0.1)"></circle><circle r="5" cx="-45.88" cy="691.85" fill="rgba(3, 160, 98, 0.1)"></circle><circle r="5" cx="82.41" cy="407.48" fill="rgba(3, 160, 98, 0.1)"></circle><circle r="5" cx="105.17" cy="544.33" fill="rgba(3, 160, 98, 0.1)"></circle><circle r="5" cx="51.03" cy="702.17" fill="rgba(3, 160, 98, 0.1)"></circle><circle r="5" cx="229.22" cy="350.59" fill="rgba(3, 160, 98, 0.1)"></circle><circle r="5" cx="249.45" cy="660.16" fill="rgba(3, 160, 98, 0.1)"></circle><circle r="5" cx="386.23" cy="408.43" fill="rgba(3, 160, 98, 0.1)"></circle><circle r="5" cx="400" cy="539.98" fill="rgba(3, 160, 98, 0.1)"></circle><circle r="5" cx="361.74" cy="709.5" fill="rgba(3, 160, 98, 0.1)"></circle><circle r="5" cx="562.24" cy="359.01" fill="rgba(3, 160, 98, 0.1)"></circle><circle r="5" cx="537.7" cy="535.52" fill="rgba(3, 160, 98, 0.1)"></circle><circle r="5" cx="541.72" cy="694.35" fill="rgba(3, 160, 98, 0.1)"></circle><circle r="5" cx="707.76" cy="246.4" fill="rgba(3, 160, 98, 0.1)"></circle><circle r="5" cx="668.19" cy="544.93" fill="rgba(3, 160, 98, 0.1)"></circle><circle r="5" cx="649.96" cy="693.9" fill="rgba(3, 160, 98, 0.1)"></circle><circle r="5" cx="788.95" cy="496.83" fill="rgba(3, 160, 98, 0.1)"></circle><circle r="5" cx="824.91" cy="684.04" fill="rgba(3, 160, 98, 0.1)"></circle><circle r="5" cx="938.62" cy="102.03" fill="rgba(3, 160, 98, 0.1)"></circle><circle r="5" cx="999.47" cy="194.17" fill="rgba(3, 160, 98, 0.1)"></circle><circle r="5" cx="946.1" cy="362.34" fill="rgba(3, 160, 98, 0.1)"></circle><circle r="5" cx="946.96" cy="550.76" fill="rgba(3, 160, 98, 0.1)"></circle><circle r="5" cx="941.97" cy="684.85" fill="rgba(3, 160, 98, 0.1)"></circle><circle r="5" cx="1121.25" cy="-65.12" fill="rgba(3, 160, 98, 0.1)"></circle><circle r="5" cx="1091.55" cy="53.44" fill="rgba(3, 160, 98, 0.1)"></circle><circle r="5" cx="1110.53" cy="227.87" fill="rgba(3, 160, 98, 0.1)"></circle><circle r="5" cx="1132.37" cy="553.32" fill="rgba(3, 160, 98, 0.1)"></circle><circle r="5" cx="1126.72" cy="685.82" fill="rgba(3, 160, 98, 0.1)"></circle><circle r="5" cx="1244.72" cy="-82.66" fill="rgba(3, 160, 98, 0.1)"></circle><circle r="5" cx="1280.18" cy="101.83" fill="rgba(3, 160, 98, 0.1)"></circle><circle r="5" cx="1284.25" cy="214.89" fill="rgba(3, 160, 98, 0.1)"></circle><circle r="5" cx="1253.01" cy="383.17" fill="rgba(3, 160, 98, 0.1)"></circle><circle r="5" cx="1282.87" cy="495.24" fill="rgba(3, 160, 98, 0.1)"></circle><circle r="5" cx="1428.39" cy="-90.29" fill="rgba(3, 160, 98, 0.1)"></circle><circle r="5" cx="1427.22" cy="52.03" fill="rgba(3, 160, 98, 0.1)"></circle><circle r="5" cx="1426.96" cy="218.14" fill="rgba(3, 160, 98, 0.1)"></circle><circle r="5" cx="1417.72" cy="344.5" fill="rgba(3, 160, 98, 0.1)"></circle><circle r="5" cx="1453.14" cy="517.58" fill="rgba(3, 160, 98, 0.1)"></circle><circle r="5" cx="1403.81" cy="696.84" fill="rgba(3, 160, 98, 0.1)"></circle><circle r="5" cx="1573.33" cy="-65.45" fill="rgba(3, 160, 98, 0.1)"></circle><circle r="5" cx="1596.57" cy="105.24" fill="rgba(3, 160, 98, 0.1)"></circle><circle r="5" cx="1569.68" cy="236.73" fill="rgba(3, 160, 98, 0.1)"></circle><circle r="5" cx="1562.75" cy="397.18" fill="rgba(3, 160, 98, 0.1)"></circle><circle r="5" cx="1586.75" cy="517.94" fill="rgba(3, 160, 98, 0.1)"></circle><path d="M667.86 640.35L667.86 640.35" stroke="hsla(156.29999999999995, 96.3%, 41.5%, 0.25)" stroke-width="1.5"></path><path d="M667.86 640.35L684.75 522.02" stroke="hsla(156.29999999999995, 96.3%, 41.5%, 0.25)" stroke-width="1.5"></path><path d="M667.86 640.35L554.52 698.23" stroke="hsla(156.29999999999995, 96.3%, 41.5%, 0.25)" stroke-width="1.5"></path><path d="M667.86 640.35L822.65 685.58" stroke="hsla(156.29999999999995, 96.3%, 41.5%, 0.25)" stroke-width="1.5"></path><path d="M788.54 410.86L788.54 410.86" stroke="hsla(156.29999999999995, 96.3%, 41.5%, 0.25)" stroke-width="1.5"></path><path d="M788.54 410.86L693.11 407.23" stroke="hsla(156.29999999999995, 96.3%, 41.5%, 0.25)" stroke-width="1.5"></path><path d="M788.54 410.86L855.1 515.8" stroke="hsla(156.29999999999995, 96.3%, 41.5%, 0.25)" stroke-width="1.5"></path><path d="M1001.79 505.95L1001.79 505.95" stroke="hsla(156.29999999999995, 96.3%, 41.5%, 0.25)" stroke-width="1.5"></path><path d="M1001.79 505.95L1136.21 536.16" stroke="hsla(156.29999999999995, 96.3%, 41.5%, 0.25)" stroke-width="1.5"></path><path d="M1269.44 -97.76L1269.44 -97.76" stroke="hsla(156.29999999999995, 96.3%, 41.5%, 0.25)" stroke-width="1.5"></path><path d="M1269.44 -97.76L1154.4 -71.22" stroke="hsla(156.29999999999995, 96.3%, 41.5%, 0.25)" stroke-width="1.5"></path><path d="M1269.44 -97.76L1245.18 71.94" stroke="hsla(156.29999999999995, 96.3%, 41.5%, 0.25)" stroke-width="1.5"></path><path d="M1269.44 -97.76L1430.51 106.32" stroke="hsla(156.29999999999995, 96.3%, 41.5%, 0.25)" stroke-width="1.5"></path><path d="M1269.44 -97.76L1557.21 -87.65" stroke="hsla(156.29999999999995, 96.3%, 41.5%, 0.25)" stroke-width="1.5"></path><path d="M1269.44 -97.76L1249.94 196.44" stroke="hsla(156.29999999999995, 96.3%, 41.5%, 0.25)" stroke-width="1.5"></path><path d="M1430.51 106.32L1430.51 106.32" stroke="hsla(156.29999999999995, 96.3%, 41.5%, 0.25)" stroke-width="1.5"></path><path d="M1430.51 106.32L1424.44 211.31" stroke="hsla(156.29999999999995, 96.3%, 41.5%, 0.25)" stroke-width="1.5"></path><path d="M1430.51 106.32L1574.7 97.27" stroke="hsla(156.29999999999995, 96.3%, 41.5%, 0.25)" stroke-width="1.5"></path><path d="M1574.7 97.27L1574.7 97.27" stroke="hsla(156.29999999999995, 96.3%, 41.5%, 0.25)" stroke-width="1.5"></path><path d="M1574.7 97.27L1559.72 206.08" stroke="hsla(156.29999999999995, 96.3%, 41.5%, 0.25)" stroke-width="1.5"></path><path d="M1574.7 97.27L1557.21 -87.65" stroke="hsla(156.29999999999995, 96.3%, 41.5%, 0.25)" stroke-width="1.5"></path><path d="M1574.7 97.27L1424.44 211.31" stroke="hsla(156.29999999999995, 96.3%, 41.5%, 0.25)" stroke-width="1.5"></path><path d="M1574.7 97.27L1570.7 372.51" stroke="hsla(156.29999999999995, 96.3%, 41.5%, 0.25)" stroke-width="1.5"></path><path d="M1575.45 667.03L1575.45 667.03" stroke="hsla(156.29999999999995, 96.3%, 41.5%, 0.25)" stroke-width="1.5"></path><path d="M1575.45 667.03L1458.06 637.71" stroke="hsla(156.29999999999995, 96.3%, 41.5%, 0.25)" stroke-width="1.5"></path><path d="M1575.45 667.03L1576.18 544.15" stroke="hsla(156.29999999999995, 96.3%, 41.5%, 0.25)" stroke-width="1.5"></path><path d="M1575.45 667.03L1445.13 547.29" stroke="hsla(156.29999999999995, 96.3%, 41.5%, 0.25)" stroke-width="1.5"></path><path d="M1575.45 667.03L1307.6 674.74" stroke="hsla(156.29999999999995, 96.3%, 41.5%, 0.25)" stroke-width="1.5"></path><path d="M-99.08 511.04L-99.08 511.04" stroke="hsla(156.29999999999995, 96.3%, 41.5%, 0.25)" stroke-width="1.5"></path><path d="M-99.08 511.04L61.25 557.77" stroke="hsla(156.29999999999995, 96.3%, 41.5%, 0.25)" stroke-width="1.5"></path><path d="M-99.08 511.04L53.95 660.31" stroke="hsla(156.29999999999995, 96.3%, 41.5%, 0.25)" stroke-width="1.5"></path><path d="M61.25 557.77L61.25 557.77" stroke="hsla(156.29999999999995, 96.3%, 41.5%, 0.25)" stroke-width="1.5"></path><path d="M61.25 557.77L53.95 660.31" stroke="hsla(156.29999999999995, 96.3%, 41.5%, 0.25)" stroke-width="1.5"></path><path d="M53.95 660.31L53.95 660.31" stroke="hsla(156.29999999999995, 96.3%, 41.5%, 0.25)" stroke-width="1.5"></path><path d="M53.95 660.31L211.86 641.23" stroke="hsla(156.29999999999995, 96.3%, 41.5%, 0.25)" stroke-width="1.5"></path><path d="M244.55 529.65L244.55 529.65" stroke="hsla(156.29999999999995, 96.3%, 41.5%, 0.25)" stroke-width="1.5"></path><path d="M244.55 529.65L343.2 557.8" stroke="hsla(156.29999999999995, 96.3%, 41.5%, 0.25)" stroke-width="1.5"></path><path d="M244.55 529.65L211.86 641.23" stroke="hsla(156.29999999999995, 96.3%, 41.5%, 0.25)" stroke-width="1.5"></path><path d="M244.55 529.65L61.25 557.77" stroke="hsla(156.29999999999995, 96.3%, 41.5%, 0.25)" stroke-width="1.5"></path><path d="M244.55 529.65L390.98 703.56" stroke="hsla(156.29999999999995, 96.3%, 41.5%, 0.25)" stroke-width="1.5"></path><path d="M244.55 529.65L53.95 660.31" stroke="hsla(156.29999999999995, 96.3%, 41.5%, 0.25)" stroke-width="1.5"></path><path d="M244.55 529.65L502.24 560.91" stroke="hsla(156.29999999999995, 96.3%, 41.5%, 0.25)" stroke-width="1.5"></path><path d="M211.86 641.23L211.86 641.23" stroke="hsla(156.29999999999995, 96.3%, 41.5%, 0.25)" stroke-width="1.5"></path><path d="M211.86 641.23L343.2 557.8" stroke="hsla(156.29999999999995, 96.3%, 41.5%, 0.25)" stroke-width="1.5"></path><path d="M343.2 557.8L343.2 557.8" stroke="hsla(156.29999999999995, 96.3%, 41.5%, 0.25)" stroke-width="1.5"></path><path d="M343.2 557.8L390.98 703.56" stroke="hsla(156.29999999999995, 96.3%, 41.5%, 0.25)" stroke-width="1.5"></path><path d="M390.98 703.56L390.98 703.56" stroke="hsla(156.29999999999995, 96.3%, 41.5%, 0.25)" stroke-width="1.5"></path><path d="M390.98 703.56L554.52 698.23" stroke="hsla(156.29999999999995, 96.3%, 41.5%, 0.25)" stroke-width="1.5"></path><path d="M390.98 703.56L502.24 560.91" stroke="hsla(156.29999999999995, 96.3%, 41.5%, 0.25)" stroke-width="1.5"></path><path d="M390.98 703.56L211.86 641.23" stroke="hsla(156.29999999999995, 96.3%, 41.5%, 0.25)" stroke-width="1.5"></path><path d="M502.24 560.91L502.24 560.91" stroke="hsla(156.29999999999995, 96.3%, 41.5%, 0.25)" stroke-width="1.5"></path><path d="M502.24 560.91L554.52 698.23" stroke="hsla(156.29999999999995, 96.3%, 41.5%, 0.25)" stroke-width="1.5"></path><path d="M502.24 560.91L343.2 557.8" stroke="hsla(156.29999999999995, 96.3%, 41.5%, 0.25)" stroke-width="1.5"></path><path d="M554.52 698.23L554.52 698.23" stroke="hsla(156.29999999999995, 96.3%, 41.5%, 0.25)" stroke-width="1.5"></path><path d="M554.52 698.23L684.75 522.02" stroke="hsla(156.29999999999995, 96.3%, 41.5%, 0.25)" stroke-width="1.5"></path><path d="M554.52 698.23L343.2 557.8" stroke="hsla(156.29999999999995, 96.3%, 41.5%, 0.25)" stroke-width="1.5"></path><path d="M693.11 407.23L693.11 407.23" stroke="hsla(156.29999999999995, 96.3%, 41.5%, 0.25)" stroke-width="1.5"></path><path d="M693.11 407.23L684.75 522.02" stroke="hsla(156.29999999999995, 96.3%, 41.5%, 0.25)" stroke-width="1.5"></path><path d="M684.75 522.02L684.75 522.02" stroke="hsla(156.29999999999995, 96.3%, 41.5%, 0.25)" stroke-width="1.5"></path><path d="M684.75 522.02L788.54 410.86" stroke="hsla(156.29999999999995, 96.3%, 41.5%, 0.25)" stroke-width="1.5"></path><path d="M684.75 522.02L855.1 515.8" stroke="hsla(156.29999999999995, 96.3%, 41.5%, 0.25)" stroke-width="1.5"></path><path d="M684.75 522.02L502.24 560.91" stroke="hsla(156.29999999999995, 96.3%, 41.5%, 0.25)" stroke-width="1.5"></path><path d="M684.75 522.02L822.65 685.58" stroke="hsla(156.29999999999995, 96.3%, 41.5%, 0.25)" stroke-width="1.5"></path><path d="M855.1 515.8L855.1 515.8" stroke="hsla(156.29999999999995, 96.3%, 41.5%, 0.25)" stroke-width="1.5"></path><path d="M855.1 515.8L1001.79 505.95" stroke="hsla(156.29999999999995, 96.3%, 41.5%, 0.25)" stroke-width="1.5"></path><path d="M855.1 515.8L822.65 685.58" stroke="hsla(156.29999999999995, 96.3%, 41.5%, 0.25)" stroke-width="1.5"></path><path d="M822.65 685.58L822.65 685.58" stroke="hsla(156.29999999999995, 96.3%, 41.5%, 0.25)" stroke-width="1.5"></path><path d="M822.65 685.58L963.99 672.37" stroke="hsla(156.29999999999995, 96.3%, 41.5%, 0.25)" stroke-width="1.5"></path><path d="M958.42 261.01L958.42 261.01" stroke="hsla(156.29999999999995, 96.3%, 41.5%, 0.25)" stroke-width="1.5"></path><path d="M958.42 261.01L956.9 338.69" stroke="hsla(156.29999999999995, 96.3%, 41.5%, 0.25)" stroke-width="1.5"></path><path d="M958.42 261.01L1142.66 218.87" stroke="hsla(156.29999999999995, 96.3%, 41.5%, 0.25)" stroke-width="1.5"></path><path d="M958.42 261.01L788.54 410.86" stroke="hsla(156.29999999999995, 96.3%, 41.5%, 0.25)" stroke-width="1.5"></path><path d="M958.42 261.01L1142.23 399.89" stroke="hsla(156.29999999999995, 96.3%, 41.5%, 0.25)" stroke-width="1.5"></path><path d="M958.42 261.01L1001.79 505.95" stroke="hsla(156.29999999999995, 96.3%, 41.5%, 0.25)" stroke-width="1.5"></path><path d="M958.42 261.01L855.1 515.8" stroke="hsla(156.29999999999995, 96.3%, 41.5%, 0.25)" stroke-width="1.5"></path><path d="M956.9 338.69L956.9 338.69" stroke="hsla(156.29999999999995, 96.3%, 41.5%, 0.25)" stroke-width="1.5"></path><path d="M956.9 338.69L1001.79 505.95" stroke="hsla(156.29999999999995, 96.3%, 41.5%, 0.25)" stroke-width="1.5"></path><path d="M956.9 338.69L788.54 410.86" stroke="hsla(156.29999999999995, 96.3%, 41.5%, 0.25)" stroke-width="1.5"></path><path d="M963.99 672.37L963.99 672.37" stroke="hsla(156.29999999999995, 96.3%, 41.5%, 0.25)" stroke-width="1.5"></path><path d="M963.99 672.37L1128.26 710.07" stroke="hsla(156.29999999999995, 96.3%, 41.5%, 0.25)" stroke-width="1.5"></path><path d="M963.99 672.37L1001.79 505.95" stroke="hsla(156.29999999999995, 96.3%, 41.5%, 0.25)" stroke-width="1.5"></path><path d="M1154.4 -71.22L1154.4 -71.22" stroke="hsla(156.29999999999995, 96.3%, 41.5%, 0.25)" stroke-width="1.5"></path><path d="M1154.4 -71.22L1245.18 71.94" stroke="hsla(156.29999999999995, 96.3%, 41.5%, 0.25)" stroke-width="1.5"></path><path d="M1142.66 218.87L1142.66 218.87" stroke="hsla(156.29999999999995, 96.3%, 41.5%, 0.25)" stroke-width="1.5"></path><path d="M1142.66 218.87L1249.94 196.44" stroke="hsla(156.29999999999995, 96.3%, 41.5%, 0.25)" stroke-width="1.5"></path><path d="M1142.66 218.87L1245.18 71.94" stroke="hsla(156.29999999999995, 96.3%, 41.5%, 0.25)" stroke-width="1.5"></path><path d="M1142.23 399.89L1142.23 399.89" stroke="hsla(156.29999999999995, 96.3%, 41.5%, 0.25)" stroke-width="1.5"></path><path d="M1142.23 399.89L1136.21 536.16" stroke="hsla(156.29999999999995, 96.3%, 41.5%, 0.25)" stroke-width="1.5"></path><path d="M1142.23 399.89L1298.26 340.36" stroke="hsla(156.29999999999995, 96.3%, 41.5%, 0.25)" stroke-width="1.5"></path><path d="M1142.23 399.89L1001.79 505.95" stroke="hsla(156.29999999999995, 96.3%, 41.5%, 0.25)" stroke-width="1.5"></path><path d="M1142.23 399.89L1142.66 218.87" stroke="hsla(156.29999999999995, 96.3%, 41.5%, 0.25)" stroke-width="1.5"></path><path d="M1142.23 399.89L1304.49 488.8" stroke="hsla(156.29999999999995, 96.3%, 41.5%, 0.25)" stroke-width="1.5"></path><path d="M1136.21 536.16L1136.21 536.16" stroke="hsla(156.29999999999995, 96.3%, 41.5%, 0.25)" stroke-width="1.5"></path><path d="M1136.21 536.16L1128.26 710.07" stroke="hsla(156.29999999999995, 96.3%, 41.5%, 0.25)" stroke-width="1.5"></path><path d="M1136.21 536.16L1304.49 488.8" stroke="hsla(156.29999999999995, 96.3%, 41.5%, 0.25)" stroke-width="1.5"></path><path d="M1128.26 710.07L1128.26 710.07" stroke="hsla(156.29999999999995, 96.3%, 41.5%, 0.25)" stroke-width="1.5"></path><path d="M1128.26 710.07L1307.6 674.74" stroke="hsla(156.29999999999995, 96.3%, 41.5%, 0.25)" stroke-width="1.5"></path><path d="M1128.26 710.07L1001.79 505.95" stroke="hsla(156.29999999999995, 96.3%, 41.5%, 0.25)" stroke-width="1.5"></path><path d="M1245.18 71.94L1245.18 71.94" stroke="hsla(156.29999999999995, 96.3%, 41.5%, 0.25)" stroke-width="1.5"></path><path d="M1245.18 71.94L1249.94 196.44" stroke="hsla(156.29999999999995, 96.3%, 41.5%, 0.25)" stroke-width="1.5"></path><path d="M1245.18 71.94L1430.51 106.32" stroke="hsla(156.29999999999995, 96.3%, 41.5%, 0.25)" stroke-width="1.5"></path><path d="M1249.94 196.44L1249.94 196.44" stroke="hsla(156.29999999999995, 96.3%, 41.5%, 0.25)" stroke-width="1.5"></path><path d="M1249.94 196.44L1298.26 340.36" stroke="hsla(156.29999999999995, 96.3%, 41.5%, 0.25)" stroke-width="1.5"></path><path d="M1249.94 196.44L1424.44 211.31" stroke="hsla(156.29999999999995, 96.3%, 41.5%, 0.25)" stroke-width="1.5"></path><path d="M1249.94 196.44L1430.51 106.32" stroke="hsla(156.29999999999995, 96.3%, 41.5%, 0.25)" stroke-width="1.5"></path><path d="M1249.94 196.44L1412.41 355.65" stroke="hsla(156.29999999999995, 96.3%, 41.5%, 0.25)" stroke-width="1.5"></path><path d="M1298.26 340.36L1298.26 340.36" stroke="hsla(156.29999999999995, 96.3%, 41.5%, 0.25)" stroke-width="1.5"></path><path d="M1298.26 340.36L1412.41 355.65" stroke="hsla(156.29999999999995, 96.3%, 41.5%, 0.25)" stroke-width="1.5"></path><path d="M1298.26 340.36L1304.49 488.8" stroke="hsla(156.29999999999995, 96.3%, 41.5%, 0.25)" stroke-width="1.5"></path><path d="M1298.26 340.36L1424.44 211.31" stroke="hsla(156.29999999999995, 96.3%, 41.5%, 0.25)" stroke-width="1.5"></path><path d="M1298.26 340.36L1142.66 218.87" stroke="hsla(156.29999999999995, 96.3%, 41.5%, 0.25)" stroke-width="1.5"></path><path d="M1304.49 488.8L1304.49 488.8" stroke="hsla(156.29999999999995, 96.3%, 41.5%, 0.25)" stroke-width="1.5"></path><path d="M1304.49 488.8L1445.13 547.29" stroke="hsla(156.29999999999995, 96.3%, 41.5%, 0.25)" stroke-width="1.5"></path><path d="M1304.49 488.8L1412.41 355.65" stroke="hsla(156.29999999999995, 96.3%, 41.5%, 0.25)" stroke-width="1.5"></path><path d="M1307.6 674.74L1307.6 674.74" stroke="hsla(156.29999999999995, 96.3%, 41.5%, 0.25)" stroke-width="1.5"></path><path d="M1307.6 674.74L1458.06 637.71" stroke="hsla(156.29999999999995, 96.3%, 41.5%, 0.25)" stroke-width="1.5"></path><path d="M1307.6 674.74L1304.49 488.8" stroke="hsla(156.29999999999995, 96.3%, 41.5%, 0.25)" stroke-width="1.5"></path><path d="M1307.6 674.74L1445.13 547.29" stroke="hsla(156.29999999999995, 96.3%, 41.5%, 0.25)" stroke-width="1.5"></path><path d="M1307.6 674.74L1136.21 536.16" stroke="hsla(156.29999999999995, 96.3%, 41.5%, 0.25)" stroke-width="1.5"></path><path d="M1424.44 211.31L1424.44 211.31" stroke="hsla(156.29999999999995, 96.3%, 41.5%, 0.25)" stroke-width="1.5"></path><path d="M1424.44 211.31L1559.72 206.08" stroke="hsla(156.29999999999995, 96.3%, 41.5%, 0.25)" stroke-width="1.5"></path><path d="M1424.44 211.31L1412.41 355.65" stroke="hsla(156.29999999999995, 96.3%, 41.5%, 0.25)" stroke-width="1.5"></path><path d="M1412.41 355.65L1412.41 355.65" stroke="hsla(156.29999999999995, 96.3%, 41.5%, 0.25)" stroke-width="1.5"></path><path d="M1412.41 355.65L1570.7 372.51" stroke="hsla(156.29999999999995, 96.3%, 41.5%, 0.25)" stroke-width="1.5"></path><path d="M1412.41 355.65L1445.13 547.29" stroke="hsla(156.29999999999995, 96.3%, 41.5%, 0.25)" stroke-width="1.5"></path><path d="M1445.13 547.29L1445.13 547.29" stroke="hsla(156.29999999999995, 96.3%, 41.5%, 0.25)" stroke-width="1.5"></path><path d="M1445.13 547.29L1458.06 637.71" stroke="hsla(156.29999999999995, 96.3%, 41.5%, 0.25)" stroke-width="1.5"></path><path d="M1445.13 547.29L1576.18 544.15" stroke="hsla(156.29999999999995, 96.3%, 41.5%, 0.25)" stroke-width="1.5"></path><path d="M1458.06 637.71L1458.06 637.71" stroke="hsla(156.29999999999995, 96.3%, 41.5%, 0.25)" stroke-width="1.5"></path><path d="M1458.06 637.71L1576.18 544.15" stroke="hsla(156.29999999999995, 96.3%, 41.5%, 0.25)" stroke-width="1.5"></path><path d="M1458.06 637.71L1304.49 488.8" stroke="hsla(156.29999999999995, 96.3%, 41.5%, 0.25)" stroke-width="1.5"></path><path d="M1458.06 637.71L1412.41 355.65" stroke="hsla(156.29999999999995, 96.3%, 41.5%, 0.25)" stroke-width="1.5"></path><path d="M1557.21 -87.65L1557.21 -87.65" stroke="hsla(156.29999999999995, 96.3%, 41.5%, 0.25)" stroke-width="1.5"></path><path d="M1559.72 206.08L1559.72 206.08" stroke="hsla(156.29999999999995, 96.3%, 41.5%, 0.25)" stroke-width="1.5"></path><path d="M1559.72 206.08L1430.51 106.32" stroke="hsla(156.29999999999995, 96.3%, 41.5%, 0.25)" stroke-width="1.5"></path><path d="M1559.72 206.08L1570.7 372.51" stroke="hsla(156.29999999999995, 96.3%, 41.5%, 0.25)" stroke-width="1.5"></path><path d="M1559.72 206.08L1412.41 355.65" stroke="hsla(156.29999999999995, 96.3%, 41.5%, 0.25)" stroke-width="1.5"></path><path d="M1559.72 206.08L1557.21 -87.65" stroke="hsla(156.29999999999995, 96.3%, 41.5%, 0.25)" stroke-width="1.5"></path><path d="M1570.7 372.51L1570.7 372.51" stroke="hsla(156.29999999999995, 96.3%, 41.5%, 0.25)" stroke-width="1.5"></path><path d="M1576.18 544.15L1576.18 544.15" stroke="hsla(156.29999999999995, 96.3%, 41.5%, 0.25)" stroke-width="1.5"></path><path d="M1576.18 544.15L1570.7 372.51" stroke="hsla(156.29999999999995, 96.3%, 41.5%, 0.25)" stroke-width="1.5"></path><circle r="25" cx="667.86" cy="640.35" fill="url(&quot;#SvgjsRadialGradient1835&quot;)"></circle><circle r="25" cx="788.54" cy="410.86" fill="url(&quot;#SvgjsRadialGradient1835&quot;)"></circle><circle r="25" cx="1001.79" cy="505.95" fill="url(&quot;#SvgjsRadialGradient1835&quot;)"></circle><circle r="25" cx="1269.44" cy="-97.76" fill="url(&quot;#SvgjsRadialGradient1835&quot;)"></circle><circle r="25" cx="1430.51" cy="106.32" fill="url(&quot;#SvgjsRadialGradient1835&quot;)"></circle><circle r="25" cx="1574.7" cy="97.27" fill="url(&quot;#SvgjsRadialGradient1835&quot;)"></circle><circle r="25" cx="1575.45" cy="667.03" fill="url(&quot;#SvgjsRadialGradient1835&quot;)"></circle><circle r="5" cx="-99.08" cy="511.04" fill="rgba(224, 243, 235, 0.625)"></circle><circle r="5" cx="61.25" cy="557.77" fill="rgba(224, 243, 235, 0.625)"></circle><circle r="5" cx="53.95" cy="660.31" fill="rgba(224, 243, 235, 0.625)"></circle><circle r="5" cx="244.55" cy="529.65" fill="rgba(224, 243, 235, 0.625)"></circle><circle r="5" cx="211.86" cy="641.23" fill="rgba(224, 243, 235, 0.625)"></circle><circle r="5" cx="343.2" cy="557.8" fill="rgba(224, 243, 235, 0.625)"></circle><circle r="5" cx="390.98" cy="703.56" fill="rgba(224, 243, 235, 0.625)"></circle><circle r="5" cx="502.24" cy="560.91" fill="rgba(224, 243, 235, 0.625)"></circle><circle r="5" cx="554.52" cy="698.23" fill="rgba(224, 243, 235, 0.625)"></circle><circle r="5" cx="693.11" cy="407.23" fill="rgba(224, 243, 235, 0.625)"></circle><circle r="5" cx="684.75" cy="522.02" fill="rgba(224, 243, 235, 0.625)"></circle><circle r="5" cx="855.1" cy="515.8" fill="rgba(224, 243, 235, 0.625)"></circle><circle r="5" cx="822.65" cy="685.58" fill="rgba(224, 243, 235, 0.625)"></circle><circle r="5" cx="958.42" cy="261.01" fill="rgba(224, 243, 235, 0.625)"></circle><circle r="5" cx="956.9" cy="338.69" fill="rgba(224, 243, 235, 0.625)"></circle><circle r="5" cx="963.99" cy="672.37" fill="rgba(224, 243, 235, 0.625)"></circle><circle r="5" cx="1154.4" cy="-71.22" fill="rgba(224, 243, 235, 0.625)"></circle><circle r="5" cx="1142.66" cy="218.87" fill="rgba(224, 243, 235, 0.625)"></circle><circle r="5" cx="1142.23" cy="399.89" fill="rgba(224, 243, 235, 0.625)"></circle><circle r="5" cx="1136.21" cy="536.16" fill="rgba(224, 243, 235, 0.625)"></circle><circle r="5" cx="1128.26" cy="710.07" fill="rgba(224, 243, 235, 0.625)"></circle><circle r="5" cx="1245.18" cy="71.94" fill="rgba(224, 243, 235, 0.625)"></circle><circle r="5" cx="1249.94" cy="196.44" fill="rgba(224, 243, 235, 0.625)"></circle><circle r="5" cx="1298.26" cy="340.36" fill="rgba(224, 243, 235, 0.625)"></circle><circle r="5" cx="1304.49" cy="488.8" fill="rgba(224, 243, 235, 0.625)"></circle><circle r="5" cx="1307.6" cy="674.74" fill="rgba(224, 243, 235, 0.625)"></circle><circle r="5" cx="1424.44" cy="211.31" fill="rgba(224, 243, 235, 0.625)"></circle><circle r="5" cx="1412.41" cy="355.65" fill="rgba(224, 243, 235, 0.625)"></circle><circle r="5" cx="1445.13" cy="547.29" fill="rgba(224, 243, 235, 0.625)"></circle><circle r="5" cx="1458.06" cy="637.71" fill="rgba(224, 243, 235, 0.625)"></circle><circle r="5" cx="1557.21" cy="-87.65" fill="rgba(224, 243, 235, 0.625)"></circle><circle r="5" cx="1559.72" cy="206.08" fill="rgba(224, 243, 235, 0.625)"></circle><circle r="5" cx="1570.7" cy="372.51" fill="rgba(224, 243, 235, 0.625)"></circle><circle r="5" cx="1576.18" cy="544.15" fill="rgba(224, 243, 235, 0.625)"></circle></g><defs><mask id="SvgjsMask1833"><rect width="1440" height="560" fill="#ffffff"></rect></mask><linearGradient x1="50%" y1="100%" x2="50%" y2="0%" gradientUnits="userSpaceOnUse" id="SvgjsLinearGradient1834"><stop stop-color="rgba(14, 42, 71, 1)" offset="0"></stop><stop stop-color="rgba(23, 24, 28, 1)" offset="1"></stop></linearGradient><radialGradient id="SvgjsRadialGradient1835"><stop stop-color="#ffffff" offset="0.1"></stop><stop stop-color="rgba(3, 160, 98, 0.25)" offset="0.2"></stop><stop stop-color="rgba(3, 160, 98, 0)" offset="1"></stop></radialGradient></defs></svg>