<svg xmlns="http://www.w3.org/2000/svg" version="1.1" xmlns:xlink="http://www.w3.org/1999/xlink" xmlns:svgjs="http://svgjs.dev/svgjs" width="960" height="540" preserveAspectRatio="none" viewBox="0 0 960 540"><g transform="scale(-1, -1) translate(-960, -540) mask="url(&quot;#SvgjsMask1866&quot;)" fill="none"><rect width="960" height="540" x="0" y="0" fill="url(&quot;#SvgjsLinearGradient1867&quot;)"></rect><path d="M-85.33 327.6L-85.33 327.6" stroke="rgba(3, 160, 98, 0.1)" stroke-width="1.5"></path><path d="M-85.33 327.6L-83.23 423.04" stroke="rgba(3, 160, 98, 0.1)" stroke-width="1.5"></path><path d="M-85.33 327.6L35.32 434.92" stroke="rgba(3, 160, 98, 0.1)" stroke-width="1.5"></path><path d="M-85.33 327.6L60.96 511.23" stroke="rgba(3, 160, 98, 0.1)" stroke-width="1.5"></path><path d="M-85.33 327.6L-72.42 562.27" stroke="rgba(3, 160, 98, 0.1)" stroke-width="1.5"></path><path d="M-83.23 423.04L-83.23 423.04" stroke="rgba(3, 160, 98, 0.1)" stroke-width="1.5"></path><path d="M-83.23 423.04L35.32 434.92" stroke="rgba(3, 160, 98, 0.1)" stroke-width="1.5"></path><path d="M-83.23 423.04L-72.42 562.27" stroke="rgba(3, 160, 98, 0.1)" stroke-width="1.5"></path><path d="M-83.23 423.04L60.96 511.23" stroke="rgba(3, 160, 98, 0.1)" stroke-width="1.5"></path><path d="M-83.23 423.04L-32.39 654.86" stroke="rgba(3, 160, 98, 0.1)" stroke-width="1.5"></path><path d="M-83.23 423.04L67.02 657.53" stroke="rgba(3, 160, 98, 0.1)" stroke-width="1.5"></path><path d="M-72.42 562.27L-72.42 562.27" stroke="rgba(3, 160, 98, 0.1)" stroke-width="1.5"></path><path d="M-72.42 562.27L-32.39 654.86" stroke="rgba(3, 160, 98, 0.1)" stroke-width="1.5"></path><path d="M-72.42 562.27L60.96 511.23" stroke="rgba(3, 160, 98, 0.1)" stroke-width="1.5"></path><path d="M-72.42 562.27L35.32 434.92" stroke="rgba(3, 160, 98, 0.1)" stroke-width="1.5"></path><path d="M-72.42 562.27L67.02 657.53" stroke="rgba(3, 160, 98, 0.1)" stroke-width="1.5"></path><path d="M-32.39 654.86L-32.39 654.86" stroke="rgba(3, 160, 98, 0.1)" stroke-width="1.5"></path><path d="M-32.39 654.86L67.02 657.53" stroke="rgba(3, 160, 98, 0.1)" stroke-width="1.5"></path><path d="M-32.39 654.86L60.96 511.23" stroke="rgba(3, 160, 98, 0.1)" stroke-width="1.5"></path><path d="M-32.39 654.86L164.69 676.38" stroke="rgba(3, 160, 98, 0.1)" stroke-width="1.5"></path><path d="M-32.39 654.86L35.32 434.92" stroke="rgba(3, 160, 98, 0.1)" stroke-width="1.5"></path><path d="M35.32 434.92L35.32 434.92" stroke="rgba(3, 160, 98, 0.1)" stroke-width="1.5"></path><path d="M35.32 434.92L60.96 511.23" stroke="rgba(3, 160, 98, 0.1)" stroke-width="1.5"></path><path d="M35.32 434.92L209.17 419.92" stroke="rgba(3, 160, 98, 0.1)" stroke-width="1.5"></path><path d="M35.32 434.92L203.44 531.93" stroke="rgba(3, 160, 98, 0.1)" stroke-width="1.5"></path><path d="M60.96 511.23L60.96 511.23" stroke="rgba(3, 160, 98, 0.1)" stroke-width="1.5"></path><path d="M67.02 657.53L67.02 657.53" stroke="rgba(3, 160, 98, 0.1)" stroke-width="1.5"></path><path d="M67.02 657.53L164.69 676.38" stroke="rgba(3, 160, 98, 0.1)" stroke-width="1.5"></path><path d="M67.02 657.53L60.96 511.23" stroke="rgba(3, 160, 98, 0.1)" stroke-width="1.5"></path><path d="M67.02 657.53L203.44 531.93" stroke="rgba(3, 160, 98, 0.1)" stroke-width="1.5"></path><path d="M67.02 657.53L289.3 658.6" stroke="rgba(3, 160, 98, 0.1)" stroke-width="1.5"></path><path d="M209.17 419.92L209.17 419.92" stroke="rgba(3, 160, 98, 0.1)" stroke-width="1.5"></path><path d="M209.17 419.92L273.48 400.73" stroke="rgba(3, 160, 98, 0.1)" stroke-width="1.5"></path><path d="M209.17 419.92L203.44 531.93" stroke="rgba(3, 160, 98, 0.1)" stroke-width="1.5"></path><path d="M209.17 419.92L60.96 511.23" stroke="rgba(3, 160, 98, 0.1)" stroke-width="1.5"></path><path d="M209.17 419.92L327.04 557.97" stroke="rgba(3, 160, 98, 0.1)" stroke-width="1.5"></path><path d="M203.44 531.93L203.44 531.93" stroke="rgba(3, 160, 98, 0.1)" stroke-width="1.5"></path><path d="M203.44 531.93L327.04 557.97" stroke="rgba(3, 160, 98, 0.1)" stroke-width="1.5"></path><path d="M203.44 531.93L60.96 511.23" stroke="rgba(3, 160, 98, 0.1)" stroke-width="1.5"></path><path d="M203.44 531.93L273.48 400.73" stroke="rgba(3, 160, 98, 0.1)" stroke-width="1.5"></path><path d="M164.69 676.38L164.69 676.38" stroke="rgba(3, 160, 98, 0.1)" stroke-width="1.5"></path><path d="M273.48 400.73L273.48 400.73" stroke="rgba(3, 160, 98, 0.1)" stroke-width="1.5"></path><path d="M273.48 400.73L415.35 396.07" stroke="rgba(3, 160, 98, 0.1)" stroke-width="1.5"></path><path d="M327.04 557.97L327.04 557.97" stroke="rgba(3, 160, 98, 0.1)" stroke-width="1.5"></path><path d="M327.04 557.97L289.3 658.6" stroke="rgba(3, 160, 98, 0.1)" stroke-width="1.5"></path><path d="M327.04 557.97L431.31 517.13" stroke="rgba(3, 160, 98, 0.1)" stroke-width="1.5"></path><path d="M327.04 557.97L444.56 671.62" stroke="rgba(3, 160, 98, 0.1)" stroke-width="1.5"></path><path d="M327.04 557.97L273.48 400.73" stroke="rgba(3, 160, 98, 0.1)" stroke-width="1.5"></path><path d="M289.3 658.6L289.3 658.6" stroke="rgba(3, 160, 98, 0.1)" stroke-width="1.5"></path><path d="M289.3 658.6L164.69 676.38" stroke="rgba(3, 160, 98, 0.1)" stroke-width="1.5"></path><path d="M289.3 658.6L203.44 531.93" stroke="rgba(3, 160, 98, 0.1)" stroke-width="1.5"></path><path d="M289.3 658.6L444.56 671.62" stroke="rgba(3, 160, 98, 0.1)" stroke-width="1.5"></path><path d="M289.3 658.6L431.31 517.13" stroke="rgba(3, 160, 98, 0.1)" stroke-width="1.5"></path><path d="M408.74 299.45L408.74 299.45" stroke="rgba(3, 160, 98, 0.1)" stroke-width="1.5"></path><path d="M408.74 299.45L415.35 396.07" stroke="rgba(3, 160, 98, 0.1)" stroke-width="1.5"></path><path d="M408.74 299.45L525.14 283.98" stroke="rgba(3, 160, 98, 0.1)" stroke-width="1.5"></path><path d="M415.35 396.07L415.35 396.07" stroke="rgba(3, 160, 98, 0.1)" stroke-width="1.5"></path><path d="M415.35 396.07L431.31 517.13" stroke="rgba(3, 160, 98, 0.1)" stroke-width="1.5"></path><path d="M415.35 396.07L568.84 422.01" stroke="rgba(3, 160, 98, 0.1)" stroke-width="1.5"></path><path d="M431.31 517.13L431.31 517.13" stroke="rgba(3, 160, 98, 0.1)" stroke-width="1.5"></path><path d="M431.31 517.13L516.85 523.98" stroke="rgba(3, 160, 98, 0.1)" stroke-width="1.5"></path><path d="M444.56 671.62L444.56 671.62" stroke="rgba(3, 160, 98, 0.1)" stroke-width="1.5"></path><path d="M444.56 671.62L544.65 630.9" stroke="rgba(3, 160, 98, 0.1)" stroke-width="1.5"></path><path d="M444.56 671.62L431.31 517.13" stroke="rgba(3, 160, 98, 0.1)" stroke-width="1.5"></path><path d="M540.2 193.03L540.2 193.03" stroke="rgba(3, 160, 98, 0.1)" stroke-width="1.5"></path><path d="M540.2 193.03L525.14 283.98" stroke="rgba(3, 160, 98, 0.1)" stroke-width="1.5"></path><path d="M540.2 193.03L651.1 193.04" stroke="rgba(3, 160, 98, 0.1)" stroke-width="1.5"></path><path d="M525.14 283.98L525.14 283.98" stroke="rgba(3, 160, 98, 0.1)" stroke-width="1.5"></path><path d="M525.14 283.98L650.27 287.96" stroke="rgba(3, 160, 98, 0.1)" stroke-width="1.5"></path><path d="M568.84 422.01L568.84 422.01" stroke="rgba(3, 160, 98, 0.1)" stroke-width="1.5"></path><path d="M568.84 422.01L516.85 523.98" stroke="rgba(3, 160, 98, 0.1)" stroke-width="1.5"></path><path d="M568.84 422.01L636.44 530.15" stroke="rgba(3, 160, 98, 0.1)" stroke-width="1.5"></path><path d="M516.85 523.98L516.85 523.98" stroke="rgba(3, 160, 98, 0.1)" stroke-width="1.5"></path><path d="M516.85 523.98L544.65 630.9" stroke="rgba(3, 160, 98, 0.1)" stroke-width="1.5"></path><path d="M516.85 523.98L636.44 530.15" stroke="rgba(3, 160, 98, 0.1)" stroke-width="1.5"></path><path d="M544.65 630.9L544.65 630.9" stroke="rgba(3, 160, 98, 0.1)" stroke-width="1.5"></path><path d="M544.65 630.9L636.44 530.15" stroke="rgba(3, 160, 98, 0.1)" stroke-width="1.5"></path><path d="M544.65 630.9L689.28 673.18" stroke="rgba(3, 160, 98, 0.1)" stroke-width="1.5"></path><path d="M544.65 630.9L431.31 517.13" stroke="rgba(3, 160, 98, 0.1)" stroke-width="1.5"></path><path d="M671.76 -86.12L671.76 -86.12" stroke="rgba(3, 160, 98, 0.1)" stroke-width="1.5"></path><path d="M671.76 -86.12L644.97 37.49" stroke="rgba(3, 160, 98, 0.1)" stroke-width="1.5"></path><path d="M671.76 -86.12L762.9 75.49" stroke="rgba(3, 160, 98, 0.1)" stroke-width="1.5"></path><path d="M671.76 -86.12L919.6 -71.4" stroke="rgba(3, 160, 98, 0.1)" stroke-width="1.5"></path><path d="M671.76 -86.12L879.25 67.67" stroke="rgba(3, 160, 98, 0.1)" stroke-width="1.5"></path><path d="M671.76 -86.12L651.1 193.04" stroke="rgba(3, 160, 98, 0.1)" stroke-width="1.5"></path><path d="M671.76 -86.12L540.2 193.03" stroke="rgba(3, 160, 98, 0.1)" stroke-width="1.5"></path><path d="M644.97 37.49L644.97 37.49" stroke="rgba(3, 160, 98, 0.1)" stroke-width="1.5"></path><path d="M644.97 37.49L762.9 75.49" stroke="rgba(3, 160, 98, 0.1)" stroke-width="1.5"></path><path d="M644.97 37.49L651.1 193.04" stroke="rgba(3, 160, 98, 0.1)" stroke-width="1.5"></path><path d="M651.1 193.04L651.1 193.04" stroke="rgba(3, 160, 98, 0.1)" stroke-width="1.5"></path><path d="M651.1 193.04L650.27 287.96" stroke="rgba(3, 160, 98, 0.1)" stroke-width="1.5"></path><path d="M651.1 193.04L525.14 283.98" stroke="rgba(3, 160, 98, 0.1)" stroke-width="1.5"></path><path d="M651.1 193.04L762.9 75.49" stroke="rgba(3, 160, 98, 0.1)" stroke-width="1.5"></path><path d="M650.27 287.96L650.27 287.96" stroke="rgba(3, 160, 98, 0.1)" stroke-width="1.5"></path><path d="M650.27 287.96L773.3 310.98" stroke="rgba(3, 160, 98, 0.1)" stroke-width="1.5"></path><path d="M650.27 287.96L750.96 392.39" stroke="rgba(3, 160, 98, 0.1)" stroke-width="1.5"></path><path d="M636.44 530.15L636.44 530.15" stroke="rgba(3, 160, 98, 0.1)" stroke-width="1.5"></path><path d="M689.28 673.18L689.28 673.18" stroke="rgba(3, 160, 98, 0.1)" stroke-width="1.5"></path><path d="M689.28 673.18L772.96 652.12" stroke="rgba(3, 160, 98, 0.1)" stroke-width="1.5"></path><path d="M689.28 673.18L636.44 530.15" stroke="rgba(3, 160, 98, 0.1)" stroke-width="1.5"></path><path d="M762.9 75.49L762.9 75.49" stroke="rgba(3, 160, 98, 0.1)" stroke-width="1.5"></path><path d="M762.9 75.49L879.25 67.67" stroke="rgba(3, 160, 98, 0.1)" stroke-width="1.5"></path><path d="M762.9 75.49L887.24 168.48" stroke="rgba(3, 160, 98, 0.1)" stroke-width="1.5"></path><path d="M773.3 310.98L773.3 310.98" stroke="rgba(3, 160, 98, 0.1)" stroke-width="1.5"></path><path d="M773.3 310.98L750.96 392.39" stroke="rgba(3, 160, 98, 0.1)" stroke-width="1.5"></path><path d="M773.3 310.98L914.58 311.74" stroke="rgba(3, 160, 98, 0.1)" stroke-width="1.5"></path><path d="M773.3 310.98L651.1 193.04" stroke="rgba(3, 160, 98, 0.1)" stroke-width="1.5"></path><path d="M773.3 310.98L887.24 168.48" stroke="rgba(3, 160, 98, 0.1)" stroke-width="1.5"></path><path d="M750.96 392.39L750.96 392.39" stroke="rgba(3, 160, 98, 0.1)" stroke-width="1.5"></path><path d="M750.96 392.39L806.65 541.43" stroke="rgba(3, 160, 98, 0.1)" stroke-width="1.5"></path><path d="M750.96 392.39L636.44 530.15" stroke="rgba(3, 160, 98, 0.1)" stroke-width="1.5"></path><path d="M806.65 541.43L806.65 541.43" stroke="rgba(3, 160, 98, 0.1)" stroke-width="1.5"></path><path d="M806.65 541.43L870.59 531.77" stroke="rgba(3, 160, 98, 0.1)" stroke-width="1.5"></path><path d="M806.65 541.43L772.96 652.12" stroke="rgba(3, 160, 98, 0.1)" stroke-width="1.5"></path><path d="M806.65 541.43L901.42 656.17" stroke="rgba(3, 160, 98, 0.1)" stroke-width="1.5"></path><path d="M806.65 541.43L636.44 530.15" stroke="rgba(3, 160, 98, 0.1)" stroke-width="1.5"></path><path d="M772.96 652.12L772.96 652.12" stroke="rgba(3, 160, 98, 0.1)" stroke-width="1.5"></path><path d="M772.96 652.12L901.42 656.17" stroke="rgba(3, 160, 98, 0.1)" stroke-width="1.5"></path><path d="M772.96 652.12L870.59 531.77" stroke="rgba(3, 160, 98, 0.1)" stroke-width="1.5"></path><path d="M919.6 -71.4L919.6 -71.4" stroke="rgba(3, 160, 98, 0.1)" stroke-width="1.5"></path><path d="M919.6 -71.4L1046.51 -61.62" stroke="rgba(3, 160, 98, 0.1)" stroke-width="1.5"></path><path d="M919.6 -71.4L879.25 67.67" stroke="rgba(3, 160, 98, 0.1)" stroke-width="1.5"></path><path d="M919.6 -71.4L1041.72 44.11" stroke="rgba(3, 160, 98, 0.1)" stroke-width="1.5"></path><path d="M919.6 -71.4L762.9 75.49" stroke="rgba(3, 160, 98, 0.1)" stroke-width="1.5"></path><path d="M919.6 -71.4L887.24 168.48" stroke="rgba(3, 160, 98, 0.1)" stroke-width="1.5"></path><path d="M879.25 67.67L879.25 67.67" stroke="rgba(3, 160, 98, 0.1)" stroke-width="1.5"></path><path d="M879.25 67.67L887.24 168.48" stroke="rgba(3, 160, 98, 0.1)" stroke-width="1.5"></path><path d="M879.25 67.67L1041.72 44.11" stroke="rgba(3, 160, 98, 0.1)" stroke-width="1.5"></path><path d="M887.24 168.48L887.24 168.48" stroke="rgba(3, 160, 98, 0.1)" stroke-width="1.5"></path><path d="M914.58 311.74L914.58 311.74" stroke="rgba(3, 160, 98, 0.1)" stroke-width="1.5"></path><path d="M914.58 311.74L990.45 327.62" stroke="rgba(3, 160, 98, 0.1)" stroke-width="1.5"></path><path d="M914.58 311.74L887.24 168.48" stroke="rgba(3, 160, 98, 0.1)" stroke-width="1.5"></path><path d="M870.59 531.77L870.59 531.77" stroke="rgba(3, 160, 98, 0.1)" stroke-width="1.5"></path><path d="M870.59 531.77L901.42 656.17" stroke="rgba(3, 160, 98, 0.1)" stroke-width="1.5"></path><path d="M870.59 531.77L1006.43 560.19" stroke="rgba(3, 160, 98, 0.1)" stroke-width="1.5"></path><path d="M870.59 531.77L750.96 392.39" stroke="rgba(3, 160, 98, 0.1)" stroke-width="1.5"></path><path d="M901.42 656.17L901.42 656.17" stroke="rgba(3, 160, 98, 0.1)" stroke-width="1.5"></path><path d="M901.42 656.17L1009.7 675.32" stroke="rgba(3, 160, 98, 0.1)" stroke-width="1.5"></path><path d="M1046.51 -61.62L1046.51 -61.62" stroke="rgba(3, 160, 98, 0.1)" stroke-width="1.5"></path><path d="M1046.51 -61.62L1041.72 44.11" stroke="rgba(3, 160, 98, 0.1)" stroke-width="1.5"></path><path d="M1046.51 -61.62L879.25 67.67" stroke="rgba(3, 160, 98, 0.1)" stroke-width="1.5"></path><path d="M1041.72 44.11L1041.72 44.11" stroke="rgba(3, 160, 98, 0.1)" stroke-width="1.5"></path><path d="M1041.72 44.11L1040.91 166.1" stroke="rgba(3, 160, 98, 0.1)" stroke-width="1.5"></path><path d="M1041.72 44.11L887.24 168.48" stroke="rgba(3, 160, 98, 0.1)" stroke-width="1.5"></path><path d="M1040.91 166.1L1040.91 166.1" stroke="rgba(3, 160, 98, 0.1)" stroke-width="1.5"></path><path d="M1040.91 166.1L887.24 168.48" stroke="rgba(3, 160, 98, 0.1)" stroke-width="1.5"></path><path d="M1040.91 166.1L990.45 327.62" stroke="rgba(3, 160, 98, 0.1)" stroke-width="1.5"></path><path d="M1040.91 166.1L879.25 67.67" stroke="rgba(3, 160, 98, 0.1)" stroke-width="1.5"></path><path d="M990.45 327.62L990.45 327.62" stroke="rgba(3, 160, 98, 0.1)" stroke-width="1.5"></path><path d="M990.45 327.62L1029.88 417.05" stroke="rgba(3, 160, 98, 0.1)" stroke-width="1.5"></path><path d="M1029.88 417.05L1029.88 417.05" stroke="rgba(3, 160, 98, 0.1)" stroke-width="1.5"></path><path d="M1029.88 417.05L1006.43 560.19" stroke="rgba(3, 160, 98, 0.1)" stroke-width="1.5"></path><path d="M1006.43 560.19L1006.43 560.19" stroke="rgba(3, 160, 98, 0.1)" stroke-width="1.5"></path><path d="M1006.43 560.19L1009.7 675.32" stroke="rgba(3, 160, 98, 0.1)" stroke-width="1.5"></path><path d="M1006.43 560.19L901.42 656.17" stroke="rgba(3, 160, 98, 0.1)" stroke-width="1.5"></path><path d="M1009.7 675.32L1009.7 675.32" stroke="rgba(3, 160, 98, 0.1)" stroke-width="1.5"></path><path d="M1009.7 675.32L870.59 531.77" stroke="rgba(3, 160, 98, 0.1)" stroke-width="1.5"></path><circle r="5" cx="-85.33" cy="327.6" fill="rgba(3, 160, 98, 0.1)"></circle><circle r="5" cx="-83.23" cy="423.04" fill="rgba(3, 160, 98, 0.1)"></circle><circle r="5" cx="-72.42" cy="562.27" fill="rgba(3, 160, 98, 0.1)"></circle><circle r="5" cx="-32.39" cy="654.86" fill="rgba(3, 160, 98, 0.1)"></circle><circle r="5" cx="35.32" cy="434.92" fill="rgba(3, 160, 98, 0.1)"></circle><circle r="5" cx="60.96" cy="511.23" fill="rgba(3, 160, 98, 0.1)"></circle><circle r="5" cx="67.02" cy="657.53" fill="rgba(3, 160, 98, 0.1)"></circle><circle r="5" cx="209.17" cy="419.92" fill="rgba(3, 160, 98, 0.1)"></circle><circle r="5" cx="203.44" cy="531.93" fill="rgba(3, 160, 98, 0.1)"></circle><circle r="5" cx="164.69" cy="676.38" fill="rgba(3, 160, 98, 0.1)"></circle><circle r="5" cx="273.48" cy="400.73" fill="rgba(3, 160, 98, 0.1)"></circle><circle r="5" cx="327.04" cy="557.97" fill="rgba(3, 160, 98, 0.1)"></circle><circle r="5" cx="289.3" cy="658.6" fill="rgba(3, 160, 98, 0.1)"></circle><circle r="5" cx="408.74" cy="299.45" fill="rgba(3, 160, 98, 0.1)"></circle><circle r="5" cx="415.35" cy="396.07" fill="rgba(3, 160, 98, 0.1)"></circle><circle r="5" cx="431.31" cy="517.13" fill="rgba(3, 160, 98, 0.1)"></circle><circle r="5" cx="444.56" cy="671.62" fill="rgba(3, 160, 98, 0.1)"></circle><circle r="5" cx="540.2" cy="193.03" fill="rgba(3, 160, 98, 0.1)"></circle><circle r="5" cx="525.14" cy="283.98" fill="rgba(3, 160, 98, 0.1)"></circle><circle r="5" cx="568.84" cy="422.01" fill="rgba(3, 160, 98, 0.1)"></circle><circle r="5" cx="516.85" cy="523.98" fill="rgba(3, 160, 98, 0.1)"></circle><circle r="5" cx="544.65" cy="630.9" fill="rgba(3, 160, 98, 0.1)"></circle><circle r="5" cx="671.76" cy="-86.12" fill="rgba(3, 160, 98, 0.1)"></circle><circle r="5" cx="644.97" cy="37.49" fill="rgba(3, 160, 98, 0.1)"></circle><circle r="5" cx="651.1" cy="193.04" fill="rgba(3, 160, 98, 0.1)"></circle><circle r="5" cx="650.27" cy="287.96" fill="rgba(3, 160, 98, 0.1)"></circle><circle r="5" cx="636.44" cy="530.15" fill="rgba(3, 160, 98, 0.1)"></circle><circle r="5" cx="689.28" cy="673.18" fill="rgba(3, 160, 98, 0.1)"></circle><circle r="5" cx="762.9" cy="75.49" fill="rgba(3, 160, 98, 0.1)"></circle><circle r="5" cx="773.3" cy="310.98" fill="rgba(3, 160, 98, 0.1)"></circle><circle r="5" cx="750.96" cy="392.39" fill="rgba(3, 160, 98, 0.1)"></circle><circle r="5" cx="806.65" cy="541.43" fill="rgba(3, 160, 98, 0.1)"></circle><circle r="5" cx="772.96" cy="652.12" fill="rgba(3, 160, 98, 0.1)"></circle><circle r="5" cx="919.6" cy="-71.4" fill="rgba(3, 160, 98, 0.1)"></circle><circle r="5" cx="879.25" cy="67.67" fill="rgba(3, 160, 98, 0.1)"></circle><circle r="5" cx="887.24" cy="168.48" fill="rgba(3, 160, 98, 0.1)"></circle><circle r="5" cx="914.58" cy="311.74" fill="rgba(3, 160, 98, 0.1)"></circle><circle r="5" cx="870.59" cy="531.77" fill="rgba(3, 160, 98, 0.1)"></circle><circle r="5" cx="901.42" cy="656.17" fill="rgba(3, 160, 98, 0.1)"></circle><circle r="5" cx="1046.51" cy="-61.62" fill="rgba(3, 160, 98, 0.1)"></circle><circle r="5" cx="1041.72" cy="44.11" fill="rgba(3, 160, 98, 0.1)"></circle><circle r="5" cx="1040.91" cy="166.1" fill="rgba(3, 160, 98, 0.1)"></circle><circle r="5" cx="990.45" cy="327.62" fill="rgba(3, 160, 98, 0.1)"></circle><circle r="5" cx="1029.88" cy="417.05" fill="rgba(3, 160, 98, 0.1)"></circle><circle r="5" cx="1006.43" cy="560.19" fill="rgba(3, 160, 98, 0.1)"></circle><circle r="5" cx="1009.7" cy="675.32" fill="rgba(3, 160, 98, 0.1)"></circle><path d="M171.87 639.93L171.87 639.93" stroke="hsla(156.29999999999995, 96.3%, 41.5%, 0.25)" stroke-width="1.5"></path><path d="M171.87 639.93L79.38 631.52" stroke="hsla(156.29999999999995, 96.3%, 41.5%, 0.25)" stroke-width="1.5"></path><path d="M171.87 639.93L195.32 527" stroke="hsla(156.29999999999995, 96.3%, 41.5%, 0.25)" stroke-width="1.5"></path><path d="M390.29 439.25L390.29 439.25" stroke="hsla(156.29999999999995, 96.3%, 41.5%, 0.25)" stroke-width="1.5"></path><path d="M390.29 439.25L307.18 409.69" stroke="hsla(156.29999999999995, 96.3%, 41.5%, 0.25)" stroke-width="1.5"></path><path d="M390.29 439.25L418.8 542.65" stroke="hsla(156.29999999999995, 96.3%, 41.5%, 0.25)" stroke-width="1.5"></path><path d="M390.29 439.25L522.01 406.58" stroke="hsla(156.29999999999995, 96.3%, 41.5%, 0.25)" stroke-width="1.5"></path><path d="M390.29 439.25L296.51 550.21" stroke="hsla(156.29999999999995, 96.3%, 41.5%, 0.25)" stroke-width="1.5"></path><path d="M390.29 439.25L529.21 313.56" stroke="hsla(156.29999999999995, 96.3%, 41.5%, 0.25)" stroke-width="1.5"></path><path d="M635.36 641.91L635.36 641.91" stroke="hsla(156.29999999999995, 96.3%, 41.5%, 0.25)" stroke-width="1.5"></path><path d="M635.36 641.91L676.46 563.91" stroke="hsla(156.29999999999995, 96.3%, 41.5%, 0.25)" stroke-width="1.5"></path><path d="M996.11 75.23L996.11 75.23" stroke="hsla(156.29999999999995, 96.3%, 41.5%, 0.25)" stroke-width="1.5"></path><path d="M996.11 75.23L926.79 64.09" stroke="hsla(156.29999999999995, 96.3%, 41.5%, 0.25)" stroke-width="1.5"></path><path d="M996.11 75.23L1045.62 173.21" stroke="hsla(156.29999999999995, 96.3%, 41.5%, 0.25)" stroke-width="1.5"></path><path d="M996.11 75.23L1034.17 -80.86" stroke="hsla(156.29999999999995, 96.3%, 41.5%, 0.25)" stroke-width="1.5"></path><path d="M996.11 75.23L888.74 198.64" stroke="hsla(156.29999999999995, 96.3%, 41.5%, 0.25)" stroke-width="1.5"></path><path d="M996.11 75.23L899.56 -76.59" stroke="hsla(156.29999999999995, 96.3%, 41.5%, 0.25)" stroke-width="1.5"></path><path d="M996.11 75.23L1042.18 270" stroke="hsla(156.29999999999995, 96.3%, 41.5%, 0.25)" stroke-width="1.5"></path><path d="M-58.24 515.78L-58.24 515.78" stroke="hsla(156.29999999999995, 96.3%, 41.5%, 0.25)" stroke-width="1.5"></path><path d="M-58.24 515.78L72.42 538.8" stroke="hsla(156.29999999999995, 96.3%, 41.5%, 0.25)" stroke-width="1.5"></path><path d="M-58.24 515.78L-63.14 683.27" stroke="hsla(156.29999999999995, 96.3%, 41.5%, 0.25)" stroke-width="1.5"></path><path d="M-58.24 515.78L79.38 631.52" stroke="hsla(156.29999999999995, 96.3%, 41.5%, 0.25)" stroke-width="1.5"></path><path d="M-58.24 515.78L195.32 527" stroke="hsla(156.29999999999995, 96.3%, 41.5%, 0.25)" stroke-width="1.5"></path><path d="M-63.14 683.27L-63.14 683.27" stroke="hsla(156.29999999999995, 96.3%, 41.5%, 0.25)" stroke-width="1.5"></path><path d="M-63.14 683.27L79.38 631.52" stroke="hsla(156.29999999999995, 96.3%, 41.5%, 0.25)" stroke-width="1.5"></path><path d="M-63.14 683.27L72.42 538.8" stroke="hsla(156.29999999999995, 96.3%, 41.5%, 0.25)" stroke-width="1.5"></path><path d="M-63.14 683.27L171.87 639.93" stroke="hsla(156.29999999999995, 96.3%, 41.5%, 0.25)" stroke-width="1.5"></path><path d="M-63.14 683.27L195.32 527" stroke="hsla(156.29999999999995, 96.3%, 41.5%, 0.25)" stroke-width="1.5"></path><path d="M72.42 538.8L72.42 538.8" stroke="hsla(156.29999999999995, 96.3%, 41.5%, 0.25)" stroke-width="1.5"></path><path d="M72.42 538.8L79.38 631.52" stroke="hsla(156.29999999999995, 96.3%, 41.5%, 0.25)" stroke-width="1.5"></path><path d="M72.42 538.8L195.32 527" stroke="hsla(156.29999999999995, 96.3%, 41.5%, 0.25)" stroke-width="1.5"></path><path d="M72.42 538.8L171.87 639.93" stroke="hsla(156.29999999999995, 96.3%, 41.5%, 0.25)" stroke-width="1.5"></path><path d="M72.42 538.8L296.51 550.21" stroke="hsla(156.29999999999995, 96.3%, 41.5%, 0.25)" stroke-width="1.5"></path><path d="M79.38 631.52L79.38 631.52" stroke="hsla(156.29999999999995, 96.3%, 41.5%, 0.25)" stroke-width="1.5"></path><path d="M79.38 631.52L195.32 527" stroke="hsla(156.29999999999995, 96.3%, 41.5%, 0.25)" stroke-width="1.5"></path><path d="M195.32 527L195.32 527" stroke="hsla(156.29999999999995, 96.3%, 41.5%, 0.25)" stroke-width="1.5"></path><path d="M195.32 527L296.51 550.21" stroke="hsla(156.29999999999995, 96.3%, 41.5%, 0.25)" stroke-width="1.5"></path><path d="M307.18 409.69L307.18 409.69" stroke="hsla(156.29999999999995, 96.3%, 41.5%, 0.25)" stroke-width="1.5"></path><path d="M307.18 409.69L296.51 550.21" stroke="hsla(156.29999999999995, 96.3%, 41.5%, 0.25)" stroke-width="1.5"></path><path d="M307.18 409.69L195.32 527" stroke="hsla(156.29999999999995, 96.3%, 41.5%, 0.25)" stroke-width="1.5"></path><path d="M296.51 550.21L296.51 550.21" stroke="hsla(156.29999999999995, 96.3%, 41.5%, 0.25)" stroke-width="1.5"></path><path d="M296.51 550.21L303.14 637.8" stroke="hsla(156.29999999999995, 96.3%, 41.5%, 0.25)" stroke-width="1.5"></path><path d="M296.51 550.21L418.8 542.65" stroke="hsla(156.29999999999995, 96.3%, 41.5%, 0.25)" stroke-width="1.5"></path><path d="M296.51 550.21L171.87 639.93" stroke="hsla(156.29999999999995, 96.3%, 41.5%, 0.25)" stroke-width="1.5"></path><path d="M303.14 637.8L303.14 637.8" stroke="hsla(156.29999999999995, 96.3%, 41.5%, 0.25)" stroke-width="1.5"></path><path d="M303.14 637.8L424.92 645.22" stroke="hsla(156.29999999999995, 96.3%, 41.5%, 0.25)" stroke-width="1.5"></path><path d="M303.14 637.8L171.87 639.93" stroke="hsla(156.29999999999995, 96.3%, 41.5%, 0.25)" stroke-width="1.5"></path><path d="M303.14 637.8L418.8 542.65" stroke="hsla(156.29999999999995, 96.3%, 41.5%, 0.25)" stroke-width="1.5"></path><path d="M418.8 542.65L418.8 542.65" stroke="hsla(156.29999999999995, 96.3%, 41.5%, 0.25)" stroke-width="1.5"></path><path d="M418.8 542.65L424.92 645.22" stroke="hsla(156.29999999999995, 96.3%, 41.5%, 0.25)" stroke-width="1.5"></path><path d="M424.92 645.22L424.92 645.22" stroke="hsla(156.29999999999995, 96.3%, 41.5%, 0.25)" stroke-width="1.5"></path><path d="M424.92 645.22L520.66 634.04" stroke="hsla(156.29999999999995, 96.3%, 41.5%, 0.25)" stroke-width="1.5"></path><path d="M529.21 313.56L529.21 313.56" stroke="hsla(156.29999999999995, 96.3%, 41.5%, 0.25)" stroke-width="1.5"></path><path d="M529.21 313.56L522.01 406.58" stroke="hsla(156.29999999999995, 96.3%, 41.5%, 0.25)" stroke-width="1.5"></path><path d="M529.21 313.56L662.34 293.5" stroke="hsla(156.29999999999995, 96.3%, 41.5%, 0.25)" stroke-width="1.5"></path><path d="M529.21 313.56L688.8 430.28" stroke="hsla(156.29999999999995, 96.3%, 41.5%, 0.25)" stroke-width="1.5"></path><path d="M522.01 406.58L522.01 406.58" stroke="hsla(156.29999999999995, 96.3%, 41.5%, 0.25)" stroke-width="1.5"></path><path d="M522.01 406.58L688.8 430.28" stroke="hsla(156.29999999999995, 96.3%, 41.5%, 0.25)" stroke-width="1.5"></path><path d="M522.01 406.58L418.8 542.65" stroke="hsla(156.29999999999995, 96.3%, 41.5%, 0.25)" stroke-width="1.5"></path><path d="M520.66 634.04L520.66 634.04" stroke="hsla(156.29999999999995, 96.3%, 41.5%, 0.25)" stroke-width="1.5"></path><path d="M520.66 634.04L635.36 641.91" stroke="hsla(156.29999999999995, 96.3%, 41.5%, 0.25)" stroke-width="1.5"></path><path d="M520.66 634.04L418.8 542.65" stroke="hsla(156.29999999999995, 96.3%, 41.5%, 0.25)" stroke-width="1.5"></path><path d="M520.66 634.04L676.46 563.91" stroke="hsla(156.29999999999995, 96.3%, 41.5%, 0.25)" stroke-width="1.5"></path><path d="M520.66 634.04L303.14 637.8" stroke="hsla(156.29999999999995, 96.3%, 41.5%, 0.25)" stroke-width="1.5"></path><path d="M520.66 634.04L522.01 406.58" stroke="hsla(156.29999999999995, 96.3%, 41.5%, 0.25)" stroke-width="1.5"></path><path d="M662.34 293.5L662.34 293.5" stroke="hsla(156.29999999999995, 96.3%, 41.5%, 0.25)" stroke-width="1.5"></path><path d="M662.34 293.5L688.8 430.28" stroke="hsla(156.29999999999995, 96.3%, 41.5%, 0.25)" stroke-width="1.5"></path><path d="M688.8 430.28L688.8 430.28" stroke="hsla(156.29999999999995, 96.3%, 41.5%, 0.25)" stroke-width="1.5"></path><path d="M688.8 430.28L806.97 434.15" stroke="hsla(156.29999999999995, 96.3%, 41.5%, 0.25)" stroke-width="1.5"></path><path d="M688.8 430.28L676.46 563.91" stroke="hsla(156.29999999999995, 96.3%, 41.5%, 0.25)" stroke-width="1.5"></path><path d="M676.46 563.91L676.46 563.91" stroke="hsla(156.29999999999995, 96.3%, 41.5%, 0.25)" stroke-width="1.5"></path><path d="M676.46 563.91L798.14 519.79" stroke="hsla(156.29999999999995, 96.3%, 41.5%, 0.25)" stroke-width="1.5"></path><path d="M676.46 563.91L781.28 681.79" stroke="hsla(156.29999999999995, 96.3%, 41.5%, 0.25)" stroke-width="1.5"></path><path d="M807.02 -35.56L807.02 -35.56" stroke="hsla(156.29999999999995, 96.3%, 41.5%, 0.25)" stroke-width="1.5"></path><path d="M807.02 -35.56L789.73 53.5" stroke="hsla(156.29999999999995, 96.3%, 41.5%, 0.25)" stroke-width="1.5"></path><path d="M789.73 53.5L789.73 53.5" stroke="hsla(156.29999999999995, 96.3%, 41.5%, 0.25)" stroke-width="1.5"></path><path d="M789.73 53.5L926.79 64.09" stroke="hsla(156.29999999999995, 96.3%, 41.5%, 0.25)" stroke-width="1.5"></path><path d="M789.73 53.5L753.44 187.53" stroke="hsla(156.29999999999995, 96.3%, 41.5%, 0.25)" stroke-width="1.5"></path><path d="M789.73 53.5L899.56 -76.59" stroke="hsla(156.29999999999995, 96.3%, 41.5%, 0.25)" stroke-width="1.5"></path><path d="M789.73 53.5L888.74 198.64" stroke="hsla(156.29999999999995, 96.3%, 41.5%, 0.25)" stroke-width="1.5"></path><path d="M789.73 53.5L996.11 75.23" stroke="hsla(156.29999999999995, 96.3%, 41.5%, 0.25)" stroke-width="1.5"></path><path d="M753.44 187.53L753.44 187.53" stroke="hsla(156.29999999999995, 96.3%, 41.5%, 0.25)" stroke-width="1.5"></path><path d="M753.44 187.53L888.74 198.64" stroke="hsla(156.29999999999995, 96.3%, 41.5%, 0.25)" stroke-width="1.5"></path><path d="M753.44 187.53L662.34 293.5" stroke="hsla(156.29999999999995, 96.3%, 41.5%, 0.25)" stroke-width="1.5"></path><path d="M799.18 327.26L799.18 327.26" stroke="hsla(156.29999999999995, 96.3%, 41.5%, 0.25)" stroke-width="1.5"></path><path d="M799.18 327.26L888.09 304.11" stroke="hsla(156.29999999999995, 96.3%, 41.5%, 0.25)" stroke-width="1.5"></path><path d="M799.18 327.26L880.45 390.82" stroke="hsla(156.29999999999995, 96.3%, 41.5%, 0.25)" stroke-width="1.5"></path><path d="M799.18 327.26L806.97 434.15" stroke="hsla(156.29999999999995, 96.3%, 41.5%, 0.25)" stroke-width="1.5"></path><path d="M799.18 327.26L662.34 293.5" stroke="hsla(156.29999999999995, 96.3%, 41.5%, 0.25)" stroke-width="1.5"></path><path d="M799.18 327.26L753.44 187.53" stroke="hsla(156.29999999999995, 96.3%, 41.5%, 0.25)" stroke-width="1.5"></path><path d="M806.97 434.15L806.97 434.15" stroke="hsla(156.29999999999995, 96.3%, 41.5%, 0.25)" stroke-width="1.5"></path><path d="M806.97 434.15L880.45 390.82" stroke="hsla(156.29999999999995, 96.3%, 41.5%, 0.25)" stroke-width="1.5"></path><path d="M806.97 434.15L798.14 519.79" stroke="hsla(156.29999999999995, 96.3%, 41.5%, 0.25)" stroke-width="1.5"></path><path d="M798.14 519.79L798.14 519.79" stroke="hsla(156.29999999999995, 96.3%, 41.5%, 0.25)" stroke-width="1.5"></path><path d="M798.14 519.79L902.23 525.9" stroke="hsla(156.29999999999995, 96.3%, 41.5%, 0.25)" stroke-width="1.5"></path><path d="M781.28 681.79L781.28 681.79" stroke="hsla(156.29999999999995, 96.3%, 41.5%, 0.25)" stroke-width="1.5"></path><path d="M781.28 681.79L924.51 638.44" stroke="hsla(156.29999999999995, 96.3%, 41.5%, 0.25)" stroke-width="1.5"></path><path d="M781.28 681.79L635.36 641.91" stroke="hsla(156.29999999999995, 96.3%, 41.5%, 0.25)" stroke-width="1.5"></path><path d="M899.56 -76.59L899.56 -76.59" stroke="hsla(156.29999999999995, 96.3%, 41.5%, 0.25)" stroke-width="1.5"></path><path d="M899.56 -76.59L807.02 -35.56" stroke="hsla(156.29999999999995, 96.3%, 41.5%, 0.25)" stroke-width="1.5"></path><path d="M899.56 -76.59L1034.17 -80.86" stroke="hsla(156.29999999999995, 96.3%, 41.5%, 0.25)" stroke-width="1.5"></path><path d="M899.56 -76.59L926.79 64.09" stroke="hsla(156.29999999999995, 96.3%, 41.5%, 0.25)" stroke-width="1.5"></path><path d="M926.79 64.09L926.79 64.09" stroke="hsla(156.29999999999995, 96.3%, 41.5%, 0.25)" stroke-width="1.5"></path><path d="M888.74 198.64L888.74 198.64" stroke="hsla(156.29999999999995, 96.3%, 41.5%, 0.25)" stroke-width="1.5"></path><path d="M888.74 198.64L888.09 304.11" stroke="hsla(156.29999999999995, 96.3%, 41.5%, 0.25)" stroke-width="1.5"></path><path d="M888.74 198.64L926.79 64.09" stroke="hsla(156.29999999999995, 96.3%, 41.5%, 0.25)" stroke-width="1.5"></path><path d="M888.74 198.64L799.18 327.26" stroke="hsla(156.29999999999995, 96.3%, 41.5%, 0.25)" stroke-width="1.5"></path><path d="M888.74 198.64L1045.62 173.21" stroke="hsla(156.29999999999995, 96.3%, 41.5%, 0.25)" stroke-width="1.5"></path><path d="M888.09 304.11L888.09 304.11" stroke="hsla(156.29999999999995, 96.3%, 41.5%, 0.25)" stroke-width="1.5"></path><path d="M888.09 304.11L880.45 390.82" stroke="hsla(156.29999999999995, 96.3%, 41.5%, 0.25)" stroke-width="1.5"></path><path d="M880.45 390.82L880.45 390.82" stroke="hsla(156.29999999999995, 96.3%, 41.5%, 0.25)" stroke-width="1.5"></path><path d="M880.45 390.82L902.23 525.9" stroke="hsla(156.29999999999995, 96.3%, 41.5%, 0.25)" stroke-width="1.5"></path><path d="M880.45 390.82L798.14 519.79" stroke="hsla(156.29999999999995, 96.3%, 41.5%, 0.25)" stroke-width="1.5"></path><path d="M880.45 390.82L888.74 198.64" stroke="hsla(156.29999999999995, 96.3%, 41.5%, 0.25)" stroke-width="1.5"></path><path d="M902.23 525.9L902.23 525.9" stroke="hsla(156.29999999999995, 96.3%, 41.5%, 0.25)" stroke-width="1.5"></path><path d="M902.23 525.9L924.51 638.44" stroke="hsla(156.29999999999995, 96.3%, 41.5%, 0.25)" stroke-width="1.5"></path><path d="M902.23 525.9L1028.69 554.18" stroke="hsla(156.29999999999995, 96.3%, 41.5%, 0.25)" stroke-width="1.5"></path><path d="M902.23 525.9L806.97 434.15" stroke="hsla(156.29999999999995, 96.3%, 41.5%, 0.25)" stroke-width="1.5"></path><path d="M902.23 525.9L1043.66 650.77" stroke="hsla(156.29999999999995, 96.3%, 41.5%, 0.25)" stroke-width="1.5"></path><path d="M924.51 638.44L924.51 638.44" stroke="hsla(156.29999999999995, 96.3%, 41.5%, 0.25)" stroke-width="1.5"></path><path d="M924.51 638.44L1043.66 650.77" stroke="hsla(156.29999999999995, 96.3%, 41.5%, 0.25)" stroke-width="1.5"></path><path d="M924.51 638.44L1028.69 554.18" stroke="hsla(156.29999999999995, 96.3%, 41.5%, 0.25)" stroke-width="1.5"></path><path d="M1034.17 -80.86L1034.17 -80.86" stroke="hsla(156.29999999999995, 96.3%, 41.5%, 0.25)" stroke-width="1.5"></path><path d="M1045.62 173.21L1045.62 173.21" stroke="hsla(156.29999999999995, 96.3%, 41.5%, 0.25)" stroke-width="1.5"></path><path d="M1045.62 173.21L1042.18 270" stroke="hsla(156.29999999999995, 96.3%, 41.5%, 0.25)" stroke-width="1.5"></path><path d="M1042.18 270L1042.18 270" stroke="hsla(156.29999999999995, 96.3%, 41.5%, 0.25)" stroke-width="1.5"></path><path d="M1042.18 270L888.09 304.11" stroke="hsla(156.29999999999995, 96.3%, 41.5%, 0.25)" stroke-width="1.5"></path><path d="M1042.18 270L888.74 198.64" stroke="hsla(156.29999999999995, 96.3%, 41.5%, 0.25)" stroke-width="1.5"></path><path d="M1028.69 554.18L1028.69 554.18" stroke="hsla(156.29999999999995, 96.3%, 41.5%, 0.25)" stroke-width="1.5"></path><path d="M1028.69 554.18L1043.66 650.77" stroke="hsla(156.29999999999995, 96.3%, 41.5%, 0.25)" stroke-width="1.5"></path><path d="M1043.66 650.77L1043.66 650.77" stroke="hsla(156.29999999999995, 96.3%, 41.5%, 0.25)" stroke-width="1.5"></path><path d="M1043.66 650.77L781.28 681.79" stroke="hsla(156.29999999999995, 96.3%, 41.5%, 0.25)" stroke-width="1.5"></path><path d="M1043.66 650.77L798.14 519.79" stroke="hsla(156.29999999999995, 96.3%, 41.5%, 0.25)" stroke-width="1.5"></path><path d="M1043.66 650.77L880.45 390.82" stroke="hsla(156.29999999999995, 96.3%, 41.5%, 0.25)" stroke-width="1.5"></path><circle r="25" cx="171.87" cy="639.93" fill="url(&quot;#SvgjsRadialGradient1868&quot;)"></circle><circle r="25" cx="390.29" cy="439.25" fill="url(&quot;#SvgjsRadialGradient1868&quot;)"></circle><circle r="25" cx="635.36" cy="641.91" fill="url(&quot;#SvgjsRadialGradient1868&quot;)"></circle><circle r="25" cx="996.11" cy="75.23" fill="url(&quot;#SvgjsRadialGradient1868&quot;)"></circle><circle r="5" cx="-58.24" cy="515.78" fill="rgba(224, 243, 235, 0.625)"></circle><circle r="5" cx="-63.14" cy="683.27" fill="rgba(224, 243, 235, 0.625)"></circle><circle r="5" cx="72.42" cy="538.8" fill="rgba(224, 243, 235, 0.625)"></circle><circle r="5" cx="79.38" cy="631.52" fill="rgba(224, 243, 235, 0.625)"></circle><circle r="5" cx="195.32" cy="527" fill="rgba(224, 243, 235, 0.625)"></circle><circle r="5" cx="307.18" cy="409.69" fill="rgba(224, 243, 235, 0.625)"></circle><circle r="5" cx="296.51" cy="550.21" fill="rgba(224, 243, 235, 0.625)"></circle><circle r="5" cx="303.14" cy="637.8" fill="rgba(224, 243, 235, 0.625)"></circle><circle r="5" cx="418.8" cy="542.65" fill="rgba(224, 243, 235, 0.625)"></circle><circle r="5" cx="424.92" cy="645.22" fill="rgba(224, 243, 235, 0.625)"></circle><circle r="5" cx="529.21" cy="313.56" fill="rgba(224, 243, 235, 0.625)"></circle><circle r="5" cx="522.01" cy="406.58" fill="rgba(224, 243, 235, 0.625)"></circle><circle r="5" cx="520.66" cy="634.04" fill="rgba(224, 243, 235, 0.625)"></circle><circle r="5" cx="662.34" cy="293.5" fill="rgba(224, 243, 235, 0.625)"></circle><circle r="5" cx="688.8" cy="430.28" fill="rgba(224, 243, 235, 0.625)"></circle><circle r="5" cx="676.46" cy="563.91" fill="rgba(224, 243, 235, 0.625)"></circle><circle r="5" cx="807.02" cy="-35.56" fill="rgba(224, 243, 235, 0.625)"></circle><circle r="5" cx="789.73" cy="53.5" fill="rgba(224, 243, 235, 0.625)"></circle><circle r="5" cx="753.44" cy="187.53" fill="rgba(224, 243, 235, 0.625)"></circle><circle r="5" cx="799.18" cy="327.26" fill="rgba(224, 243, 235, 0.625)"></circle><circle r="5" cx="806.97" cy="434.15" fill="rgba(224, 243, 235, 0.625)"></circle><circle r="5" cx="798.14" cy="519.79" fill="rgba(224, 243, 235, 0.625)"></circle><circle r="5" cx="781.28" cy="681.79" fill="rgba(224, 243, 235, 0.625)"></circle><circle r="5" cx="899.56" cy="-76.59" fill="rgba(224, 243, 235, 0.625)"></circle><circle r="5" cx="926.79" cy="64.09" fill="rgba(224, 243, 235, 0.625)"></circle><circle r="5" cx="888.74" cy="198.64" fill="rgba(224, 243, 235, 0.625)"></circle><circle r="5" cx="888.09" cy="304.11" fill="rgba(224, 243, 235, 0.625)"></circle><circle r="5" cx="880.45" cy="390.82" fill="rgba(224, 243, 235, 0.625)"></circle><circle r="5" cx="902.23" cy="525.9" fill="rgba(224, 243, 235, 0.625)"></circle><circle r="5" cx="924.51" cy="638.44" fill="rgba(224, 243, 235, 0.625)"></circle><circle r="5" cx="1034.17" cy="-80.86" fill="rgba(224, 243, 235, 0.625)"></circle><circle r="5" cx="1045.62" cy="173.21" fill="rgba(224, 243, 235, 0.625)"></circle><circle r="5" cx="1042.18" cy="270" fill="rgba(224, 243, 235, 0.625)"></circle><circle r="5" cx="1028.69" cy="554.18" fill="rgba(224, 243, 235, 0.625)"></circle><circle r="5" cx="1043.66" cy="650.77" fill="rgba(224, 243, 235, 0.625)"></circle></g><defs><mask id="SvgjsMask1866"><rect width="960" height="540" fill="#ffffff"></rect></mask><linearGradient x1="50%" y1="100%" x2="50%" y2="0%" gradientUnits="userSpaceOnUse" id="SvgjsLinearGradient1867"><stop stop-color="rgba(14, 42, 71, 1)" offset="0"></stop><stop stop-color="rgba(23, 24, 28, 1)" offset="1"></stop></linearGradient><radialGradient id="SvgjsRadialGradient1868"><stop stop-color="#ffffff" offset="0.1"></stop><stop stop-color="rgba(3, 160, 98, 0.25)" offset="0.2"></stop><stop stop-color="rgba(3, 160, 98, 0)" offset="1"></stop></radialGradient></defs></svg>