<svg xmlns="http://www.w3.org/2000/svg" version="1.1" xmlns:xlink="http://www.w3.org/1999/xlink" xmlns:svgjs="http://svgjs.dev/svgjs" width="960" height="540" preserveAspectRatio="none" viewBox="0 0 960 540" transform="scale(-1, -1) translate(-960, -540)"><g mask="url(&quot;#SvgjsMask1098&quot;)" fill="none"><rect width="960" height="540" x="0" y="0" fill="url(&quot;#SvgjsLinearGradient1099&quot;)"></rect><path d="M-51.96 393.78L-51.96 393.78" stroke="rgba(1, 82, 50, 0.44)" stroke-width="1.5"></path><path d="M-51.96 393.78L70.2 398.05" stroke="rgba(1, 82, 50, 0.44)" stroke-width="1.5"></path><path d="M-51.96 393.78L-85.12 555.2" stroke="rgba(1, 82, 50, 0.44)" stroke-width="1.5"></path><path d="M-51.96 393.78L63.22 563.28" stroke="rgba(1, 82, 50, 0.44)" stroke-width="1.5"></path><path d="M-51.96 393.78L193.13 408.53" stroke="rgba(1, 82, 50, 0.44)" stroke-width="1.5"></path><path d="M-85.12 555.2L-85.12 555.2" stroke="rgba(1, 82, 50, 0.44)" stroke-width="1.5"></path><path d="M-85.12 555.2L-38.12 689.36" stroke="rgba(1, 82, 50, 0.44)" stroke-width="1.5"></path><path d="M-85.12 555.2L63.22 563.28" stroke="rgba(1, 82, 50, 0.44)" stroke-width="1.5"></path><path d="M-38.12 689.36L-38.12 689.36" stroke="rgba(1, 82, 50, 0.44)" stroke-width="1.5"></path><path d="M-38.12 689.36L63.04 651.83" stroke="rgba(1, 82, 50, 0.44)" stroke-width="1.5"></path><path d="M-38.12 689.36L63.22 563.28" stroke="rgba(1, 82, 50, 0.44)" stroke-width="1.5"></path><path d="M-38.12 689.36L190.98 553.68" stroke="rgba(1, 82, 50, 0.44)" stroke-width="1.5"></path><path d="M-38.12 689.36L-51.96 393.78" stroke="rgba(1, 82, 50, 0.44)" stroke-width="1.5"></path><path d="M70.2 398.05L70.2 398.05" stroke="rgba(1, 82, 50, 0.44)" stroke-width="1.5"></path><path d="M63.22 563.28L63.22 563.28" stroke="rgba(1, 82, 50, 0.44)" stroke-width="1.5"></path><path d="M63.22 563.28L63.04 651.83" stroke="rgba(1, 82, 50, 0.44)" stroke-width="1.5"></path><path d="M63.22 563.28L190.98 553.68" stroke="rgba(1, 82, 50, 0.44)" stroke-width="1.5"></path><path d="M63.04 651.83L63.04 651.83" stroke="rgba(1, 82, 50, 0.44)" stroke-width="1.5"></path><path d="M63.04 651.83L190.98 553.68" stroke="rgba(1, 82, 50, 0.44)" stroke-width="1.5"></path><path d="M63.04 651.83L-85.12 555.2" stroke="rgba(1, 82, 50, 0.44)" stroke-width="1.5"></path><path d="M63.04 651.83L286.97 685.17" stroke="rgba(1, 82, 50, 0.44)" stroke-width="1.5"></path><path d="M63.04 651.83L70.2 398.05" stroke="rgba(1, 82, 50, 0.44)" stroke-width="1.5"></path><path d="M193.13 408.53L193.13 408.53" stroke="rgba(1, 82, 50, 0.44)" stroke-width="1.5"></path><path d="M193.13 408.53L297.19 395.95" stroke="rgba(1, 82, 50, 0.44)" stroke-width="1.5"></path><path d="M193.13 408.53L70.2 398.05" stroke="rgba(1, 82, 50, 0.44)" stroke-width="1.5"></path><path d="M193.13 408.53L190.98 553.68" stroke="rgba(1, 82, 50, 0.44)" stroke-width="1.5"></path><path d="M193.13 408.53L324.44 287.63" stroke="rgba(1, 82, 50, 0.44)" stroke-width="1.5"></path><path d="M193.13 408.53L63.22 563.28" stroke="rgba(1, 82, 50, 0.44)" stroke-width="1.5"></path><path d="M190.98 553.68L190.98 553.68" stroke="rgba(1, 82, 50, 0.44)" stroke-width="1.5"></path><path d="M324.44 287.63L324.44 287.63" stroke="rgba(1, 82, 50, 0.44)" stroke-width="1.5"></path><path d="M324.44 287.63L418.36 272.37" stroke="rgba(1, 82, 50, 0.44)" stroke-width="1.5"></path><path d="M324.44 287.63L297.19 395.95" stroke="rgba(1, 82, 50, 0.44)" stroke-width="1.5"></path><path d="M297.19 395.95L297.19 395.95" stroke="rgba(1, 82, 50, 0.44)" stroke-width="1.5"></path><path d="M297.19 395.95L407.42 408.97" stroke="rgba(1, 82, 50, 0.44)" stroke-width="1.5"></path><path d="M286.97 685.17L286.97 685.17" stroke="rgba(1, 82, 50, 0.44)" stroke-width="1.5"></path><path d="M286.97 685.17L190.98 553.68" stroke="rgba(1, 82, 50, 0.44)" stroke-width="1.5"></path><path d="M418.36 272.37L418.36 272.37" stroke="rgba(1, 82, 50, 0.44)" stroke-width="1.5"></path><path d="M418.36 272.37L513.33 277.79" stroke="rgba(1, 82, 50, 0.44)" stroke-width="1.5"></path><path d="M418.36 272.37L407.42 408.97" stroke="rgba(1, 82, 50, 0.44)" stroke-width="1.5"></path><path d="M418.36 272.37L562.29 184.16" stroke="rgba(1, 82, 50, 0.44)" stroke-width="1.5"></path><path d="M418.36 272.37L297.19 395.95" stroke="rgba(1, 82, 50, 0.44)" stroke-width="1.5"></path><path d="M418.36 272.37L552.33 446.09" stroke="rgba(1, 82, 50, 0.44)" stroke-width="1.5"></path><path d="M407.42 408.97L407.42 408.97" stroke="rgba(1, 82, 50, 0.44)" stroke-width="1.5"></path><path d="M419.29 554.07L419.29 554.07" stroke="rgba(1, 82, 50, 0.44)" stroke-width="1.5"></path><path d="M419.29 554.07L517.87 544.69" stroke="rgba(1, 82, 50, 0.44)" stroke-width="1.5"></path><path d="M419.29 554.07L407.42 408.97" stroke="rgba(1, 82, 50, 0.44)" stroke-width="1.5"></path><path d="M419.29 554.07L552.33 446.09" stroke="rgba(1, 82, 50, 0.44)" stroke-width="1.5"></path><path d="M562.29 184.16L562.29 184.16" stroke="rgba(1, 82, 50, 0.44)" stroke-width="1.5"></path><path d="M562.29 184.16L513.33 277.79" stroke="rgba(1, 82, 50, 0.44)" stroke-width="1.5"></path><path d="M562.29 184.16L685.73 195.39" stroke="rgba(1, 82, 50, 0.44)" stroke-width="1.5"></path><path d="M562.29 184.16L646.75 78.42" stroke="rgba(1, 82, 50, 0.44)" stroke-width="1.5"></path><path d="M562.29 184.16L665.29 303.19" stroke="rgba(1, 82, 50, 0.44)" stroke-width="1.5"></path><path d="M562.29 184.16L758.22 288.45" stroke="rgba(1, 82, 50, 0.44)" stroke-width="1.5"></path><path d="M513.33 277.79L513.33 277.79" stroke="rgba(1, 82, 50, 0.44)" stroke-width="1.5"></path><path d="M513.33 277.79L665.29 303.19" stroke="rgba(1, 82, 50, 0.44)" stroke-width="1.5"></path><path d="M552.33 446.09L552.33 446.09" stroke="rgba(1, 82, 50, 0.44)" stroke-width="1.5"></path><path d="M552.33 446.09L517.87 544.69" stroke="rgba(1, 82, 50, 0.44)" stroke-width="1.5"></path><path d="M552.33 446.09L657.7 541.21" stroke="rgba(1, 82, 50, 0.44)" stroke-width="1.5"></path><path d="M552.33 446.09L407.42 408.97" stroke="rgba(1, 82, 50, 0.44)" stroke-width="1.5"></path><path d="M552.33 446.09L513.33 277.79" stroke="rgba(1, 82, 50, 0.44)" stroke-width="1.5"></path><path d="M552.33 446.09L665.29 303.19" stroke="rgba(1, 82, 50, 0.44)" stroke-width="1.5"></path><path d="M517.87 544.69L517.87 544.69" stroke="rgba(1, 82, 50, 0.44)" stroke-width="1.5"></path><path d="M517.87 544.69L657.7 541.21" stroke="rgba(1, 82, 50, 0.44)" stroke-width="1.5"></path><path d="M551.93 681.27L551.93 681.27" stroke="rgba(1, 82, 50, 0.44)" stroke-width="1.5"></path><path d="M551.93 681.27L645.16 654.28" stroke="rgba(1, 82, 50, 0.44)" stroke-width="1.5"></path><path d="M551.93 681.27L517.87 544.69" stroke="rgba(1, 82, 50, 0.44)" stroke-width="1.5"></path><path d="M551.93 681.27L657.7 541.21" stroke="rgba(1, 82, 50, 0.44)" stroke-width="1.5"></path><path d="M551.93 681.27L419.29 554.07" stroke="rgba(1, 82, 50, 0.44)" stroke-width="1.5"></path><path d="M652.88 -50L652.88 -50" stroke="rgba(1, 82, 50, 0.44)" stroke-width="1.5"></path><path d="M652.88 -50L646.75 78.42" stroke="rgba(1, 82, 50, 0.44)" stroke-width="1.5"></path><path d="M652.88 -50L763.07 48" stroke="rgba(1, 82, 50, 0.44)" stroke-width="1.5"></path><path d="M652.88 -50L885.77 -30.33" stroke="rgba(1, 82, 50, 0.44)" stroke-width="1.5"></path><path d="M652.88 -50L685.73 195.39" stroke="rgba(1, 82, 50, 0.44)" stroke-width="1.5"></path><path d="M652.88 -50L562.29 184.16" stroke="rgba(1, 82, 50, 0.44)" stroke-width="1.5"></path><path d="M646.75 78.42L646.75 78.42" stroke="rgba(1, 82, 50, 0.44)" stroke-width="1.5"></path><path d="M646.75 78.42L763.07 48" stroke="rgba(1, 82, 50, 0.44)" stroke-width="1.5"></path><path d="M646.75 78.42L685.73 195.39" stroke="rgba(1, 82, 50, 0.44)" stroke-width="1.5"></path><path d="M685.73 195.39L685.73 195.39" stroke="rgba(1, 82, 50, 0.44)" stroke-width="1.5"></path><path d="M685.73 195.39L665.29 303.19" stroke="rgba(1, 82, 50, 0.44)" stroke-width="1.5"></path><path d="M685.73 195.39L798.07 197.01" stroke="rgba(1, 82, 50, 0.44)" stroke-width="1.5"></path><path d="M665.29 303.19L665.29 303.19" stroke="rgba(1, 82, 50, 0.44)" stroke-width="1.5"></path><path d="M665.29 303.19L758.22 288.45" stroke="rgba(1, 82, 50, 0.44)" stroke-width="1.5"></path><path d="M657.7 541.21L657.7 541.21" stroke="rgba(1, 82, 50, 0.44)" stroke-width="1.5"></path><path d="M657.7 541.21L645.16 654.28" stroke="rgba(1, 82, 50, 0.44)" stroke-width="1.5"></path><path d="M657.7 541.21L778.03 540.44" stroke="rgba(1, 82, 50, 0.44)" stroke-width="1.5"></path><path d="M657.7 541.21L790.08 649.51" stroke="rgba(1, 82, 50, 0.44)" stroke-width="1.5"></path><path d="M645.16 654.28L645.16 654.28" stroke="rgba(1, 82, 50, 0.44)" stroke-width="1.5"></path><path d="M763.07 48L763.07 48" stroke="rgba(1, 82, 50, 0.44)" stroke-width="1.5"></path><path d="M763.07 48L899.23 30.32" stroke="rgba(1, 82, 50, 0.44)" stroke-width="1.5"></path><path d="M763.07 48L885.77 -30.33" stroke="rgba(1, 82, 50, 0.44)" stroke-width="1.5"></path><path d="M798.07 197.01L798.07 197.01" stroke="rgba(1, 82, 50, 0.44)" stroke-width="1.5"></path><path d="M798.07 197.01L872.83 189.41" stroke="rgba(1, 82, 50, 0.44)" stroke-width="1.5"></path><path d="M798.07 197.01L758.22 288.45" stroke="rgba(1, 82, 50, 0.44)" stroke-width="1.5"></path><path d="M758.22 288.45L758.22 288.45" stroke="rgba(1, 82, 50, 0.44)" stroke-width="1.5"></path><path d="M758.22 288.45L806.2 391.34" stroke="rgba(1, 82, 50, 0.44)" stroke-width="1.5"></path><path d="M758.22 288.45L685.73 195.39" stroke="rgba(1, 82, 50, 0.44)" stroke-width="1.5"></path><path d="M758.22 288.45L872.83 189.41" stroke="rgba(1, 82, 50, 0.44)" stroke-width="1.5"></path><path d="M758.22 288.45L915.43 293.94" stroke="rgba(1, 82, 50, 0.44)" stroke-width="1.5"></path><path d="M806.2 391.34L806.2 391.34" stroke="rgba(1, 82, 50, 0.44)" stroke-width="1.5"></path><path d="M806.2 391.34L889.55 394.76" stroke="rgba(1, 82, 50, 0.44)" stroke-width="1.5"></path><path d="M778.03 540.44L778.03 540.44" stroke="rgba(1, 82, 50, 0.44)" stroke-width="1.5"></path><path d="M778.03 540.44L790.08 649.51" stroke="rgba(1, 82, 50, 0.44)" stroke-width="1.5"></path><path d="M790.08 649.51L790.08 649.51" stroke="rgba(1, 82, 50, 0.44)" stroke-width="1.5"></path><path d="M790.08 649.51L891.23 644" stroke="rgba(1, 82, 50, 0.44)" stroke-width="1.5"></path><path d="M885.77 -30.33L885.77 -30.33" stroke="rgba(1, 82, 50, 0.44)" stroke-width="1.5"></path><path d="M885.77 -30.33L899.23 30.32" stroke="rgba(1, 82, 50, 0.44)" stroke-width="1.5"></path><path d="M885.77 -30.33L1023.38 -71.27" stroke="rgba(1, 82, 50, 0.44)" stroke-width="1.5"></path><path d="M899.23 30.32L899.23 30.32" stroke="rgba(1, 82, 50, 0.44)" stroke-width="1.5"></path><path d="M899.23 30.32L1024.23 35.44" stroke="rgba(1, 82, 50, 0.44)" stroke-width="1.5"></path><path d="M872.83 189.41L872.83 189.41" stroke="rgba(1, 82, 50, 0.44)" stroke-width="1.5"></path><path d="M872.83 189.41L915.43 293.94" stroke="rgba(1, 82, 50, 0.44)" stroke-width="1.5"></path><path d="M915.43 293.94L915.43 293.94" stroke="rgba(1, 82, 50, 0.44)" stroke-width="1.5"></path><path d="M915.43 293.94L1015.74 277.72" stroke="rgba(1, 82, 50, 0.44)" stroke-width="1.5"></path><path d="M915.43 293.94L889.55 394.76" stroke="rgba(1, 82, 50, 0.44)" stroke-width="1.5"></path><path d="M915.43 293.94L806.2 391.34" stroke="rgba(1, 82, 50, 0.44)" stroke-width="1.5"></path><path d="M915.43 293.94L798.07 197.01" stroke="rgba(1, 82, 50, 0.44)" stroke-width="1.5"></path><path d="M889.55 394.76L889.55 394.76" stroke="rgba(1, 82, 50, 0.44)" stroke-width="1.5"></path><path d="M928.8 538.69L928.8 538.69" stroke="rgba(1, 82, 50, 0.44)" stroke-width="1.5"></path><path d="M928.8 538.69L1002.84 531.34" stroke="rgba(1, 82, 50, 0.44)" stroke-width="1.5"></path><path d="M928.8 538.69L891.23 644" stroke="rgba(1, 82, 50, 0.44)" stroke-width="1.5"></path><path d="M928.8 538.69L889.55 394.76" stroke="rgba(1, 82, 50, 0.44)" stroke-width="1.5"></path><path d="M891.23 644L891.23 644" stroke="rgba(1, 82, 50, 0.44)" stroke-width="1.5"></path><path d="M891.23 644L1034.87 676.83" stroke="rgba(1, 82, 50, 0.44)" stroke-width="1.5"></path><path d="M891.23 644L778.03 540.44" stroke="rgba(1, 82, 50, 0.44)" stroke-width="1.5"></path><path d="M891.23 644L1002.84 531.34" stroke="rgba(1, 82, 50, 0.44)" stroke-width="1.5"></path><path d="M1023.38 -71.27L1023.38 -71.27" stroke="rgba(1, 82, 50, 0.44)" stroke-width="1.5"></path><path d="M1023.38 -71.27L1024.23 35.44" stroke="rgba(1, 82, 50, 0.44)" stroke-width="1.5"></path><path d="M1024.23 35.44L1024.23 35.44" stroke="rgba(1, 82, 50, 0.44)" stroke-width="1.5"></path><path d="M1024.23 35.44L885.77 -30.33" stroke="rgba(1, 82, 50, 0.44)" stroke-width="1.5"></path><path d="M1024.23 35.44L1035.48 190.43" stroke="rgba(1, 82, 50, 0.44)" stroke-width="1.5"></path><path d="M1035.48 190.43L1035.48 190.43" stroke="rgba(1, 82, 50, 0.44)" stroke-width="1.5"></path><path d="M1035.48 190.43L1015.74 277.72" stroke="rgba(1, 82, 50, 0.44)" stroke-width="1.5"></path><path d="M1015.74 277.72L1015.74 277.72" stroke="rgba(1, 82, 50, 0.44)" stroke-width="1.5"></path><path d="M1015.74 277.72L1049.84 411.44" stroke="rgba(1, 82, 50, 0.44)" stroke-width="1.5"></path><path d="M1015.74 277.72L872.83 189.41" stroke="rgba(1, 82, 50, 0.44)" stroke-width="1.5"></path><path d="M1015.74 277.72L889.55 394.76" stroke="rgba(1, 82, 50, 0.44)" stroke-width="1.5"></path><path d="M1049.84 411.44L1049.84 411.44" stroke="rgba(1, 82, 50, 0.44)" stroke-width="1.5"></path><path d="M1049.84 411.44L1002.84 531.34" stroke="rgba(1, 82, 50, 0.44)" stroke-width="1.5"></path><path d="M1002.84 531.34L1002.84 531.34" stroke="rgba(1, 82, 50, 0.44)" stroke-width="1.5"></path><path d="M1002.84 531.34L1034.87 676.83" stroke="rgba(1, 82, 50, 0.44)" stroke-width="1.5"></path><path d="M1002.84 531.34L889.55 394.76" stroke="rgba(1, 82, 50, 0.44)" stroke-width="1.5"></path><path d="M1034.87 676.83L1034.87 676.83" stroke="rgba(1, 82, 50, 0.44)" stroke-width="1.5"></path><path d="M1034.87 676.83L928.8 538.69" stroke="rgba(1, 82, 50, 0.44)" stroke-width="1.5"></path><path d="M1034.87 676.83L790.08 649.51" stroke="rgba(1, 82, 50, 0.44)" stroke-width="1.5"></path><path d="M1034.87 676.83L1049.84 411.44" stroke="rgba(1, 82, 50, 0.44)" stroke-width="1.5"></path><path d="M1034.87 676.83L778.03 540.44" stroke="rgba(1, 82, 50, 0.44)" stroke-width="1.5"></path><circle r="5" cx="-51.96" cy="393.78" fill="rgba(1, 82, 50, 0.44)"></circle><circle r="5" cx="-85.12" cy="555.2" fill="rgba(1, 82, 50, 0.44)"></circle><circle r="5" cx="-38.12" cy="689.36" fill="rgba(1, 82, 50, 0.44)"></circle><circle r="5" cx="70.2" cy="398.05" fill="rgba(1, 82, 50, 0.44)"></circle><circle r="5" cx="63.22" cy="563.28" fill="rgba(1, 82, 50, 0.44)"></circle><circle r="5" cx="63.04" cy="651.83" fill="rgba(1, 82, 50, 0.44)"></circle><circle r="5" cx="193.13" cy="408.53" fill="rgba(1, 82, 50, 0.44)"></circle><circle r="5" cx="190.98" cy="553.68" fill="rgba(1, 82, 50, 0.44)"></circle><circle r="5" cx="324.44" cy="287.63" fill="rgba(1, 82, 50, 0.44)"></circle><circle r="5" cx="297.19" cy="395.95" fill="rgba(1, 82, 50, 0.44)"></circle><circle r="5" cx="286.97" cy="685.17" fill="rgba(1, 82, 50, 0.44)"></circle><circle r="5" cx="418.36" cy="272.37" fill="rgba(1, 82, 50, 0.44)"></circle><circle r="5" cx="407.42" cy="408.97" fill="rgba(1, 82, 50, 0.44)"></circle><circle r="5" cx="419.29" cy="554.07" fill="rgba(1, 82, 50, 0.44)"></circle><circle r="5" cx="562.29" cy="184.16" fill="rgba(1, 82, 50, 0.44)"></circle><circle r="5" cx="513.33" cy="277.79" fill="rgba(1, 82, 50, 0.44)"></circle><circle r="5" cx="552.33" cy="446.09" fill="rgba(1, 82, 50, 0.44)"></circle><circle r="5" cx="517.87" cy="544.69" fill="rgba(1, 82, 50, 0.44)"></circle><circle r="5" cx="551.93" cy="681.27" fill="rgba(1, 82, 50, 0.44)"></circle><circle r="5" cx="652.88" cy="-50" fill="rgba(1, 82, 50, 0.44)"></circle><circle r="5" cx="646.75" cy="78.42" fill="rgba(1, 82, 50, 0.44)"></circle><circle r="5" cx="685.73" cy="195.39" fill="rgba(1, 82, 50, 0.44)"></circle><circle r="5" cx="665.29" cy="303.19" fill="rgba(1, 82, 50, 0.44)"></circle><circle r="5" cx="657.7" cy="541.21" fill="rgba(1, 82, 50, 0.44)"></circle><circle r="5" cx="645.16" cy="654.28" fill="rgba(1, 82, 50, 0.44)"></circle><circle r="5" cx="763.07" cy="48" fill="rgba(1, 82, 50, 0.44)"></circle><circle r="5" cx="798.07" cy="197.01" fill="rgba(1, 82, 50, 0.44)"></circle><circle r="5" cx="758.22" cy="288.45" fill="rgba(1, 82, 50, 0.44)"></circle><circle r="5" cx="806.2" cy="391.34" fill="rgba(1, 82, 50, 0.44)"></circle><circle r="5" cx="778.03" cy="540.44" fill="rgba(1, 82, 50, 0.44)"></circle><circle r="5" cx="790.08" cy="649.51" fill="rgba(1, 82, 50, 0.44)"></circle><circle r="5" cx="885.77" cy="-30.33" fill="rgba(1, 82, 50, 0.44)"></circle><circle r="5" cx="899.23" cy="30.32" fill="rgba(1, 82, 50, 0.44)"></circle><circle r="5" cx="872.83" cy="189.41" fill="rgba(1, 82, 50, 0.44)"></circle><circle r="5" cx="915.43" cy="293.94" fill="rgba(1, 82, 50, 0.44)"></circle><circle r="5" cx="889.55" cy="394.76" fill="rgba(1, 82, 50, 0.44)"></circle><circle r="5" cx="928.8" cy="538.69" fill="rgba(1, 82, 50, 0.44)"></circle><circle r="5" cx="891.23" cy="644" fill="rgba(1, 82, 50, 0.44)"></circle><circle r="5" cx="1023.38" cy="-71.27" fill="rgba(1, 82, 50, 0.44)"></circle><circle r="5" cx="1024.23" cy="35.44" fill="rgba(1, 82, 50, 0.44)"></circle><circle r="5" cx="1035.48" cy="190.43" fill="rgba(1, 82, 50, 0.44)"></circle><circle r="5" cx="1015.74" cy="277.72" fill="rgba(1, 82, 50, 0.44)"></circle><circle r="5" cx="1049.84" cy="411.44" fill="rgba(1, 82, 50, 0.44)"></circle><circle r="5" cx="1002.84" cy="531.34" fill="rgba(1, 82, 50, 0.44)"></circle><circle r="5" cx="1034.87" cy="676.83" fill="rgba(1, 82, 50, 0.44)"></circle><path d="M72.73 559.86L72.73 559.86" stroke="hsla(156.29999999999995, 96.3%, 41.5%, 0.82)" stroke-width="1.5"></path><path d="M72.73 559.86L49.33 661.11" stroke="hsla(156.29999999999995, 96.3%, 41.5%, 0.82)" stroke-width="1.5"></path><path d="M72.73 559.86L166.3 631.56" stroke="hsla(156.29999999999995, 96.3%, 41.5%, 0.82)" stroke-width="1.5"></path><path d="M72.73 559.86L-41.51 528.17" stroke="hsla(156.29999999999995, 96.3%, 41.5%, 0.82)" stroke-width="1.5"></path><path d="M72.73 559.86L180.26 431.54" stroke="hsla(156.29999999999995, 96.3%, 41.5%, 0.82)" stroke-width="1.5"></path><path d="M49.33 661.11L49.33 661.11" stroke="hsla(156.29999999999995, 96.3%, 41.5%, 0.82)" stroke-width="1.5"></path><path d="M49.33 661.11L-63.86 657.81" stroke="hsla(156.29999999999995, 96.3%, 41.5%, 0.82)" stroke-width="1.5"></path><path d="M49.33 661.11L166.3 631.56" stroke="hsla(156.29999999999995, 96.3%, 41.5%, 0.82)" stroke-width="1.5"></path><path d="M49.33 661.11L-41.51 528.17" stroke="hsla(156.29999999999995, 96.3%, 41.5%, 0.82)" stroke-width="1.5"></path><path d="M166.3 631.56L166.3 631.56" stroke="hsla(156.29999999999995, 96.3%, 41.5%, 0.82)" stroke-width="1.5"></path><path d="M166.3 631.56L324.07 672.58" stroke="hsla(156.29999999999995, 96.3%, 41.5%, 0.82)" stroke-width="1.5"></path><path d="M166.3 631.56L299.32 520.98" stroke="hsla(156.29999999999995, 96.3%, 41.5%, 0.82)" stroke-width="1.5"></path><path d="M166.3 631.56L180.26 431.54" stroke="hsla(156.29999999999995, 96.3%, 41.5%, 0.82)" stroke-width="1.5"></path><path d="M324.07 672.58L324.07 672.58" stroke="hsla(156.29999999999995, 96.3%, 41.5%, 0.82)" stroke-width="1.5"></path><path d="M324.07 672.58L425.46 677.05" stroke="hsla(156.29999999999995, 96.3%, 41.5%, 0.82)" stroke-width="1.5"></path><path d="M324.07 672.58L299.32 520.98" stroke="hsla(156.29999999999995, 96.3%, 41.5%, 0.82)" stroke-width="1.5"></path><path d="M324.07 672.58L443.85 566.31" stroke="hsla(156.29999999999995, 96.3%, 41.5%, 0.82)" stroke-width="1.5"></path><path d="M324.07 672.58L302.12 449.87" stroke="hsla(156.29999999999995, 96.3%, 41.5%, 0.82)" stroke-width="1.5"></path><path d="M324.07 672.58L550.5 657.13" stroke="hsla(156.29999999999995, 96.3%, 41.5%, 0.82)" stroke-width="1.5"></path><path d="M689.92 518.56L689.92 518.56" stroke="hsla(156.29999999999995, 96.3%, 41.5%, 0.82)" stroke-width="1.5"></path><path d="M689.92 518.56L643.97 447.48" stroke="hsla(156.29999999999995, 96.3%, 41.5%, 0.82)" stroke-width="1.5"></path><path d="M689.92 518.56L805.31 529.87" stroke="hsla(156.29999999999995, 96.3%, 41.5%, 0.82)" stroke-width="1.5"></path><path d="M689.92 518.56L631.22 632.31" stroke="hsla(156.29999999999995, 96.3%, 41.5%, 0.82)" stroke-width="1.5"></path><path d="M631.22 632.31L631.22 632.31" stroke="hsla(156.29999999999995, 96.3%, 41.5%, 0.82)" stroke-width="1.5"></path><path d="M631.22 632.31L550.5 657.13" stroke="hsla(156.29999999999995, 96.3%, 41.5%, 0.82)" stroke-width="1.5"></path><path d="M911.62 417.57L911.62 417.57" stroke="hsla(156.29999999999995, 96.3%, 41.5%, 0.82)" stroke-width="1.5"></path><path d="M911.62 417.57L1027.59 428.05" stroke="hsla(156.29999999999995, 96.3%, 41.5%, 0.82)" stroke-width="1.5"></path><path d="M911.62 417.57L795.36 444.36" stroke="hsla(156.29999999999995, 96.3%, 41.5%, 0.82)" stroke-width="1.5"></path><path d="M911.62 417.57L907.98 288.68" stroke="hsla(156.29999999999995, 96.3%, 41.5%, 0.82)" stroke-width="1.5"></path><path d="M911.62 417.57L805.31 529.87" stroke="hsla(156.29999999999995, 96.3%, 41.5%, 0.82)" stroke-width="1.5"></path><path d="M911.62 417.57L773.32 324.8" stroke="hsla(156.29999999999995, 96.3%, 41.5%, 0.82)" stroke-width="1.5"></path><path d="M911.62 417.57L900.94 649.52" stroke="hsla(156.29999999999995, 96.3%, 41.5%, 0.82)" stroke-width="1.5"></path><path d="M1027.59 428.05L1027.59 428.05" stroke="hsla(156.29999999999995, 96.3%, 41.5%, 0.82)" stroke-width="1.5"></path><path d="M1027.59 428.05L907.98 288.68" stroke="hsla(156.29999999999995, 96.3%, 41.5%, 0.82)" stroke-width="1.5"></path><path d="M1027.59 428.05L1048.74 202.99" stroke="hsla(156.29999999999995, 96.3%, 41.5%, 0.82)" stroke-width="1.5"></path><path d="M1027.59 428.05L795.36 444.36" stroke="hsla(156.29999999999995, 96.3%, 41.5%, 0.82)" stroke-width="1.5"></path><path d="M1027.59 428.05L805.31 529.87" stroke="hsla(156.29999999999995, 96.3%, 41.5%, 0.82)" stroke-width="1.5"></path><path d="M1027.59 428.05L1026.24 675.7" stroke="hsla(156.29999999999995, 96.3%, 41.5%, 0.82)" stroke-width="1.5"></path><path d="M-41.51 528.17L-41.51 528.17" stroke="hsla(156.29999999999995, 96.3%, 41.5%, 0.82)" stroke-width="1.5"></path><path d="M-41.51 528.17L-63.86 657.81" stroke="hsla(156.29999999999995, 96.3%, 41.5%, 0.82)" stroke-width="1.5"></path><path d="M-63.86 657.81L-63.86 657.81" stroke="hsla(156.29999999999995, 96.3%, 41.5%, 0.82)" stroke-width="1.5"></path><path d="M-63.86 657.81L72.73 559.86" stroke="hsla(156.29999999999995, 96.3%, 41.5%, 0.82)" stroke-width="1.5"></path><path d="M180.26 431.54L180.26 431.54" stroke="hsla(156.29999999999995, 96.3%, 41.5%, 0.82)" stroke-width="1.5"></path><path d="M180.26 431.54L302.12 449.87" stroke="hsla(156.29999999999995, 96.3%, 41.5%, 0.82)" stroke-width="1.5"></path><path d="M180.26 431.54L299.32 520.98" stroke="hsla(156.29999999999995, 96.3%, 41.5%, 0.82)" stroke-width="1.5"></path><path d="M302.12 449.87L302.12 449.87" stroke="hsla(156.29999999999995, 96.3%, 41.5%, 0.82)" stroke-width="1.5"></path><path d="M302.12 449.87L299.32 520.98" stroke="hsla(156.29999999999995, 96.3%, 41.5%, 0.82)" stroke-width="1.5"></path><path d="M302.12 449.87L438.04 394.21" stroke="hsla(156.29999999999995, 96.3%, 41.5%, 0.82)" stroke-width="1.5"></path><path d="M302.12 449.87L443.85 566.31" stroke="hsla(156.29999999999995, 96.3%, 41.5%, 0.82)" stroke-width="1.5"></path><path d="M299.32 520.98L299.32 520.98" stroke="hsla(156.29999999999995, 96.3%, 41.5%, 0.82)" stroke-width="1.5"></path><path d="M299.32 520.98L443.85 566.31" stroke="hsla(156.29999999999995, 96.3%, 41.5%, 0.82)" stroke-width="1.5"></path><path d="M299.32 520.98L438.04 394.21" stroke="hsla(156.29999999999995, 96.3%, 41.5%, 0.82)" stroke-width="1.5"></path><path d="M438.04 394.21L438.04 394.21" stroke="hsla(156.29999999999995, 96.3%, 41.5%, 0.82)" stroke-width="1.5"></path><path d="M438.04 394.21L523.76 322.14" stroke="hsla(156.29999999999995, 96.3%, 41.5%, 0.82)" stroke-width="1.5"></path><path d="M443.85 566.31L443.85 566.31" stroke="hsla(156.29999999999995, 96.3%, 41.5%, 0.82)" stroke-width="1.5"></path><path d="M443.85 566.31L518.49 549.03" stroke="hsla(156.29999999999995, 96.3%, 41.5%, 0.82)" stroke-width="1.5"></path><path d="M443.85 566.31L425.46 677.05" stroke="hsla(156.29999999999995, 96.3%, 41.5%, 0.82)" stroke-width="1.5"></path><path d="M443.85 566.31L550.5 657.13" stroke="hsla(156.29999999999995, 96.3%, 41.5%, 0.82)" stroke-width="1.5"></path><path d="M425.46 677.05L425.46 677.05" stroke="hsla(156.29999999999995, 96.3%, 41.5%, 0.82)" stroke-width="1.5"></path><path d="M523.76 322.14L523.76 322.14" stroke="hsla(156.29999999999995, 96.3%, 41.5%, 0.82)" stroke-width="1.5"></path><path d="M523.76 322.14L545.28 435.85" stroke="hsla(156.29999999999995, 96.3%, 41.5%, 0.82)" stroke-width="1.5"></path><path d="M523.76 322.14L660.86 295.34" stroke="hsla(156.29999999999995, 96.3%, 41.5%, 0.82)" stroke-width="1.5"></path><path d="M523.76 322.14L643.97 447.48" stroke="hsla(156.29999999999995, 96.3%, 41.5%, 0.82)" stroke-width="1.5"></path><path d="M523.76 322.14L518.49 549.03" stroke="hsla(156.29999999999995, 96.3%, 41.5%, 0.82)" stroke-width="1.5"></path><path d="M523.76 322.14L773.32 324.8" stroke="hsla(156.29999999999995, 96.3%, 41.5%, 0.82)" stroke-width="1.5"></path><path d="M545.28 435.85L545.28 435.85" stroke="hsla(156.29999999999995, 96.3%, 41.5%, 0.82)" stroke-width="1.5"></path><path d="M545.28 435.85L643.97 447.48" stroke="hsla(156.29999999999995, 96.3%, 41.5%, 0.82)" stroke-width="1.5"></path><path d="M545.28 435.85L438.04 394.21" stroke="hsla(156.29999999999995, 96.3%, 41.5%, 0.82)" stroke-width="1.5"></path><path d="M545.28 435.85L518.49 549.03" stroke="hsla(156.29999999999995, 96.3%, 41.5%, 0.82)" stroke-width="1.5"></path><path d="M518.49 549.03L518.49 549.03" stroke="hsla(156.29999999999995, 96.3%, 41.5%, 0.82)" stroke-width="1.5"></path><path d="M518.49 549.03L550.5 657.13" stroke="hsla(156.29999999999995, 96.3%, 41.5%, 0.82)" stroke-width="1.5"></path><path d="M518.49 549.03L631.22 632.31" stroke="hsla(156.29999999999995, 96.3%, 41.5%, 0.82)" stroke-width="1.5"></path><path d="M518.49 549.03L425.46 677.05" stroke="hsla(156.29999999999995, 96.3%, 41.5%, 0.82)" stroke-width="1.5"></path><path d="M518.49 549.03L643.97 447.48" stroke="hsla(156.29999999999995, 96.3%, 41.5%, 0.82)" stroke-width="1.5"></path><path d="M550.5 657.13L550.5 657.13" stroke="hsla(156.29999999999995, 96.3%, 41.5%, 0.82)" stroke-width="1.5"></path><path d="M660.86 295.34L660.86 295.34" stroke="hsla(156.29999999999995, 96.3%, 41.5%, 0.82)" stroke-width="1.5"></path><path d="M660.86 295.34L773.32 324.8" stroke="hsla(156.29999999999995, 96.3%, 41.5%, 0.82)" stroke-width="1.5"></path><path d="M660.86 295.34L643.97 447.48" stroke="hsla(156.29999999999995, 96.3%, 41.5%, 0.82)" stroke-width="1.5"></path><path d="M660.86 295.34L787.7 170.6" stroke="hsla(156.29999999999995, 96.3%, 41.5%, 0.82)" stroke-width="1.5"></path><path d="M660.86 295.34L545.28 435.85" stroke="hsla(156.29999999999995, 96.3%, 41.5%, 0.82)" stroke-width="1.5"></path><path d="M643.97 447.48L643.97 447.48" stroke="hsla(156.29999999999995, 96.3%, 41.5%, 0.82)" stroke-width="1.5"></path><path d="M643.97 447.48L795.36 444.36" stroke="hsla(156.29999999999995, 96.3%, 41.5%, 0.82)" stroke-width="1.5"></path><path d="M787.7 170.6L787.7 170.6" stroke="hsla(156.29999999999995, 96.3%, 41.5%, 0.82)" stroke-width="1.5"></path><path d="M787.7 170.6L928.15 176.67" stroke="hsla(156.29999999999995, 96.3%, 41.5%, 0.82)" stroke-width="1.5"></path><path d="M787.7 170.6L773.32 324.8" stroke="hsla(156.29999999999995, 96.3%, 41.5%, 0.82)" stroke-width="1.5"></path><path d="M773.32 324.8L773.32 324.8" stroke="hsla(156.29999999999995, 96.3%, 41.5%, 0.82)" stroke-width="1.5"></path><path d="M773.32 324.8L795.36 444.36" stroke="hsla(156.29999999999995, 96.3%, 41.5%, 0.82)" stroke-width="1.5"></path><path d="M773.32 324.8L907.98 288.68" stroke="hsla(156.29999999999995, 96.3%, 41.5%, 0.82)" stroke-width="1.5"></path><path d="M773.32 324.8L643.97 447.48" stroke="hsla(156.29999999999995, 96.3%, 41.5%, 0.82)" stroke-width="1.5"></path><path d="M795.36 444.36L795.36 444.36" stroke="hsla(156.29999999999995, 96.3%, 41.5%, 0.82)" stroke-width="1.5"></path><path d="M795.36 444.36L805.31 529.87" stroke="hsla(156.29999999999995, 96.3%, 41.5%, 0.82)" stroke-width="1.5"></path><path d="M805.31 529.87L805.31 529.87" stroke="hsla(156.29999999999995, 96.3%, 41.5%, 0.82)" stroke-width="1.5"></path><path d="M753.8 674.37L753.8 674.37" stroke="hsla(156.29999999999995, 96.3%, 41.5%, 0.82)" stroke-width="1.5"></path><path d="M753.8 674.37L631.22 632.31" stroke="hsla(156.29999999999995, 96.3%, 41.5%, 0.82)" stroke-width="1.5"></path><path d="M753.8 674.37L900.94 649.52" stroke="hsla(156.29999999999995, 96.3%, 41.5%, 0.82)" stroke-width="1.5"></path><path d="M900.5 -63.1L900.5 -63.1" stroke="hsla(156.29999999999995, 96.3%, 41.5%, 0.82)" stroke-width="1.5"></path><path d="M900.5 -63.1L1003.17 -48.67" stroke="hsla(156.29999999999995, 96.3%, 41.5%, 0.82)" stroke-width="1.5"></path><path d="M900.5 -63.1L997.09 69.8" stroke="hsla(156.29999999999995, 96.3%, 41.5%, 0.82)" stroke-width="1.5"></path><path d="M928.15 176.67L928.15 176.67" stroke="hsla(156.29999999999995, 96.3%, 41.5%, 0.82)" stroke-width="1.5"></path><path d="M928.15 176.67L907.98 288.68" stroke="hsla(156.29999999999995, 96.3%, 41.5%, 0.82)" stroke-width="1.5"></path><path d="M928.15 176.67L1048.74 202.99" stroke="hsla(156.29999999999995, 96.3%, 41.5%, 0.82)" stroke-width="1.5"></path><path d="M928.15 176.67L997.09 69.8" stroke="hsla(156.29999999999995, 96.3%, 41.5%, 0.82)" stroke-width="1.5"></path><path d="M928.15 176.67L773.32 324.8" stroke="hsla(156.29999999999995, 96.3%, 41.5%, 0.82)" stroke-width="1.5"></path><path d="M928.15 176.67L1003.17 -48.67" stroke="hsla(156.29999999999995, 96.3%, 41.5%, 0.82)" stroke-width="1.5"></path><path d="M907.98 288.68L907.98 288.68" stroke="hsla(156.29999999999995, 96.3%, 41.5%, 0.82)" stroke-width="1.5"></path><path d="M907.98 288.68L1048.74 202.99" stroke="hsla(156.29999999999995, 96.3%, 41.5%, 0.82)" stroke-width="1.5"></path><path d="M900.94 649.52L900.94 649.52" stroke="hsla(156.29999999999995, 96.3%, 41.5%, 0.82)" stroke-width="1.5"></path><path d="M900.94 649.52L1026.24 675.7" stroke="hsla(156.29999999999995, 96.3%, 41.5%, 0.82)" stroke-width="1.5"></path><path d="M900.94 649.52L805.31 529.87" stroke="hsla(156.29999999999995, 96.3%, 41.5%, 0.82)" stroke-width="1.5"></path><path d="M900.94 649.52L795.36 444.36" stroke="hsla(156.29999999999995, 96.3%, 41.5%, 0.82)" stroke-width="1.5"></path><path d="M1003.17 -48.67L1003.17 -48.67" stroke="hsla(156.29999999999995, 96.3%, 41.5%, 0.82)" stroke-width="1.5"></path><path d="M1003.17 -48.67L997.09 69.8" stroke="hsla(156.29999999999995, 96.3%, 41.5%, 0.82)" stroke-width="1.5"></path><path d="M997.09 69.8L997.09 69.8" stroke="hsla(156.29999999999995, 96.3%, 41.5%, 0.82)" stroke-width="1.5"></path><path d="M997.09 69.8L1048.74 202.99" stroke="hsla(156.29999999999995, 96.3%, 41.5%, 0.82)" stroke-width="1.5"></path><path d="M997.09 69.8L787.7 170.6" stroke="hsla(156.29999999999995, 96.3%, 41.5%, 0.82)" stroke-width="1.5"></path><path d="M997.09 69.8L907.98 288.68" stroke="hsla(156.29999999999995, 96.3%, 41.5%, 0.82)" stroke-width="1.5"></path><path d="M1048.74 202.99L1048.74 202.99" stroke="hsla(156.29999999999995, 96.3%, 41.5%, 0.82)" stroke-width="1.5"></path><path d="M1026.24 675.7L1026.24 675.7" stroke="hsla(156.29999999999995, 96.3%, 41.5%, 0.82)" stroke-width="1.5"></path><path d="M1026.24 675.7L805.31 529.87" stroke="hsla(156.29999999999995, 96.3%, 41.5%, 0.82)" stroke-width="1.5"></path><path d="M1026.24 675.7L753.8 674.37" stroke="hsla(156.29999999999995, 96.3%, 41.5%, 0.82)" stroke-width="1.5"></path><circle r="25" cx="72.73" cy="559.86" fill="url(&quot;#SvgjsRadialGradient1100&quot;)"></circle><circle r="25" cx="49.33" cy="661.11" fill="url(&quot;#SvgjsRadialGradient1100&quot;)"></circle><circle r="25" cx="166.3" cy="631.56" fill="url(&quot;#SvgjsRadialGradient1100&quot;)"></circle><circle r="25" cx="324.07" cy="672.58" fill="url(&quot;#SvgjsRadialGradient1100&quot;)"></circle><circle r="25" cx="689.92" cy="518.56" fill="url(&quot;#SvgjsRadialGradient1100&quot;)"></circle><circle r="25" cx="631.22" cy="632.31" fill="url(&quot;#SvgjsRadialGradient1100&quot;)"></circle><circle r="25" cx="911.62" cy="417.57" fill="url(&quot;#SvgjsRadialGradient1100&quot;)"></circle><circle r="25" cx="1027.59" cy="428.05" fill="url(&quot;#SvgjsRadialGradient1100&quot;)"></circle><circle r="5" cx="-41.51" cy="528.17" fill="rgba(152, 216, 191, 0.9099999999999999)"></circle><circle r="5" cx="-63.86" cy="657.81" fill="rgba(152, 216, 191, 0.9099999999999999)"></circle><circle r="5" cx="180.26" cy="431.54" fill="rgba(152, 216, 191, 0.9099999999999999)"></circle><circle r="5" cx="302.12" cy="449.87" fill="rgba(152, 216, 191, 0.9099999999999999)"></circle><circle r="5" cx="299.32" cy="520.98" fill="rgba(152, 216, 191, 0.9099999999999999)"></circle><circle r="5" cx="438.04" cy="394.21" fill="rgba(152, 216, 191, 0.9099999999999999)"></circle><circle r="5" cx="443.85" cy="566.31" fill="rgba(152, 216, 191, 0.9099999999999999)"></circle><circle r="5" cx="425.46" cy="677.05" fill="rgba(152, 216, 191, 0.9099999999999999)"></circle><circle r="5" cx="523.76" cy="322.14" fill="rgba(152, 216, 191, 0.9099999999999999)"></circle><circle r="5" cx="545.28" cy="435.85" fill="rgba(152, 216, 191, 0.9099999999999999)"></circle><circle r="5" cx="518.49" cy="549.03" fill="rgba(152, 216, 191, 0.9099999999999999)"></circle><circle r="5" cx="550.5" cy="657.13" fill="rgba(152, 216, 191, 0.9099999999999999)"></circle><circle r="5" cx="660.86" cy="295.34" fill="rgba(152, 216, 191, 0.9099999999999999)"></circle><circle r="5" cx="643.97" cy="447.48" fill="rgba(152, 216, 191, 0.9099999999999999)"></circle><circle r="5" cx="787.7" cy="170.6" fill="rgba(152, 216, 191, 0.9099999999999999)"></circle><circle r="5" cx="773.32" cy="324.8" fill="rgba(152, 216, 191, 0.9099999999999999)"></circle><circle r="5" cx="795.36" cy="444.36" fill="rgba(152, 216, 191, 0.9099999999999999)"></circle><circle r="5" cx="805.31" cy="529.87" fill="rgba(152, 216, 191, 0.9099999999999999)"></circle><circle r="5" cx="753.8" cy="674.37" fill="rgba(152, 216, 191, 0.9099999999999999)"></circle><circle r="5" cx="900.5" cy="-63.1" fill="rgba(152, 216, 191, 0.9099999999999999)"></circle><circle r="5" cx="928.15" cy="176.67" fill="rgba(152, 216, 191, 0.9099999999999999)"></circle><circle r="5" cx="907.98" cy="288.68" fill="rgba(152, 216, 191, 0.9099999999999999)"></circle><circle r="5" cx="900.94" cy="649.52" fill="rgba(152, 216, 191, 0.9099999999999999)"></circle><circle r="5" cx="1003.17" cy="-48.67" fill="rgba(152, 216, 191, 0.9099999999999999)"></circle><circle r="5" cx="997.09" cy="69.8" fill="rgba(152, 216, 191, 0.9099999999999999)"></circle><circle r="5" cx="1048.74" cy="202.99" fill="rgba(152, 216, 191, 0.9099999999999999)"></circle><circle r="5" cx="1026.24" cy="675.7" fill="rgba(152, 216, 191, 0.9099999999999999)"></circle></g><defs><mask id="SvgjsMask1098"><rect width="960" height="540" fill="#ffffff"></rect></mask><linearGradient x1="10.94%" y1="-19.44%" x2="89.06%" y2="119.44%" gradientUnits="userSpaceOnUse" id="SvgjsLinearGradient1099"><stop stop-color="#0e2a47" offset="0"></stop><stop stop-color="rgba(23, 24, 28, 1)" offset="1"></stop></linearGradient><radialGradient id="SvgjsRadialGradient1100"><stop stop-color="#ffffff" offset="0.1"></stop><stop stop-color="rgba(3, 160, 98, 0.82)" offset="0.2"></stop><stop stop-color="rgba(3, 160, 98, 0)" offset="1"></stop></radialGradient></defs></svg>