<svg xmlns="http://www.w3.org/2000/svg" version="1.1" xmlns:xlink="http://www.w3.org/1999/xlink" xmlns:svgjs="http://svgjs.dev/svgjs" width="960" height="540" preserveAspectRatio="none" viewBox="0 0 960 540"><g mask="url(&quot;#SvgjsMask1583&quot;)" fill="none"><rect width="960" height="540" x="0" y="0" fill="url(&quot;#SvgjsLinearGradient1584&quot;)"></rect><path d="M -95.24817867309565,69 C -31.25,120.2 96.75,312.2 224.75182132690435,325 C 352.75,337.8 416.75,115.8 544.7518213269043,133 C 672.75,150.2 736.75,385.2 864.7518213269043,411 C 992.75,436.8 1165.7,252.4 1184.7518213269043,262 C 1203.8,271.6 1004.95,419.6 960,459" stroke="rgba(234, 172, 3, 0.64)" stroke-width="2"></path><path d="M -300.54892149356465,446 C -236.55,394 -108.55,205.6 19.45107850643538,186 C 147.45,166.4 211.45,371.6 339.45107850643535,348 C 467.45,324.4 531.45,73.4 659.4510785064354,68 C 787.45,62.6 919.34,294.2 979.4510785064354,321 C 1039.56,347.8 963.89,225.8 960,202" stroke="rgba(234, 172, 3, 0.64)" stroke-width="2"></path><path d="M -149.8935601875002,219 C -85.89,263.4 42.11,455.4 170.1064398124998,441 C 298.11,426.6 362.11,166.2 490.1064398124998,147 C 618.11,127.8 682.11,332.8 810.1064398124997,345 C 938.11,357.2 1100.13,183.4 1130.1064398124997,208 C 1160.09,232.6 994.02,416 960,468" stroke="rgba(234, 172, 3, 0.64)" stroke-width="2"></path><path d="M -70.747117193419,448 C -6.75,373 121.25,101.2 249.252882806581,73 C 377.25,44.8 441.25,286.8 569.252882806581,307 C 697.25,327.2 761.25,154.4 889.252882806581,174 C 1017.25,193.6 1195.1,396.4 1209.252882806581,405 C 1223.4,413.6 1009.85,254.6 960,217" stroke="rgba(234, 172, 3, 0.64)" stroke-width="2"></path></g><defs><mask id="SvgjsMask1583"><rect width="960" height="540" fill="#ffffff"></rect></mask><linearGradient x1="50%" y1="0%" x2="50%" y2="100%" gradientUnits="userSpaceOnUse" id="SvgjsLinearGradient1584"><stop stop-color="#0e2a47" offset="0"></stop><stop stop-color="rgba(23, 24, 28, 1)" offset="1"></stop></linearGradient></defs></svg>