<svg xmlns="http://www.w3.org/2000/svg" version="1.1" xmlns:xlink="http://www.w3.org/1999/xlink" xmlns:svgjs="http://svgjs.dev/svgjs" width="960" height="540" preserveAspectRatio="none" viewBox="0 0 960 540"><g mask="url(&quot;#SvgjsMask1679&quot;)" fill="none"><rect width="960" height="540" x="0" y="0" fill="url(&quot;#SvgjsLinearGradient1680&quot;)"></rect><path d="M -96.5426232740071,184 C -48.54,202.4 47.46,265.6 143.4573767259929,276 C 239.46,286.4 287.46,211 383.4573767259929,236 C 479.46,261 527.46,420.8 623.4573767259928,401 C 719.46,381.2 767.46,121.8 863.4573767259928,137 C 959.46,152.2 1084.15,464.8 1103.4573767259928,477 C 1122.77,489.2 988.69,253.8 960,198" stroke="rgba(234, 172, 3, 0.64)" stroke-width="2"></path><path d="M -384.2231243090539,84 C -336.22,150.6 -240.22,408.2 -144.2231243090539,417 C -48.22,425.8 -0.22,130.8 95.7768756909461,128 C 191.78,125.2 239.78,411.2 335.7768756909461,403 C 431.78,394.8 479.78,81.4 575.7768756909461,87 C 671.78,92.6 738.93,398.6 815.7768756909461,431 C 892.62,463.4 931.16,285.4 960,249" stroke="rgba(66, 68, 90, 1)" stroke-width="2"></path><path d="M -289.23968237639446,127 C -241.24,192 -145.24,447.8 -49.23968237639446,452 C 46.76,456.2 94.76,168 190.76031762360554,148 C 286.76,128 334.76,328.4 430.76031762360554,352 C 526.76,375.6 574.76,245.6 670.7603176236055,266 C 766.76,286.4 852.91,456.8 910.7603176236055,454 C 968.61,451.2 950.15,292.4 960,252" stroke="rgba(234, 172, 3, 0.64)" stroke-width="2"></path><path d="M -347.6193212589204,442 C -299.62,401.2 -203.62,266 -107.6193212589204,238 C -11.62,210 36.38,335.8 132.3806787410796,302 C 228.38,268.2 276.38,63.8 372.3806787410796,69 C 468.38,74.2 516.38,300.2 612.3806787410796,328 C 708.38,355.8 782.86,183.2 852.3806787410796,208 C 921.9,232.8 938.48,403.2 960,452" stroke="rgba(66, 68, 90, 1)" stroke-width="2"></path></g><defs><mask id="SvgjsMask1679"><rect width="960" height="540" fill="#ffffff"></rect></mask><linearGradient x1="50%" y1="0%" x2="50%" y2="100%" gradientUnits="userSpaceOnUse" id="SvgjsLinearGradient1680"><stop stop-color="#0e2a47" offset="0"></stop><stop stop-color="rgba(23, 24, 28, 1)" offset="1"></stop></linearGradient></defs></svg>